<svg width="46" height="47" viewBox="0 0 46 47" fill="none" xmlns="http://www.w3.org/2000/svg">
<path fill-rule="evenodd" clip-rule="evenodd" d="M23.4889 41.947C17.7382 40.4498 12.1805 40.4679 6.33034 40.219C5.18783 40.1705 4.22551 41.0558 4.17574 42.1952C4.12596 43.3353 5.01515 44.2993 6.15765 44.3485C11.705 44.5844 16.9877 44.5253 22.4503 45.9463C23.5552 46.234 24.6866 45.5707 24.97 44.4668C25.2603 43.3637 24.5938 42.234 23.4889 41.947Z" fill="#259EA6"/>
<path fill-rule="evenodd" clip-rule="evenodd" d="M34.8332 30.0378C26.1635 20.2892 14.9663 11.0633 3.62206 4.56741C2.63113 4.0009 1.36623 4.34416 0.801977 5.33404C0.237728 6.32391 0.578844 7.58774 1.56976 8.15425C12.5381 14.4357 23.3676 23.3584 31.7456 32.7847C32.5054 33.6367 33.8128 33.7129 34.6632 32.9549C35.5135 32.1968 35.5931 30.8898 34.8332 30.0378Z" fill="#259EA6"/>
<path fill-rule="evenodd" clip-rule="evenodd" d="M44.4772 27.7286C46.0486 18.9405 43.6921 9.82887 40.2953 1.77298C39.8481 0.721949 38.6358 0.228911 37.59 0.671541C36.5373 1.11477 36.0457 2.32814 36.4861 3.37908C39.5827 10.7159 41.8402 18.9968 40.4102 27.0008C40.2092 28.1237 40.9591 29.1981 42.0789 29.3985C43.1987 29.5995 44.2762 28.8508 44.4772 27.7286Z" fill="#259EA6"/>
</svg>
