<svg width="53" height="54" viewBox="0 0 53 54" fill="none" xmlns="http://www.w3.org/2000/svg">
<path fill-rule="evenodd" clip-rule="evenodd" d="M23.9619 45.6675C18.5262 43.1539 13.0112 42.1766 7.25376 40.8822C6.12934 40.6296 5.01675 41.3347 4.76378 42.455C4.51067 43.5759 5.22025 44.6905 6.34454 44.9438C11.804 46.171 17.0536 47.0585 22.2172 49.445C23.2615 49.928 24.5021 49.4732 24.9805 48.43C25.4655 47.3888 25.0064 46.1498 23.9619 45.6675Z" fill="#FB8815"/>
<path fill-rule="evenodd" clip-rule="evenodd" d="M37.3433 35.8993C30.4871 24.6856 21.031 13.5371 10.9413 5.068C10.0598 4.32912 8.74396 4.44278 8.00747 5.32274C7.27099 6.20271 7.38345 7.51629 8.26495 8.25517C18.0203 16.4445 27.1659 27.2265 33.7902 38.0686C34.3915 39.0491 35.6745 39.3587 36.6533 38.7598C37.6321 38.1608 37.9446 36.8797 37.3433 35.8993Z" fill="#FB8815"/>
<path fill-rule="evenodd" clip-rule="evenodd" d="M47.3197 35.3345C50.4485 26.9066 49.7398 17.4546 47.8106 8.86266C47.5549 7.74095 46.4407 7.03525 45.3244 7.28663C44.2012 7.53737 43.4969 8.65185 43.7458 9.77223C45.5057 17.5978 46.2648 26.2088 43.4163 33.885C43.0163 34.9618 43.568 36.1608 44.6428 36.56C45.7174 36.9598 46.9198 36.4107 47.3197 35.3345Z" fill="#FB8815"/>
</svg>
