<svg width="20" height="20" viewBox="0 0 20 20" fill="none" xmlns="http://www.w3.org/2000/svg">
<path d="M2.08784 17.5949C2.08843 17.6376 2.09743 17.6797 2.11432 17.7189C2.13121 17.7581 2.15565 17.7936 2.18626 17.8234C2.21686 17.8531 2.25303 17.8766 2.29269 17.8923C2.33236 17.9081 2.37474 17.9159 2.41742 17.9153H17.587C17.6297 17.916 17.6721 17.9082 17.7119 17.8925C17.7516 17.8767 17.7878 17.8533 17.8184 17.8235C17.8491 17.7938 17.8736 17.7583 17.8905 17.719C17.9074 17.6798 17.9164 17.6376 17.917 17.5949V17.2124C17.9245 17.097 17.9399 16.522 17.5608 15.8857C17.3216 15.4845 16.9745 15.1382 16.5291 14.8557C15.9903 14.5141 15.3049 14.267 14.4758 14.1182C14.0548 14.059 13.6373 13.9778 13.2249 13.8749C12.1283 13.5949 12.0324 13.347 12.0316 13.3445C12.0253 13.32 12.016 13.2964 12.0041 13.2741C11.9949 13.2282 11.9728 13.0541 12.0153 12.5878C12.1228 11.4032 12.7583 10.7032 13.2687 10.1407C13.4295 9.96365 13.5816 9.79574 13.6987 9.63157C14.2041 8.92324 14.2508 8.11699 14.2528 8.06699C14.2547 7.97839 14.2425 7.89006 14.2166 7.80532C14.1666 7.65115 14.0737 7.55532 14.0053 7.48449C13.9892 7.46827 13.9735 7.4516 13.9583 7.43449C13.9533 7.42865 13.9399 7.41282 13.952 7.33324C13.9929 7.07686 14.0211 6.81863 14.0366 6.55949C14.0599 6.14199 14.0778 5.51782 13.9699 4.9099C13.9541 4.79379 13.9301 4.67892 13.8983 4.56615C13.7845 4.14782 13.602 3.79032 13.3483 3.49532C13.3045 3.4474 12.2428 2.32865 9.16075 2.09949C8.7345 2.06782 8.31325 2.0849 7.89825 2.10615C7.77552 2.10888 7.65338 2.12396 7.53367 2.15115C7.21534 2.23324 7.13034 2.4349 7.10825 2.54782C7.07117 2.73532 7.13617 2.88032 7.17909 2.97699C7.18534 2.99074 7.19325 3.00782 7.1795 3.05282C7.10825 3.16365 6.99534 3.26365 6.88075 3.35824C6.84742 3.38615 6.07492 4.05282 6.03242 4.92324C5.91784 5.58532 5.92617 6.61657 6.06159 7.32949C6.06992 7.36907 6.08117 7.4274 6.06242 7.46699C5.91659 7.5974 5.75159 7.74532 5.752 8.08282C5.75367 8.11699 5.80075 8.92282 6.30617 9.63157C6.42284 9.79574 6.57492 9.96324 6.73534 10.1403L6.73617 10.1407C7.24659 10.7032 7.882 11.4032 7.9895 12.5874C8.03159 13.0541 8.0095 13.2278 8.00075 13.2741C7.98866 13.2963 7.97928 13.32 7.97284 13.3445C7.97242 13.347 7.877 13.5941 6.78534 13.8737C6.15534 14.0349 5.53534 14.1174 5.51659 14.1195C4.71075 14.2557 4.0295 14.497 3.49159 14.8366C3.04784 15.117 2.69992 15.4645 2.45825 15.8687C2.07159 16.5145 2.082 17.1028 2.08742 17.2103V17.5949H2.08784Z" stroke="#0A1317" stroke-width="1.66667" stroke-linejoin="round"/>
</svg>
