<svg width="206" height="32" viewBox="0 0 206 32" fill="none" xmlns="http://www.w3.org/2000/svg">
<circle cx="16" cy="16" r="16" fill="#259EA6"/>
<g clip-path="url(#clip0_2498_2259)">
<path d="M22.9083 17.95L18.6083 18.7716" stroke="white" stroke-width="1.5" stroke-linecap="round" stroke-linejoin="round"/>
<path d="M18.0133 13.065L15.1233 14.02C14.8997 14.0936 14.6568 14.0824 14.4409 13.9885C14.225 13.8946 14.0511 13.7246 13.9525 13.5108C13.8461 13.2826 13.8327 13.022 13.9149 12.7841C13.9972 12.5462 14.1687 12.3496 14.3933 12.2358L17.1925 10.8283C17.4311 10.708 17.6918 10.6379 17.9586 10.6224C18.2253 10.6069 18.4924 10.6464 18.7433 10.7383L22.8875 12.2541" stroke="white" stroke-width="1.5" stroke-linecap="round" stroke-linejoin="round"/>
<path d="M9.07086 17.9567H11.1084L14.035 21.2367C14.1841 21.4094 14.3824 21.5324 14.6033 21.5892C14.8243 21.646 15.0573 21.6339 15.2712 21.5544C15.485 21.475 15.6694 21.332 15.7997 21.1447C15.93 20.9575 15.9999 20.7348 16 20.5067V19.9942L16.1459 20.0525C16.3552 20.1363 16.5819 20.1674 16.8061 20.1433C17.0303 20.1192 17.2451 20.0405 17.4318 19.9141C17.6186 19.7877 17.7715 19.6175 17.8772 19.4184C17.983 19.2192 18.0383 18.9972 18.0384 18.7717H18.4459C18.6729 18.7716 18.8954 18.7082 19.0885 18.5888C19.2816 18.4694 19.4377 18.2985 19.5392 18.0955C19.6408 17.8924 19.6838 17.6651 19.6635 17.4389C19.6431 17.2128 19.5603 16.9968 19.4242 16.815L16.8084 13.4634" stroke="white" stroke-width="1.5" stroke-linecap="round" stroke-linejoin="round"/>
<path d="M14.8192 12.0207L14.5208 11.7749C14.2202 11.5535 13.8567 11.4341 13.4833 11.4341C13.2609 11.434 13.0405 11.4767 12.8342 11.5599L9.125 13.0432" stroke="white" stroke-width="1.5" stroke-linecap="round" stroke-linejoin="round"/>
<path d="M6.625 11.625H8.29167C8.50328 11.6161 8.70976 11.6915 8.86594 11.8346C9.02212 11.9776 9.11527 12.1767 9.125 12.3883V17.7358C9.11526 17.9474 9.02214 18.1466 8.86599 18.2898C8.70984 18.433 8.50336 18.5086 8.29167 18.5H6.625" stroke="white" stroke-width="1.5" stroke-linecap="round" stroke-linejoin="round"/>
<path d="M25.375 18.5H23.7083C23.4966 18.5086 23.2902 18.433 23.134 18.2898C22.9779 18.1466 22.8847 17.9474 22.875 17.7358V12.3883C22.8847 12.1767 22.9779 11.9776 23.1341 11.8346C23.2902 11.6915 23.4967 11.6161 23.7083 11.625H25.375" stroke="white" stroke-width="1.5" stroke-linecap="round" stroke-linejoin="round"/>
<path d="M16 19.9942L15.185 19.1792" stroke="white" stroke-width="1.5" stroke-linecap="round" stroke-linejoin="round"/>
<path d="M18.0383 18.7717L16.815 17.5483" stroke="white" stroke-width="1.5" stroke-linecap="round" stroke-linejoin="round"/>
</g>
<path d="M49.94 19.36H50.46C50.5267 19.7333 50.5867 20.2067 50.64 20.78C50.6933 21.34 50.7067 21.8867 50.68 22.42C50.48 22.58 50.24 22.7133 49.96 22.82C49.68 22.9133 49.38 22.9933 49.06 23.06C48.7533 23.1267 48.4333 23.1733 48.1 23.2C47.78 23.2267 47.4733 23.24 47.18 23.24C46.06 23.24 45.06 23.1 44.18 22.82C43.3 22.5267 42.5533 22.0867 41.94 21.5C41.34 20.9133 40.8733 20.1667 40.54 19.26C40.22 18.34 40.06 17.2533 40.06 16C40.06 14.6933 40.24 13.5867 40.6 12.68C40.96 11.76 41.4467 11.0133 42.06 10.44C42.6733 9.85333 43.3867 9.42667 44.2 9.16C45.0133 8.89333 45.8667 8.76 46.76 8.76C47.64 8.76 48.38 8.82 48.98 8.94C49.58 9.04667 50.1067 9.21333 50.56 9.44C50.56 9.65333 50.5533 9.90667 50.54 10.2C50.5267 10.48 50.5067 10.78 50.48 11.1C50.4533 11.42 50.42 11.7333 50.38 12.04C50.34 12.3467 50.3 12.6267 50.26 12.88H49.74L48.7 10C48.5533 9.92 48.3067 9.86667 47.96 9.84C47.6267 9.81333 47.2933 9.8 46.96 9.8C46.2933 9.8 45.66 9.92667 45.06 10.18C44.4733 10.42 43.9533 10.8 43.5 11.32C43.06 11.8267 42.7067 12.4733 42.44 13.26C42.1733 14.0333 42.04 14.9467 42.04 16C42.04 16.9467 42.16 17.8067 42.4 18.58C42.64 19.34 42.9867 19.9933 43.44 20.54C43.8933 21.0733 44.4467 21.4867 45.1 21.78C45.7533 22.06 46.4933 22.2 47.32 22.2C47.76 22.2 48.1267 22.1667 48.42 22.1C48.7133 22.0333 48.9067 21.9467 49 21.84L49.94 19.36ZM53.9311 16C53.9311 14.96 54.0711 14 54.3511 13.12C54.6444 12.2267 55.0578 11.46 55.5911 10.82C56.1378 10.1667 56.8044 9.66 57.5911 9.3C58.3778 8.94 59.2711 8.76 60.2711 8.76C61.2711 8.76 62.1644 8.94 62.9511 9.3C63.7378 9.66 64.3978 10.1667 64.9311 10.82C65.4778 11.46 65.8911 12.2267 66.1711 13.12C66.4644 14 66.6111 14.96 66.6111 16C66.6111 17.04 66.4644 18.0067 66.1711 18.9C65.8911 19.78 65.4778 20.5467 64.9311 21.2C64.3978 21.84 63.7378 22.34 62.9511 22.7C62.1644 23.06 61.2711 23.24 60.2711 23.24C59.2711 23.24 58.3778 23.06 57.5911 22.7C56.8044 22.34 56.1378 21.84 55.5911 21.2C55.0578 20.5467 54.6444 19.78 54.3511 18.9C54.0711 18.0067 53.9311 17.04 53.9311 16ZM56.0711 16C56.0711 16.8533 56.1578 17.66 56.3311 18.42C56.5178 19.1667 56.7911 19.82 57.1511 20.38C57.5111 20.94 57.9644 21.3867 58.5111 21.72C59.0578 22.04 59.7044 22.2 60.4511 22.2C61.1311 22.2 61.7244 22.04 62.2311 21.72C62.7378 21.3867 63.1511 20.94 63.4711 20.38C63.8044 19.82 64.0511 19.1667 64.2111 18.42C64.3844 17.66 64.4711 16.8533 64.4711 16C64.4711 15.1467 64.3844 14.3467 64.2111 13.6C64.0378 12.84 63.7711 12.18 63.4111 11.62C63.0511 11.06 62.5978 10.62 62.0511 10.3C61.5044 9.96667 60.8578 9.8 60.1111 9.8C59.3778 9.8 58.7511 9.96667 58.2311 10.3C57.7244 10.62 57.3111 11.06 56.9911 11.62C56.6711 12.18 56.4378 12.84 56.2911 13.6C56.1444 14.3467 56.0711 15.1467 56.0711 16ZM78.4158 9H82.7358V9.58C82.1758 9.95333 81.6291 10.22 81.0958 10.38V23.24H79.9558L72.6958 12.22L71.9158 10.66H71.8558L72.0358 12.22V21.72C72.5824 21.8667 73.0958 22.1 73.5758 22.42V23H69.2558V22.42C69.4958 22.2733 69.7491 22.1467 70.0158 22.04C70.2958 21.92 70.5891 21.8133 70.8958 21.72V10.26C70.6291 10.1533 70.3624 10.04 70.0958 9.92C69.8424 9.8 69.6024 9.68 69.3758 9.56V9H72.7558L79.0558 18.5L79.9758 20.22H80.0558L79.9558 18.5V10.38C79.6758 10.26 79.4024 10.1333 79.1358 10C78.8824 9.86667 78.6424 9.72667 78.4158 9.58V9ZM87.3242 21.62C87.4842 21.78 87.6909 21.92 87.9442 22.04C88.1976 22.1467 88.5776 22.2 89.0842 22.2C89.5109 22.2 89.9109 22.1467 90.2842 22.04C90.6576 21.92 90.9776 21.7533 91.2442 21.54C91.5242 21.3133 91.7442 21.0467 91.9042 20.74C92.0642 20.42 92.1442 20.06 92.1442 19.66C92.1442 19.1267 91.9776 18.68 91.6442 18.32C91.3242 17.96 90.9176 17.64 90.4242 17.36C89.9442 17.08 89.4176 16.8067 88.8442 16.54C88.2709 16.2733 87.7376 15.96 87.2442 15.6C86.7642 15.2267 86.3576 14.7867 86.0242 14.28C85.7042 13.76 85.5442 13.1133 85.5442 12.34C85.5442 11.78 85.6442 11.28 85.8442 10.84C86.0442 10.4 86.3242 10.0267 86.6842 9.72C87.0576 9.41333 87.4976 9.18 88.0042 9.02C88.5109 8.84667 89.0776 8.76 89.7042 8.76C90.5176 8.76 91.2576 8.82667 91.9242 8.96C92.6042 9.08 93.1376 9.23333 93.5242 9.42C93.5242 9.64667 93.5042 9.91333 93.4642 10.22C93.4376 10.5133 93.3976 10.82 93.3442 11.14C93.3042 11.46 93.2576 11.7733 93.2042 12.08C93.1509 12.3733 93.0976 12.6333 93.0442 12.86H92.5242L91.7242 10.12C91.4842 10.0133 91.1776 9.93333 90.8042 9.88C90.4442 9.82667 90.0576 9.8 89.6442 9.8C88.9642 9.8 88.4176 9.99333 88.0042 10.38C87.5909 10.7533 87.3842 11.28 87.3842 11.96C87.3842 12.5067 87.5442 12.9667 87.8642 13.34C88.1976 13.7133 88.6109 14.0467 89.1042 14.34C89.5976 14.6333 90.1242 14.92 90.6842 15.2C91.2576 15.4667 91.7909 15.78 92.2842 16.14C92.7776 16.5 93.1842 16.9267 93.5042 17.42C93.8376 17.9133 94.0042 18.5267 94.0042 19.26C94.0042 19.86 93.8909 20.4067 93.6642 20.9C93.4509 21.3933 93.1376 21.8133 92.7242 22.16C92.3109 22.5067 91.8042 22.7733 91.2042 22.96C90.6042 23.1467 89.9242 23.24 89.1642 23.24C88.3242 23.24 87.5709 23.14 86.9042 22.94C86.2376 22.74 85.7642 22.5267 85.4842 22.3C85.4976 22.0733 85.5176 21.8 85.5442 21.48C85.5842 21.16 85.6242 20.8333 85.6642 20.5C85.7176 20.1533 85.7709 19.82 85.8242 19.5C85.8776 19.18 85.9309 18.9067 85.9842 18.68H86.5042L87.3242 21.62ZM96.2469 9H101.327V9.58C101.074 9.68667 100.82 9.78 100.567 9.86C100.314 9.94 100.06 10.0133 99.8069 10.08V18.26C99.8069 18.9667 99.8802 19.56 100.027 20.04C100.187 20.5067 100.414 20.8867 100.707 21.18C101 21.46 101.36 21.6667 101.787 21.8C102.227 21.92 102.72 21.98 103.267 21.98C104.32 21.98 105.14 21.6933 105.727 21.12C106.314 20.5333 106.607 19.5733 106.607 18.24V10.26C106.3 10.1533 106.014 10.0467 105.747 9.94C105.48 9.82 105.24 9.7 105.027 9.58V9H109.287V9.58C109.034 9.72667 108.774 9.86 108.507 9.98C108.254 10.1 107.994 10.1933 107.727 10.26V18.28C107.727 19.1333 107.614 19.8667 107.387 20.48C107.16 21.0933 106.84 21.6 106.427 22C106.027 22.4 105.534 22.7 104.947 22.9C104.374 23.0867 103.734 23.18 103.027 23.18C101.36 23.18 100.087 22.8067 99.2069 22.06C98.3269 21.3 97.8869 20.14 97.8869 18.58V10.08C97.3402 10 96.7935 9.83333 96.2469 9.58V9ZM111.064 9H116.544V9.58C116.224 9.7 115.904 9.80667 115.584 9.9C115.264 9.98 114.944 10.04 114.624 10.08V21.96H119.224L120.404 18.74H120.924C120.964 19.02 120.998 19.3467 121.024 19.72C121.064 20.08 121.091 20.46 121.104 20.86C121.131 21.2467 121.144 21.6267 121.144 22C121.144 22.3733 121.138 22.7067 121.124 23H111.064V22.42C111.384 22.2733 111.678 22.1667 111.944 22.1C112.211 22.0333 112.464 21.98 112.704 21.94V10.08C112.398 10.0267 112.104 9.96 111.824 9.88C111.544 9.78667 111.291 9.68667 111.064 9.58V9ZM129.547 23H123.927V22.42C124.22 22.3133 124.514 22.22 124.807 22.14C125.114 22.06 125.44 21.9933 125.787 21.94V10.04H122.727L121.667 12.9H121.167C121.127 12.6333 121.094 12.3333 121.067 12C121.04 11.6533 121.014 11.3067 120.987 10.96C120.974 10.6 120.96 10.2533 120.947 9.92C120.934 9.57333 120.927 9.26667 120.927 9H132.547C132.547 9.26667 132.54 9.56667 132.527 9.9C132.514 10.2333 132.494 10.58 132.467 10.94C132.454 11.2867 132.434 11.6333 132.407 11.98C132.394 12.3133 132.367 12.62 132.327 12.9H131.807L130.767 10.04H127.707V21.94C128.054 22.0067 128.374 22.0733 128.667 22.14C128.974 22.2067 129.267 22.3 129.547 22.42V23ZM140.01 23H134.89V22.42C135.41 22.18 135.943 22.02 136.49 21.94V10.08C136.223 10.0267 135.956 9.96 135.69 9.88C135.423 9.78667 135.156 9.68667 134.89 9.58V9H140.01V9.58C139.77 9.68667 139.51 9.78667 139.23 9.88C138.95 9.96 138.676 10.0267 138.41 10.08V21.94C138.69 21.9933 138.97 22.06 139.25 22.14C139.53 22.22 139.783 22.3133 140.01 22.42V23ZM146.401 23H141.961V22.42C142.441 22.2067 142.921 22.0467 143.401 21.94L148.461 8.76H149.041L154.101 21.94C154.368 21.9933 154.628 22.0533 154.881 22.12C155.148 22.1867 155.394 22.2867 155.621 22.42V23H150.501V22.42C150.768 22.3133 151.041 22.22 151.321 22.14C151.601 22.06 151.874 21.9933 152.141 21.94L150.781 18.28H146.001L144.681 21.94C145.241 22.02 145.814 22.18 146.401 22.42V23ZM146.401 17.24H150.441L148.861 13L148.481 11.28H148.441L147.941 13.04L146.401 17.24ZM163.057 9H168.537V9.58C168.217 9.7 167.897 9.80667 167.577 9.9C167.257 9.98 166.937 10.04 166.617 10.08V21.96H171.217L172.397 18.74H172.917C172.957 19.02 172.99 19.3467 173.017 19.72C173.057 20.08 173.083 20.46 173.097 20.86C173.123 21.2467 173.137 21.6267 173.137 22C173.137 22.3733 173.13 22.7067 173.117 23H163.057V22.42C163.377 22.2733 163.67 22.1667 163.937 22.1C164.203 22.0333 164.457 21.98 164.697 21.94V10.08C164.39 10.0267 164.097 9.96 163.817 9.88C163.537 9.78667 163.283 9.68667 163.057 9.58V9ZM178.893 23H174.453V22.42C174.933 22.2067 175.413 22.0467 175.893 21.94L180.953 8.76H181.533L186.593 21.94C186.86 21.9933 187.12 22.0533 187.373 22.12C187.64 22.1867 187.886 22.2867 188.113 22.42V23H182.993V22.42C183.26 22.3133 183.533 22.22 183.813 22.14C184.093 22.06 184.366 21.9933 184.633 21.94L183.273 18.28H178.493L177.173 21.94C177.733 22.02 178.306 22.18 178.893 22.42V23ZM178.893 17.24H182.933L181.353 13L180.973 11.28H180.933L180.433 13.04L178.893 17.24ZM203.209 10.08C202.929 10.04 202.649 9.98 202.369 9.9C202.089 9.80667 201.796 9.7 201.489 9.58V9H205.969V9.58C205.516 9.78 205.036 9.94667 204.529 10.08L201.189 23L199.949 23.24L196.729 12.36L193.569 23L192.349 23.24L188.809 10.08C188.542 10.0133 188.282 9.94 188.029 9.86C187.776 9.78 187.529 9.68667 187.289 9.58V9H192.489V9.58C192.236 9.67333 191.976 9.76667 191.709 9.86C191.442 9.94 191.156 10.0133 190.849 10.08L192.829 18.14L193.269 20.74H193.309L194.009 18.1L196.709 9H197.389L200.289 18.1L200.869 20.7H200.909L201.369 18.06L203.209 10.08Z" fill="#212529"/>
<defs>
<clipPath id="clip0_2498_2259">
<rect width="20" height="20" fill="white" transform="translate(6 6)"/>
</clipPath>
</defs>
</svg>
