<svg width="157" height="32" viewBox="0 0 157 32" fill="none" xmlns="http://www.w3.org/2000/svg">
<circle cx="16" cy="16" r="16" fill="#FB8815"/>
<g clip-path="url(#clip0_2191_280)">
<path d="M22.9094 17.9492L18.6094 18.7709" stroke="white" stroke-width="1.5" stroke-linecap="round" stroke-linejoin="round"/>
<path d="M18.011 13.0669L15.121 14.0219C14.8974 14.0955 14.6545 14.0843 14.4385 13.9904C14.2226 13.8965 14.0488 13.7265 13.9502 13.5127C13.8438 13.2846 13.8304 13.024 13.9126 12.7861C13.9949 12.5481 14.1664 12.3515 14.391 12.2377L17.1902 10.8302C17.4287 10.7099 17.6895 10.6399 17.9562 10.6244C18.223 10.6089 18.4901 10.6483 18.741 10.7402L22.8852 12.2561" stroke="white" stroke-width="1.5" stroke-linecap="round" stroke-linejoin="round"/>
<path d="M9.07031 17.9582H11.1078L14.0345 21.2382C14.1835 21.4109 14.3818 21.5339 14.6028 21.5907C14.8237 21.6475 15.0568 21.6353 15.2706 21.5559C15.4845 21.4764 15.6689 21.3335 15.7992 21.1462C15.9295 20.9589 15.9994 20.7363 15.9995 20.5082V19.9957L16.1453 20.054C16.3547 20.1377 16.5813 20.1689 16.8055 20.1448C17.0297 20.1206 17.2446 20.0419 17.4313 19.9156C17.618 19.7892 17.7709 19.619 17.8767 19.4198C17.9824 19.2207 18.0377 18.9987 18.0378 18.7732H18.4453C18.6724 18.773 18.8949 18.7097 19.088 18.5903C19.2811 18.4708 19.4371 18.3 19.5387 18.0969C19.6402 17.8939 19.6832 17.6665 19.6629 17.4404C19.6426 17.2143 19.5598 16.9982 19.4236 16.8165L16.8078 13.4648" stroke="white" stroke-width="1.5" stroke-linecap="round" stroke-linejoin="round"/>
<path d="M14.8192 12.0203L14.5208 11.7744C14.2202 11.5531 13.8567 11.4336 13.4833 11.4336C13.2609 11.4335 13.0405 11.4762 12.8342 11.5594L9.125 13.0428" stroke="white" stroke-width="1.5" stroke-linecap="round" stroke-linejoin="round"/>
<path d="M6.625 11.6257H8.29167C8.50328 11.6169 8.70976 11.6922 8.86594 11.8353C9.02212 11.9784 9.11527 12.1775 9.125 12.389V17.7365C9.11526 17.9482 9.02214 18.1474 8.86599 18.2905C8.70984 18.4337 8.50336 18.5093 8.29167 18.5007H6.625" stroke="white" stroke-width="1.5" stroke-linecap="round" stroke-linejoin="round"/>
<path d="M25.375 18.5007H23.7083C23.4966 18.5093 23.2902 18.4337 23.134 18.2905C22.9779 18.1474 22.8847 17.9482 22.875 17.7365V12.389C22.8847 12.1775 22.9779 11.9784 23.1341 11.8353C23.2902 11.6922 23.4967 11.6169 23.7083 11.6257H25.375" stroke="white" stroke-width="1.5" stroke-linecap="round" stroke-linejoin="round"/>
<path d="M16.0025 19.9947L15.1875 19.1797" stroke="white" stroke-width="1.5" stroke-linecap="round" stroke-linejoin="round"/>
<path d="M18.0358 18.7702L16.8125 17.5469" stroke="white" stroke-width="1.5" stroke-linecap="round" stroke-linejoin="round"/>
</g>
<path d="M46.68 23.26C45.7333 23.26 44.8433 23.0733 44.01 22.7C43.1767 22.32 42.4433 21.7967 41.81 21.13C41.1833 20.4633 40.69 19.6933 40.33 18.82C39.9767 17.94 39.8 17 39.8 16C39.8 14.9933 39.9767 14.0533 40.33 13.18C40.69 12.3 41.1833 11.53 41.81 10.87C42.4433 10.2033 43.1767 9.68333 44.01 9.31C44.8433 8.93 45.7333 8.74 46.68 8.74C47.8133 8.74 48.8567 9.00333 49.81 9.53C50.7633 10.05 51.5533 10.7467 52.18 11.62L50 12.79C49.6067 12.3033 49.1167 11.9133 48.53 11.62C47.95 11.3267 47.3333 11.18 46.68 11.18C46.0667 11.18 45.49 11.3067 44.95 11.56C44.41 11.8067 43.9367 12.1533 43.53 12.6C43.1233 13.04 42.8067 13.5533 42.58 14.14C42.3533 14.72 42.24 15.34 42.24 16C42.24 16.6667 42.3533 17.29 42.58 17.87C42.8133 18.45 43.1333 18.9633 43.54 19.41C43.9467 19.85 44.4167 20.1967 44.95 20.45C45.49 20.6967 46.0667 20.82 46.68 20.82C47.3467 20.82 47.9667 20.6733 48.54 20.38C49.12 20.08 49.6067 19.6867 50 19.2L52.18 20.38C51.5533 21.2467 50.7633 21.9433 49.81 22.47C48.8567 22.9967 47.8133 23.26 46.68 23.26ZM61.4891 23.26C60.5424 23.26 59.6524 23.0733 58.8191 22.7C57.9857 22.32 57.2524 21.7967 56.6191 21.13C55.9857 20.4633 55.4891 19.6933 55.1291 18.82C54.7691 17.94 54.5891 17 54.5891 16C54.5891 15 54.7691 14.0633 55.1291 13.19C55.4891 12.31 55.9857 11.5367 56.6191 10.87C57.2524 10.2033 57.9857 9.68333 58.8191 9.31C59.6524 8.93 60.5424 8.74 61.4891 8.74C62.4424 8.74 63.3357 8.93 64.1691 9.31C65.0024 9.68333 65.7357 10.2033 66.3691 10.87C67.0024 11.5367 67.4957 12.31 67.8491 13.19C68.2091 14.0633 68.3891 15 68.3891 16C68.3891 17 68.2091 17.94 67.8491 18.82C67.4957 19.6933 67.0024 20.4633 66.3691 21.13C65.7357 21.7967 65.0024 22.32 64.1691 22.7C63.3357 23.0733 62.4424 23.26 61.4891 23.26ZM61.4891 20.82C62.1024 20.82 62.6791 20.6933 63.2191 20.44C63.7591 20.1867 64.2324 19.84 64.6391 19.4C65.0524 18.9533 65.3724 18.44 65.5991 17.86C65.8324 17.28 65.9491 16.66 65.9491 16C65.9491 15.34 65.8324 14.72 65.5991 14.14C65.3657 13.5533 65.0424 13.04 64.6291 12.6C64.2224 12.16 63.7491 11.8133 63.2091 11.56C62.6757 11.3067 62.1024 11.18 61.4891 11.18C60.8757 11.18 60.2991 11.3067 59.7591 11.56C59.2191 11.8133 58.7424 12.1633 58.3291 12.61C57.9224 13.05 57.6024 13.56 57.3691 14.14C57.1424 14.72 57.0291 15.34 57.0291 16C57.0291 16.6667 57.1457 17.29 57.3791 17.87C57.6124 18.45 57.9324 18.9633 58.3391 19.41C58.7524 19.85 59.2257 20.1967 59.7591 20.45C60.2991 20.6967 60.8757 20.82 61.4891 20.82ZM71.2039 23V9H73.8439L79.7539 18.59V9H82.1939V23H79.5639L73.6439 13.41V23H71.2039ZM90.6423 23.26C89.869 23.26 89.1257 23.14 88.4123 22.9C87.7057 22.6533 87.0857 22.3033 86.5523 21.85C86.019 21.39 85.6357 20.84 85.4023 20.2L87.6923 19.36C87.7857 19.6267 87.9757 19.87 88.2623 20.09C88.549 20.31 88.899 20.4867 89.3123 20.62C89.7257 20.7533 90.169 20.82 90.6423 20.82C91.129 20.82 91.5823 20.7467 92.0023 20.6C92.429 20.4467 92.7723 20.2367 93.0323 19.97C93.2923 19.6967 93.4223 19.38 93.4223 19.02C93.4223 18.6533 93.2857 18.3533 93.0123 18.12C92.739 17.88 92.389 17.69 91.9623 17.55C91.5357 17.41 91.0957 17.3033 90.6423 17.23C89.649 17.0767 88.759 16.84 87.9723 16.52C87.1857 16.2 86.5623 15.7567 86.1023 15.19C85.649 14.6233 85.4223 13.89 85.4223 12.99C85.4223 12.1433 85.6657 11.4033 86.1523 10.77C86.639 10.1367 87.279 9.64333 88.0723 9.29C88.8657 8.93667 89.7223 8.76 90.6423 8.76C91.409 8.76 92.149 8.88 92.8623 9.12C93.5757 9.36 94.199 9.71 94.7323 10.17C95.2723 10.63 95.659 11.1833 95.8923 11.83L93.5923 12.66C93.499 12.3933 93.309 12.15 93.0223 11.93C92.7357 11.71 92.3857 11.5367 91.9723 11.41C91.559 11.2767 91.1157 11.21 90.6423 11.21C90.169 11.2033 89.719 11.28 89.2923 11.44C88.8723 11.5933 88.529 11.8033 88.2623 12.07C87.9957 12.3367 87.8623 12.6433 87.8623 12.99C87.8623 13.4367 87.9857 13.7733 88.2323 14C88.4857 14.2267 88.8223 14.3933 89.2423 14.5C89.6623 14.6 90.129 14.6933 90.6423 14.78C91.5757 14.9267 92.439 15.1733 93.2323 15.52C94.0257 15.8667 94.6623 16.33 95.1423 16.91C95.6223 17.4833 95.8623 18.1867 95.8623 19.02C95.8623 19.8667 95.6223 20.61 95.1423 21.25C94.6623 21.8833 94.0257 22.3767 93.2323 22.73C92.439 23.0833 91.5757 23.26 90.6423 23.26ZM104.693 23.26C103.573 23.26 102.589 22.9867 101.743 22.44C100.903 21.8933 100.249 21.16 99.7828 20.24C99.3161 19.3133 99.0828 18.2867 99.0828 17.16V9H101.523V17.16C101.523 17.8267 101.646 18.44 101.893 19C102.146 19.5533 102.506 19.9967 102.973 20.33C103.446 20.6567 104.019 20.82 104.693 20.82C105.373 20.82 105.946 20.6567 106.413 20.33C106.879 19.9967 107.233 19.5533 107.473 19C107.719 18.44 107.843 17.8267 107.843 17.16V9H110.283V17.16C110.283 18.0067 110.149 18.8 109.883 19.54C109.616 20.2733 109.236 20.92 108.743 21.48C108.249 22.04 107.659 22.4767 106.973 22.79C106.293 23.1033 105.533 23.26 104.693 23.26ZM113.442 23V9H115.882V20.56H121.712V23H113.442ZM134.007 9V11.44H129.727V23H127.287V11.44H123.007V9H134.007ZM137.305 23V9H139.745V23H137.305ZM148.134 9H150.944L156.034 23H153.444L152.544 20.52H146.544L145.644 23H143.054L148.134 9ZM147.434 18.08H151.644L149.534 12.31L147.434 18.08Z" fill="#100906"/>
<defs>
<clipPath id="clip0_2191_280">
<rect width="20" height="20" fill="white" transform="translate(6 6)"/>
</clipPath>
</defs>
</svg>
