<svg width="206" height="32" viewBox="0 0 206 32" fill="none" xmlns="http://www.w3.org/2000/svg">
<circle cx="16" cy="16" r="16" fill="white"/>
<g clip-path="url(#clip0_2498_1963)">
<path d="M22.9083 17.9502L18.6083 18.7719" stroke="#259EA6" stroke-width="1.5" stroke-linecap="round" stroke-linejoin="round"/>
<path d="M18.0133 13.065L15.1233 14.02C14.8997 14.0936 14.6568 14.0824 14.4409 13.9885C14.225 13.8946 14.0511 13.7246 13.9525 13.5108C13.8461 13.2826 13.8327 13.022 13.9149 12.7841C13.9972 12.5462 14.1687 12.3496 14.3933 12.2358L17.1925 10.8283C17.4311 10.708 17.6918 10.6379 17.9586 10.6224C18.2253 10.6069 18.4924 10.6464 18.7433 10.7383L22.8875 12.2541" stroke="#259EA6" stroke-width="1.5" stroke-linecap="round" stroke-linejoin="round"/>
<path d="M9.07086 17.9567H11.1084L14.035 21.2367C14.1841 21.4094 14.3824 21.5324 14.6033 21.5892C14.8243 21.646 15.0573 21.6339 15.2712 21.5544C15.485 21.475 15.6694 21.332 15.7997 21.1447C15.93 20.9575 15.9999 20.7348 16 20.5067V19.9942L16.1459 20.0525C16.3552 20.1363 16.5819 20.1674 16.8061 20.1433C17.0303 20.1192 17.2451 20.0405 17.4318 19.9141C17.6186 19.7877 17.7715 19.6175 17.8772 19.4184C17.983 19.2192 18.0383 18.9972 18.0384 18.7717H18.4459C18.6729 18.7716 18.8954 18.7082 19.0885 18.5888C19.2816 18.4694 19.4377 18.2985 19.5392 18.0955C19.6408 17.8924 19.6838 17.6651 19.6635 17.4389C19.6431 17.2128 19.5603 16.9968 19.4242 16.815L16.8084 13.4634" stroke="#259EA6" stroke-width="1.5" stroke-linecap="round" stroke-linejoin="round"/>
<path d="M14.8192 12.0207L14.5208 11.7749C14.2202 11.5535 13.8567 11.4341 13.4833 11.4341C13.2609 11.434 13.0405 11.4767 12.8342 11.5599L9.125 13.0432" stroke="#259EA6" stroke-width="1.5" stroke-linecap="round" stroke-linejoin="round"/>
<path d="M6.625 11.6252H8.29167C8.50328 11.6164 8.70976 11.6918 8.86594 11.8348C9.02212 11.9779 9.11527 12.177 9.125 12.3885V17.736C9.11526 17.9477 9.02214 18.1469 8.86599 18.2901C8.70984 18.4332 8.50336 18.5088 8.29167 18.5002H6.625" stroke="#259EA6" stroke-width="1.5" stroke-linecap="round" stroke-linejoin="round"/>
<path d="M25.375 18.5002H23.7083C23.4966 18.5088 23.2902 18.4332 23.134 18.2901C22.9779 18.1469 22.8847 17.9477 22.875 17.736V12.3885C22.8847 12.177 22.9779 11.9779 23.1341 11.8348C23.2902 11.6918 23.4967 11.6164 23.7083 11.6252H25.375" stroke="#259EA6" stroke-width="1.5" stroke-linecap="round" stroke-linejoin="round"/>
<path d="M16 19.9942L15.185 19.1792" stroke="#259EA6" stroke-width="1.5" stroke-linecap="round" stroke-linejoin="round"/>
<path d="M18.0383 18.7717L16.815 17.5483" stroke="#259EA6" stroke-width="1.5" stroke-linecap="round" stroke-linejoin="round"/>
</g>
<path d="M49.94 20.36H50.46C50.5267 20.7333 50.5867 21.2067 50.64 21.78C50.6933 22.34 50.7067 22.8867 50.68 23.42C50.48 23.58 50.24 23.7133 49.96 23.82C49.68 23.9133 49.38 23.9933 49.06 24.06C48.7533 24.1267 48.4333 24.1733 48.1 24.2C47.78 24.2267 47.4733 24.24 47.18 24.24C46.06 24.24 45.06 24.1 44.18 23.82C43.3 23.5267 42.5533 23.0867 41.94 22.5C41.34 21.9133 40.8733 21.1667 40.54 20.26C40.22 19.34 40.06 18.2533 40.06 17C40.06 15.6933 40.24 14.5867 40.6 13.68C40.96 12.76 41.4467 12.0133 42.06 11.44C42.6733 10.8533 43.3867 10.4267 44.2 10.16C45.0133 9.89333 45.8667 9.76 46.76 9.76C47.64 9.76 48.38 9.82 48.98 9.94C49.58 10.0467 50.1067 10.2133 50.56 10.44C50.56 10.6533 50.5533 10.9067 50.54 11.2C50.5267 11.48 50.5067 11.78 50.48 12.1C50.4533 12.42 50.42 12.7333 50.38 13.04C50.34 13.3467 50.3 13.6267 50.26 13.88H49.74L48.7 11C48.5533 10.92 48.3067 10.8667 47.96 10.84C47.6267 10.8133 47.2933 10.8 46.96 10.8C46.2933 10.8 45.66 10.9267 45.06 11.18C44.4733 11.42 43.9533 11.8 43.5 12.32C43.06 12.8267 42.7067 13.4733 42.44 14.26C42.1733 15.0333 42.04 15.9467 42.04 17C42.04 17.9467 42.16 18.8067 42.4 19.58C42.64 20.34 42.9867 20.9933 43.44 21.54C43.8933 22.0733 44.4467 22.4867 45.1 22.78C45.7533 23.06 46.4933 23.2 47.32 23.2C47.76 23.2 48.1267 23.1667 48.42 23.1C48.7133 23.0333 48.9067 22.9467 49 22.84L49.94 20.36ZM53.4428 17C53.4428 15.96 53.5828 15 53.8628 14.12C54.1561 13.2267 54.5695 12.46 55.1028 11.82C55.6495 11.1667 56.3161 10.66 57.1028 10.3C57.8895 9.94 58.7828 9.76 59.7828 9.76C60.7828 9.76 61.6761 9.94 62.4628 10.3C63.2495 10.66 63.9095 11.1667 64.4428 11.82C64.9895 12.46 65.4028 13.2267 65.6828 14.12C65.9761 15 66.1228 15.96 66.1228 17C66.1228 18.04 65.9761 19.0067 65.6828 19.9C65.4028 20.78 64.9895 21.5467 64.4428 22.2C63.9095 22.84 63.2495 23.34 62.4628 23.7C61.6761 24.06 60.7828 24.24 59.7828 24.24C58.7828 24.24 57.8895 24.06 57.1028 23.7C56.3161 23.34 55.6495 22.84 55.1028 22.2C54.5695 21.5467 54.1561 20.78 53.8628 19.9C53.5828 19.0067 53.4428 18.04 53.4428 17ZM55.5828 17C55.5828 17.8533 55.6695 18.66 55.8428 19.42C56.0295 20.1667 56.3028 20.82 56.6628 21.38C57.0228 21.94 57.4761 22.3867 58.0228 22.72C58.5695 23.04 59.2161 23.2 59.9628 23.2C60.6428 23.2 61.2361 23.04 61.7428 22.72C62.2495 22.3867 62.6628 21.94 62.9828 21.38C63.3161 20.82 63.5628 20.1667 63.7228 19.42C63.8961 18.66 63.9828 17.8533 63.9828 17C63.9828 16.1467 63.8961 15.3467 63.7228 14.6C63.5495 13.84 63.2828 13.18 62.9228 12.62C62.5628 12.06 62.1095 11.62 61.5628 11.3C61.0161 10.9667 60.3695 10.8 59.6228 10.8C58.8895 10.8 58.2628 10.9667 57.7428 11.3C57.2361 11.62 56.8228 12.06 56.5028 12.62C56.1828 13.18 55.9495 13.84 55.8028 14.6C55.6561 15.3467 55.5828 16.1467 55.5828 17ZM77.9275 10H82.2475V10.58C81.6875 10.9533 81.1408 11.22 80.6075 11.38V24.24H79.4675L72.2075 13.22L71.4275 11.66H71.3675L71.5475 13.22V22.72C72.0942 22.8667 72.6075 23.1 73.0875 23.42V24H68.7675V23.42C69.0075 23.2733 69.2608 23.1467 69.5275 23.04C69.8075 22.92 70.1008 22.8133 70.4075 22.72V11.26C70.1408 11.1533 69.8742 11.04 69.6075 10.92C69.3542 10.8 69.1142 10.68 68.8875 10.56V10H72.2675L78.5675 19.5L79.4875 21.22H79.5675L79.4675 19.5V11.38C79.1875 11.26 78.9142 11.1333 78.6475 11C78.3942 10.8667 78.1542 10.7267 77.9275 10.58V10ZM86.8359 22.62C86.9959 22.78 87.2026 22.92 87.4559 23.04C87.7093 23.1467 88.0893 23.2 88.5959 23.2C89.0226 23.2 89.4226 23.1467 89.7959 23.04C90.1693 22.92 90.4893 22.7533 90.7559 22.54C91.0359 22.3133 91.2559 22.0467 91.4159 21.74C91.5759 21.42 91.6559 21.06 91.6559 20.66C91.6559 20.1267 91.4893 19.68 91.1559 19.32C90.8359 18.96 90.4293 18.64 89.9359 18.36C89.4559 18.08 88.9293 17.8067 88.3559 17.54C87.7826 17.2733 87.2493 16.96 86.7559 16.6C86.2759 16.2267 85.8693 15.7867 85.5359 15.28C85.2159 14.76 85.0559 14.1133 85.0559 13.34C85.0559 12.78 85.1559 12.28 85.3559 11.84C85.5559 11.4 85.8359 11.0267 86.1959 10.72C86.5693 10.4133 87.0093 10.18 87.5159 10.02C88.0226 9.84667 88.5893 9.76 89.2159 9.76C90.0293 9.76 90.7693 9.82667 91.4359 9.96C92.1159 10.08 92.6493 10.2333 93.0359 10.42C93.0359 10.6467 93.0159 10.9133 92.9759 11.22C92.9493 11.5133 92.9093 11.82 92.8559 12.14C92.8159 12.46 92.7693 12.7733 92.7159 13.08C92.6626 13.3733 92.6093 13.6333 92.5559 13.86H92.0359L91.2359 11.12C90.9959 11.0133 90.6893 10.9333 90.3159 10.88C89.9559 10.8267 89.5693 10.8 89.1559 10.8C88.4759 10.8 87.9293 10.9933 87.5159 11.38C87.1026 11.7533 86.8959 12.28 86.8959 12.96C86.8959 13.5067 87.0559 13.9667 87.3759 14.34C87.7093 14.7133 88.1226 15.0467 88.6159 15.34C89.1093 15.6333 89.6359 15.92 90.1959 16.2C90.7693 16.4667 91.3026 16.78 91.7959 17.14C92.2893 17.5 92.6959 17.9267 93.0159 18.42C93.3493 18.9133 93.5159 19.5267 93.5159 20.26C93.5159 20.86 93.4026 21.4067 93.1759 21.9C92.9626 22.3933 92.6493 22.8133 92.2359 23.16C91.8226 23.5067 91.3159 23.7733 90.7159 23.96C90.1159 24.1467 89.4359 24.24 88.6759 24.24C87.8359 24.24 87.0826 24.14 86.4159 23.94C85.7493 23.74 85.2759 23.5267 84.9959 23.3C85.0093 23.0733 85.0293 22.8 85.0559 22.48C85.0959 22.16 85.1359 21.8333 85.1759 21.5C85.2293 21.1533 85.2826 20.82 85.3359 20.5C85.3893 20.18 85.4426 19.9067 85.4959 19.68H86.0159L86.8359 22.62ZM95.7586 10H100.839V10.58C100.585 10.6867 100.332 10.78 100.079 10.86C99.8253 10.94 99.5719 11.0133 99.3186 11.08V19.26C99.3186 19.9667 99.3919 20.56 99.5386 21.04C99.6986 21.5067 99.9253 21.8867 100.219 22.18C100.512 22.46 100.872 22.6667 101.299 22.8C101.739 22.92 102.232 22.98 102.779 22.98C103.832 22.98 104.652 22.6933 105.239 22.12C105.825 21.5333 106.119 20.5733 106.119 19.24V11.26C105.812 11.1533 105.525 11.0467 105.259 10.94C104.992 10.82 104.752 10.7 104.539 10.58V10H108.799V10.58C108.545 10.7267 108.285 10.86 108.019 10.98C107.765 11.1 107.505 11.1933 107.239 11.26V19.28C107.239 20.1333 107.125 20.8667 106.899 21.48C106.672 22.0933 106.352 22.6 105.939 23C105.539 23.4 105.045 23.7 104.459 23.9C103.885 24.0867 103.245 24.18 102.539 24.18C100.872 24.18 99.5986 23.8067 98.7186 23.06C97.8386 22.3 97.3986 21.14 97.3986 19.58V11.08C96.8519 11 96.3053 10.8333 95.7586 10.58V10ZM110.576 10H116.056V10.58C115.736 10.7 115.416 10.8067 115.096 10.9C114.776 10.98 114.456 11.04 114.136 11.08V22.96H118.736L119.916 19.74H120.436C120.476 20.02 120.509 20.3467 120.536 20.72C120.576 21.08 120.603 21.46 120.616 21.86C120.643 22.2467 120.656 22.6267 120.656 23C120.656 23.3733 120.649 23.7067 120.636 24H110.576V23.42C110.896 23.2733 111.189 23.1667 111.456 23.1C111.723 23.0333 111.976 22.98 112.216 22.94V11.08C111.909 11.0267 111.616 10.96 111.336 10.88C111.056 10.7867 110.803 10.6867 110.576 10.58V10ZM129.059 24H123.439V23.42C123.732 23.3133 124.025 23.22 124.319 23.14C124.625 23.06 124.952 22.9933 125.299 22.94V11.04H122.239L121.179 13.9H120.679C120.639 13.6333 120.605 13.3333 120.579 13C120.552 12.6533 120.525 12.3067 120.499 11.96C120.485 11.6 120.472 11.2533 120.459 10.92C120.445 10.5733 120.439 10.2667 120.439 10H132.059C132.059 10.2667 132.052 10.5667 132.039 10.9C132.025 11.2333 132.005 11.58 131.979 11.94C131.965 12.2867 131.945 12.6333 131.919 12.98C131.905 13.3133 131.879 13.62 131.839 13.9H131.319L130.279 11.04H127.219V22.94C127.565 23.0067 127.885 23.0733 128.179 23.14C128.485 23.2067 128.779 23.3 129.059 23.42V24ZM139.521 24H134.401V23.42C134.921 23.18 135.455 23.02 136.001 22.94V11.08C135.735 11.0267 135.468 10.96 135.201 10.88C134.935 10.7867 134.668 10.6867 134.401 10.58V10H139.521V10.58C139.281 10.6867 139.021 10.7867 138.741 10.88C138.461 10.96 138.188 11.0267 137.921 11.08V22.94C138.201 22.9933 138.481 23.06 138.761 23.14C139.041 23.22 139.295 23.3133 139.521 23.42V24ZM145.913 24H141.473V23.42C141.953 23.2067 142.433 23.0467 142.913 22.94L147.973 9.76H148.553L153.613 22.94C153.879 22.9933 154.139 23.0533 154.393 23.12C154.659 23.1867 154.906 23.2867 155.133 23.42V24H150.013V23.42C150.279 23.3133 150.553 23.22 150.833 23.14C151.113 23.06 151.386 22.9933 151.653 22.94L150.293 19.28H145.513L144.193 22.94C144.753 23.02 145.326 23.18 145.913 23.42V24ZM145.913 18.24H149.953L148.373 14L147.993 12.28H147.953L147.453 14.04L145.913 18.24ZM162.197 10H167.677V10.58C167.357 10.7 167.037 10.8067 166.717 10.9C166.397 10.98 166.077 11.04 165.757 11.08V22.96H170.357L171.537 19.74H172.057C172.097 20.02 172.131 20.3467 172.157 20.72C172.197 21.08 172.224 21.46 172.237 21.86C172.264 22.2467 172.277 22.6267 172.277 23C172.277 23.3733 172.271 23.7067 172.257 24H162.197V23.42C162.517 23.2733 162.811 23.1667 163.077 23.1C163.344 23.0333 163.597 22.98 163.837 22.94V11.08C163.531 11.0267 163.237 10.96 162.957 10.88C162.677 10.7867 162.424 10.6867 162.197 10.58V10ZM178.034 24H173.594V23.42C174.074 23.2067 174.554 23.0467 175.034 22.94L180.094 9.76H180.674L185.734 22.94C186 22.9933 186.26 23.0533 186.514 23.12C186.78 23.1867 187.027 23.2867 187.254 23.42V24H182.134V23.42C182.4 23.3133 182.674 23.22 182.954 23.14C183.234 23.06 183.507 22.9933 183.774 22.94L182.414 19.28H177.634L176.314 22.94C176.874 23.02 177.447 23.18 178.034 23.42V24ZM178.034 18.24H182.074L180.494 14L180.114 12.28H180.074L179.574 14.04L178.034 18.24ZM202.35 11.08C202.07 11.04 201.79 10.98 201.51 10.9C201.23 10.8067 200.936 10.7 200.63 10.58V10H205.11V10.58C204.656 10.78 204.176 10.9467 203.67 11.08L200.33 24L199.09 24.24L195.87 13.36L192.71 24L191.49 24.24L187.95 11.08C187.683 11.0133 187.423 10.94 187.17 10.86C186.916 10.78 186.67 10.6867 186.43 10.58V10H191.63V10.58C191.376 10.6733 191.116 10.7667 190.85 10.86C190.583 10.94 190.296 11.0133 189.99 11.08L191.97 19.14L192.41 21.74H192.45L193.15 19.1L195.85 10H196.53L199.43 19.1L200.01 21.7H200.05L200.51 19.06L202.35 11.08Z" fill="white"/>
<defs>
<clipPath id="clip0_2498_1963">
<rect width="20" height="20" fill="white" transform="translate(6 6)"/>
</clipPath>
</defs>
</svg>
