<svg width="24" height="24" viewBox="0 0 24 24" fill="none" xmlns="http://www.w3.org/2000/svg">
<circle opacity="0.5" cx="12" cy="12" r="12" fill="white" fill-opacity="0.5"/>
<path d="M10.3875 9.11311C9.97693 12.1461 9.60211 12.7772 6.35698 13.1147L6.38444 13.3876C9.72361 13.1119 9.98875 13.7039 11.1289 16.4826L11.4031 16.4543C11.0995 13.4173 12.242 12.8431 15.1594 12.481L15.1319 12.2081C11.5679 12.5738 11.8296 11.7539 10.3875 9.11311Z" fill="white"/>
<path d="M14.085 7.25646C14.5521 9.07565 14.4846 9.51997 12.7162 10.4497L12.7948 10.5987C14.6311 9.68278 14.9187 9.95939 16.2093 11.2814L16.3588 11.203C15.4845 9.54384 16.0019 8.95741 17.5782 8.08822L17.4995 7.93915C15.5562 8.95739 15.5156 8.43137 14.085 7.25646Z" fill="white"/>
<path d="M13.4577 13.793C14.4114 15.0657 14.5024 15.4344 13.4215 16.7238L13.5312 16.8152C14.6695 15.515 14.9838 15.6395 16.4201 16.2617L16.5115 16.1528C15.2914 15.1347 15.5059 14.5118 16.4563 13.3309L16.3466 13.2394C15.1576 14.6537 14.9557 14.2556 13.4577 13.793Z" fill="white"/>
</svg>
