<svg width="160" height="32" viewBox="0 0 160 32" fill="none" xmlns="http://www.w3.org/2000/svg">
<circle cx="16" cy="16" r="16" fill="#F4462F"/>
<g clip-path="url(#clip0_2082_1734)">
<path d="M22.9094 17.9492L18.6094 18.7709" stroke="white" stroke-width="1.5" stroke-linecap="round" stroke-linejoin="round"/>
<path d="M18.011 13.0669L15.121 14.0219C14.8974 14.0955 14.6545 14.0843 14.4385 13.9904C14.2226 13.8965 14.0488 13.7265 13.9502 13.5127C13.8438 13.2846 13.8304 13.024 13.9126 12.7861C13.9949 12.5481 14.1664 12.3515 14.391 12.2377L17.1902 10.8302C17.4287 10.7099 17.6895 10.6399 17.9562 10.6244C18.223 10.6089 18.4901 10.6483 18.741 10.7402L22.8852 12.2561" stroke="white" stroke-width="1.5" stroke-linecap="round" stroke-linejoin="round"/>
<path d="M9.07031 17.9582H11.1078L14.0345 21.2382C14.1835 21.4109 14.3818 21.5339 14.6028 21.5907C14.8237 21.6475 15.0568 21.6353 15.2706 21.5559C15.4845 21.4764 15.6689 21.3335 15.7992 21.1462C15.9295 20.9589 15.9994 20.7363 15.9995 20.5082V19.9957L16.1453 20.054C16.3547 20.1377 16.5813 20.1689 16.8055 20.1448C17.0297 20.1206 17.2446 20.0419 17.4313 19.9156C17.618 19.7892 17.7709 19.619 17.8767 19.4198C17.9824 19.2207 18.0377 18.9987 18.0378 18.7732H18.4453C18.6724 18.773 18.8949 18.7097 19.088 18.5903C19.2811 18.4708 19.4371 18.3 19.5387 18.0969C19.6402 17.8939 19.6832 17.6665 19.6629 17.4404C19.6426 17.2143 19.5598 16.9982 19.4236 16.8165L16.8078 13.4648" stroke="white" stroke-width="1.5" stroke-linecap="round" stroke-linejoin="round"/>
<path d="M14.8192 12.0203L14.5208 11.7744C14.2202 11.5531 13.8567 11.4336 13.4833 11.4336C13.2609 11.4335 13.0405 11.4762 12.8342 11.5594L9.125 13.0428" stroke="white" stroke-width="1.5" stroke-linecap="round" stroke-linejoin="round"/>
<path d="M6.625 11.6257H8.29167C8.50328 11.6169 8.70976 11.6922 8.86594 11.8353C9.02212 11.9784 9.11527 12.1775 9.125 12.389V17.7365C9.11526 17.9482 9.02214 18.1474 8.86599 18.2905C8.70984 18.4337 8.50336 18.5093 8.29167 18.5007H6.625" stroke="white" stroke-width="1.5" stroke-linecap="round" stroke-linejoin="round"/>
<path d="M25.375 18.5007H23.7083C23.4966 18.5093 23.2902 18.4337 23.134 18.2905C22.9779 18.1474 22.8847 17.9482 22.875 17.7365V12.389C22.8847 12.1775 22.9779 11.9784 23.1341 11.8353C23.2902 11.6922 23.4967 11.6169 23.7083 11.6257H25.375" stroke="white" stroke-width="1.5" stroke-linecap="round" stroke-linejoin="round"/>
<path d="M16.0025 19.9947L15.1875 19.1797" stroke="white" stroke-width="1.5" stroke-linecap="round" stroke-linejoin="round"/>
<path d="M18.0358 18.7702L16.8125 17.5469" stroke="white" stroke-width="1.5" stroke-linecap="round" stroke-linejoin="round"/>
</g>
<path d="M46.8 24.24C45.3733 24.24 44.1333 23.9333 43.08 23.32C42.04 22.6933 41.2267 21.82 40.64 20.7C40.0667 19.5667 39.78 18.2333 39.78 16.7C39.78 15.18 40.0733 13.8533 40.66 12.72C41.26 11.5867 42.1 10.7067 43.18 10.08C44.26 9.45333 45.5067 9.14 46.92 9.14C48.08 9.14 49.12 9.35333 50.04 9.78C50.96 10.2067 51.72 10.8067 52.32 11.58C52.92 12.34 53.3 13.2467 53.46 14.3H50.76C50.5067 13.4467 50.0333 12.7867 49.34 12.32C48.66 11.84 47.8267 11.6 46.84 11.6C45.96 11.6 45.1867 11.8067 44.52 12.22C43.8667 12.6333 43.36 13.22 43 13.98C42.64 14.74 42.46 15.6467 42.46 16.7C42.46 17.7133 42.64 18.6067 43 19.38C43.36 20.14 43.8667 20.7333 44.52 21.16C45.1867 21.5733 45.96 21.78 46.84 21.78C47.84 21.78 48.6933 21.54 49.4 21.06C50.12 20.58 50.6 19.9333 50.84 19.12H53.5C53.3133 20.1333 52.9067 21.0267 52.28 21.8C51.6667 22.5733 50.8867 23.1733 49.94 23.6C49.0067 24.0267 47.96 24.24 46.8 24.24ZM70.1158 16.68C70.1158 18.16 69.8158 19.4733 69.2158 20.62C68.6158 21.7533 67.7824 22.64 66.7158 23.28C65.6491 23.92 64.4158 24.24 63.0158 24.24C61.6291 24.24 60.4024 23.92 59.3358 23.28C58.2691 22.64 57.4358 21.7533 56.8358 20.62C56.2491 19.4867 55.9558 18.18 55.9558 16.7C55.9558 15.2067 56.2558 13.8933 56.8558 12.76C57.4558 11.6133 58.2824 10.72 59.3358 10.08C60.4024 9.44 61.6358 9.12 63.0358 9.12C64.4358 9.12 65.6624 9.44 66.7158 10.08C67.7824 10.72 68.6158 11.6067 69.2158 12.74C69.8158 13.8733 70.1158 15.1867 70.1158 16.68ZM67.4358 16.68C67.4358 15.64 67.2558 14.74 66.8958 13.98C66.5358 13.22 66.0291 12.6333 65.3758 12.22C64.7224 11.7933 63.9424 11.58 63.0358 11.58C62.1424 11.58 61.3624 11.7933 60.6958 12.22C60.0424 12.6333 59.5358 13.22 59.1758 13.98C58.8158 14.74 58.6358 15.64 58.6358 16.68C58.6358 17.72 58.8158 18.6267 59.1758 19.4C59.5358 20.16 60.0424 20.7467 60.6958 21.16C61.3624 21.5733 62.1424 21.78 63.0358 21.78C63.9424 21.78 64.7224 21.5733 65.3758 21.16C66.0291 20.7333 66.5358 20.14 66.8958 19.38C67.2558 18.6067 67.4358 17.7067 67.4358 16.68ZM76.0384 24H73.5184V9.38H76.0584L83.6584 20.88H82.9184V9.38H85.4384V24H82.9184L75.2984 12.52H76.0384V24ZM88.6784 13.46C88.6784 12.6067 88.8984 11.8533 89.3384 11.2C89.7784 10.5467 90.3851 10.04 91.1584 9.68C91.9451 9.30667 92.8518 9.12 93.8784 9.12C94.8651 9.12 95.7184 9.29333 96.4384 9.64C97.1718 9.98667 97.7384 10.48 98.1384 11.12C98.5518 11.76 98.7718 12.52 98.7984 13.4H96.2384C96.2118 12.7733 95.9851 12.2867 95.5584 11.94C95.1318 11.58 94.5584 11.4 93.8384 11.4C93.0518 11.4 92.4184 11.58 91.9384 11.94C91.4718 12.2867 91.2384 12.7667 91.2384 13.38C91.2384 13.9 91.3784 14.3133 91.6584 14.62C91.9518 14.9133 92.4051 15.1333 93.0184 15.28L95.3184 15.8C96.5718 16.0667 97.5051 16.5267 98.1184 17.18C98.7318 17.82 99.0384 18.6867 99.0384 19.78C99.0384 20.6733 98.8184 21.46 98.3784 22.14C97.9384 22.82 97.3118 23.3467 96.4984 23.72C95.6984 24.08 94.7584 24.26 93.6784 24.26C92.6518 24.26 91.7518 24.0867 90.9784 23.74C90.2051 23.38 89.5984 22.88 89.1584 22.24C88.7318 21.6 88.5051 20.8467 88.4784 19.98H91.0384C91.0518 20.5933 91.2918 21.08 91.7584 21.44C92.2384 21.7867 92.8851 21.96 93.6984 21.96C94.5518 21.96 95.2251 21.7867 95.7184 21.44C96.2251 21.08 96.4784 20.6067 96.4784 20.02C96.4784 19.5133 96.3451 19.1133 96.0784 18.82C95.8118 18.5133 95.3784 18.3 94.7784 18.18L92.4584 17.66C91.2184 17.3933 90.2784 16.9133 89.6384 16.22C88.9984 15.5133 88.6784 14.5933 88.6784 13.46ZM102.254 18.66V9.38H104.814V18.5C104.814 19.5533 105.094 20.36 105.654 20.92C106.214 21.48 107.008 21.76 108.034 21.76C109.074 21.76 109.874 21.48 110.434 20.92C110.994 20.3467 111.274 19.54 111.274 18.5V9.38H113.834V18.66C113.834 19.7933 113.594 20.78 113.114 21.62C112.648 22.4467 111.981 23.0933 111.114 23.56C110.248 24.0133 109.221 24.24 108.034 24.24C106.861 24.24 105.841 24.0133 104.974 23.56C104.108 23.1067 103.434 22.46 102.954 21.62C102.488 20.78 102.254 19.7933 102.254 18.66ZM120.543 9.38V24H117.983V9.38H120.543ZM118.423 24V21.64H126.643V24H118.423ZM133.762 10.6V24H131.202V10.6H133.762ZM126.922 11.74V9.38H138.042V11.74H126.922ZM143.559 9.38V24H140.999V9.38H143.559ZM149.04 24H146.4L151.68 9.38H154.3L159.58 24H156.88L155.7 20.62H150.24L149.04 24ZM152.66 13.74L150.98 18.46H154.96L153.28 13.74C153.226 13.54 153.166 13.34 153.1 13.14C153.033 12.94 152.993 12.7667 152.98 12.62C152.953 12.7533 152.906 12.9267 152.84 13.14C152.786 13.34 152.726 13.54 152.66 13.74Z" fill="#F4462F"/>
<defs>
<clipPath id="clip0_2082_1734">
<rect width="20" height="20" fill="white" transform="translate(6 6)"/>
</clipPath>
</defs>
</svg>
