<svg width="200" height="32" viewBox="0 0 200 32" fill="none" xmlns="http://www.w3.org/2000/svg">
<path d="M46.42 9.48C45.7667 9.48 45.2067 9.58 44.74 9.78C44.2867 9.98 43.9 10.2933 43.58 10.72C43.18 11.24 42.8667 11.9267 42.64 12.78C42.4133 13.62 42.3 14.5467 42.3 15.56C42.3 16.5067 42.4 17.3933 42.6 18.22C42.8 19.0467 43.08 19.74 43.44 20.3C43.8 20.86 44.2333 21.2733 44.74 21.54C45.26 21.7933 45.9067 21.92 46.68 21.92C49.08 21.92 50.4733 20.7933 50.86 18.54H51.96C51.36 21.6467 49.5333 23.2 46.48 23.2C44.64 23.2 43.1733 22.6667 42.08 21.6C41.4267 20.96 40.9267 20.1533 40.58 19.18C40.2333 18.2067 40.06 17.1267 40.06 15.94C40.06 14.5933 40.28 13.3733 40.72 12.28C41.16 11.1867 41.78 10.3133 42.58 9.66C43.5933 8.82 44.9333 8.4 46.6 8.4C47.4267 8.4 48.1 8.50667 48.62 8.72C49.14 8.93333 49.6533 9.31333 50.16 9.86L50.56 8.6H51.66V13.02H50.44C50.2533 11.8467 49.82 10.9667 49.14 10.38C48.4733 9.78 47.5667 9.48 46.42 9.48ZM67.8919 15.64C67.8919 16.8 67.7119 17.8933 67.3519 18.92C67.0052 19.9333 66.5185 20.78 65.8919 21.46C65.3452 22.0467 64.6852 22.4867 63.9119 22.78C63.1519 23.06 62.2719 23.2 61.2719 23.2C60.2585 23.2 59.3652 23.06 58.5919 22.78C57.8185 22.5 57.1719 22.08 56.6519 21.52C56.0385 20.88 55.5652 20.08 55.2319 19.12C54.8985 18.1467 54.7319 17.0933 54.7319 15.96C54.7319 14.8 54.9052 13.7133 55.2519 12.7C55.6119 11.6733 56.1052 10.82 56.7319 10.14C57.2919 9.54 57.9385 9.1 58.6719 8.82C59.4185 8.54 60.2985 8.4 61.3119 8.4C62.3252 8.4 63.2119 8.54 63.9719 8.82C64.7452 9.08667 65.4052 9.50667 65.9519 10.08C66.5785 10.72 67.0585 11.5267 67.3919 12.5C67.7252 13.4733 67.8919 14.52 67.8919 15.64ZM57.0319 15.56C57.0319 16.6667 57.1252 17.6533 57.3119 18.52C57.4985 19.3733 57.7652 20.0733 58.1119 20.62C58.4585 21.1133 58.8919 21.4867 59.4119 21.74C59.9452 21.98 60.5985 22.1 61.3719 22.1C62.7852 22.1 63.8252 21.66 64.4919 20.78C64.8519 20.2867 65.1252 19.6333 65.3119 18.82C65.4985 17.9933 65.5919 17.0267 65.5919 15.92C65.5919 14.8133 65.4985 13.84 65.3119 13C65.1252 12.16 64.8519 11.48 64.4919 10.96C64.1452 10.4533 63.6985 10.08 63.1519 9.84C62.6185 9.6 61.9852 9.48 61.2519 9.48C60.5452 9.48 59.9319 9.59333 59.4119 9.82C58.9052 10.0333 58.4785 10.36 58.1319 10.8C57.3985 11.7733 57.0319 13.36 57.0319 15.56ZM72.39 21.72V9.88L70.71 9.46V8.6H74.53L82.01 19.66V9.88L80.33 9.46V8.6H84.99V9.46L83.31 9.88V23H81.89L73.69 11.02V21.72L75.37 22.14V23H70.71V22.14L72.39 21.72ZM93.1856 23.22C92.399 23.22 91.679 23.1 91.0256 22.86C90.3856 22.62 89.8523 22.28 89.4256 21.84L89.2056 23H88.0856V18.46H89.3056C89.3856 19.7267 89.7056 20.6533 90.2656 21.24C90.8256 21.8267 91.6723 22.12 92.8056 22.12C93.7523 22.12 94.4656 21.94 94.9456 21.58C95.4256 21.2067 95.6656 20.66 95.6656 19.94C95.6656 19.3667 95.519 18.8867 95.2256 18.5C94.9456 18.1133 94.5323 17.7667 93.9856 17.46C93.4523 17.1533 92.8123 16.8533 92.0656 16.56C91.2256 16.2133 90.5123 15.8733 89.9256 15.54C89.339 15.1933 88.8923 14.78 88.5856 14.3C88.2923 13.8067 88.1456 13.1733 88.1456 12.4C88.1456 11.1333 88.539 10.1467 89.3256 9.44C90.1256 8.73333 91.1923 8.38 92.5256 8.38C93.8456 8.38 94.919 8.75333 95.7456 9.5L95.9056 8.6H97.0256V13.14H95.8856C95.8856 11.86 95.6456 10.9267 95.1656 10.34C94.6856 9.75333 93.9323 9.46 92.9056 9.46C91.079 9.46 90.1656 10.2933 90.1656 11.96C90.1656 12.4 90.2456 12.7667 90.4056 13.06C90.5656 13.34 90.8523 13.6 91.2656 13.84C91.6923 14.08 92.2923 14.3667 93.0656 14.7C94.1723 15.1667 95.0656 15.62 95.7456 16.06C96.4256 16.5 96.919 16.98 97.2256 17.5C97.5323 18.0067 97.6856 18.6133 97.6856 19.32C97.6856 20.1333 97.4923 20.8333 97.1056 21.42C96.7323 22.0067 96.2056 22.4533 95.5256 22.76C94.859 23.0667 94.079 23.22 93.1856 23.22ZM111.578 17.82V9.88L109.898 9.46V8.6H114.518V9.46L112.838 9.88V18.14C112.838 19.7933 112.392 21.0533 111.498 21.92C110.605 22.7867 109.298 23.22 107.578 23.22C105.805 23.22 104.438 22.78 103.478 21.9C102.532 21.0067 102.058 19.7467 102.058 18.12V9.88L100.378 9.46V8.6H105.738V9.46L104.058 9.88V17.78C104.058 20.6733 105.378 22.12 108.018 22.12C109.272 22.12 110.178 21.78 110.738 21.1C111.298 20.42 111.578 19.3267 111.578 17.82ZM120.928 9.88V21.8H126.368L127.048 18.34H128.148V23H117.048V22.14L118.928 21.72V9.88L117.048 9.46V8.6H123.008V9.46L120.928 9.88ZM128.823 8.6H140.743V12.8H139.703L139.063 9.8H135.783V21.66L137.903 22.14V23H131.663V22.14L133.783 21.66V9.8H130.483L129.863 12.8H128.823V8.6ZM147.107 9.88V21.72L148.987 22.14V23H143.227V22.14L145.107 21.72V9.88L143.227 9.46V8.6H148.987V9.46L147.107 9.88ZM161.488 21.72L160.308 18.16H154.948L153.728 21.72L155.388 22.14V23H150.708V22.14L152.348 21.72L157.148 8.4H159.008L163.748 21.72L165.348 22.14V23H159.848V22.14L161.488 21.72ZM157.688 10.18L155.348 17H159.928L157.768 10.18H157.688ZM176.296 16.18H178.776C179.15 16.18 179.496 16.1267 179.816 16.02C180.15 15.9 180.41 15.7467 180.596 15.56C180.863 15.28 181.09 14.9133 181.276 14.46C181.463 14.0067 181.556 13.52 181.556 13C181.556 12.4933 181.463 12.0333 181.276 11.62C181.103 11.1933 180.876 10.8133 180.596 10.48C180.383 10.2533 180.11 10.08 179.776 9.96C179.443 9.82667 179.083 9.76 178.696 9.76H176.296V16.18ZM179.216 17.34H176.296V21.72L178.196 22.14V23H172.616V22.14L174.296 21.72V9.88L172.616 9.46V8.6H179.236C179.863 8.6 180.436 8.68667 180.956 8.86C181.476 9.02 181.903 9.25333 182.236 9.56C182.703 9.97333 183.07 10.4733 183.336 11.06C183.616 11.6333 183.756 12.24 183.756 12.88C183.756 13.5333 183.61 14.1733 183.316 14.8C183.036 15.4267 182.663 15.9467 182.196 16.36C181.85 16.6667 181.416 16.9067 180.896 17.08C180.376 17.2533 179.816 17.34 179.216 17.34ZM196.016 15.36C195.776 15.5467 195.496 15.7067 195.176 15.84C194.856 15.9733 194.463 16.0867 193.996 16.18C194.116 16.3 194.243 16.4533 194.376 16.64C194.523 16.8267 194.663 17.0333 194.796 17.26L197.456 21.76L199.236 22.14V23H195.116V22.14L192.236 16.54H189.796V21.72L191.696 22.14V23H186.116V22.14L187.796 21.72V9.88L186.116 9.46V8.6H192.996C193.636 8.6 194.196 8.66 194.676 8.78C195.156 8.9 195.59 9.09333 195.976 9.36C196.47 9.68 196.85 10.12 197.116 10.68C197.396 11.24 197.536 11.8 197.536 12.36C197.536 12.92 197.396 13.4733 197.116 14.02C196.85 14.5533 196.483 15 196.016 15.36ZM189.796 15.38H192.656C193.39 15.38 193.996 15.1733 194.476 14.76C194.743 14.52 194.95 14.2 195.096 13.8C195.256 13.3867 195.336 12.9467 195.336 12.48C195.336 12.0133 195.256 11.5933 195.096 11.22C194.95 10.8333 194.736 10.52 194.456 10.28C194.23 10.0933 193.963 9.96 193.656 9.88C193.363 9.8 193.003 9.76 192.576 9.76H189.796V15.38Z" fill="#0F0A23"/>
<circle cx="16" cy="16" r="16" fill="#FFB92B"/>
<g clip-path="url(#clip0_2249_28)">
<path d="M22.9074 17.95L18.6074 18.7716" stroke="#0F0A23" stroke-width="1.5" stroke-linecap="round" stroke-linejoin="round"/>
<path d="M18.0129 13.065L15.1229 14.02C14.8993 14.0936 14.6564 14.0824 14.4405 13.9885C14.2246 13.8946 14.0508 13.7246 13.9521 13.5108C13.8458 13.2826 13.8323 13.022 13.9146 12.7841C13.9968 12.5462 14.1684 12.3496 14.3929 12.2358L17.1921 10.8283C17.4307 10.708 17.6914 10.6379 17.9582 10.6224C18.2249 10.6069 18.492 10.6464 18.7429 10.7383L22.8871 12.2541" stroke="#0F0A23" stroke-width="1.5" stroke-linecap="round" stroke-linejoin="round"/>
<path d="M9.07031 17.9567H11.1078L14.0345 21.2367C14.1835 21.4094 14.3818 21.5324 14.6028 21.5892C14.8237 21.646 15.0568 21.6339 15.2706 21.5544C15.4845 21.475 15.6689 21.332 15.7992 21.1447C15.9295 20.9575 15.9994 20.7348 15.9995 20.5067V19.9942L16.1453 20.0525C16.3547 20.1363 16.5813 20.1674 16.8055 20.1433C17.0297 20.1192 17.2446 20.0405 17.4313 19.9141C17.618 19.7877 17.7709 19.6175 17.8767 19.4184C17.9824 19.2192 18.0377 18.9972 18.0378 18.7717H18.4453C18.6724 18.7716 18.8949 18.7082 19.088 18.5888C19.2811 18.4694 19.4371 18.2985 19.5387 18.0955C19.6402 17.8924 19.6832 17.6651 19.6629 17.4389C19.6426 17.2128 19.5598 16.9968 19.4236 16.815L16.8078 13.4634" stroke="#0F0A23" stroke-width="1.5" stroke-linecap="round" stroke-linejoin="round"/>
<path d="M14.8192 12.0207L14.5208 11.7749C14.2202 11.5535 13.8567 11.4341 13.4833 11.4341C13.2609 11.434 13.0405 11.4767 12.8342 11.5599L9.125 13.0432" stroke="#0F0A23" stroke-width="1.5" stroke-linecap="round" stroke-linejoin="round"/>
<path d="M6.625 11.625H8.29167C8.50328 11.6161 8.70976 11.6915 8.86594 11.8346C9.02212 11.9776 9.11527 12.1767 9.125 12.3883V17.7358C9.11526 17.9474 9.02214 18.1466 8.86599 18.2898C8.70984 18.433 8.50336 18.5086 8.29167 18.5H6.625" stroke="#0F0A23" stroke-width="1.5" stroke-linecap="round" stroke-linejoin="round"/>
<path d="M25.375 18.5H23.7083C23.4966 18.5086 23.2902 18.433 23.134 18.2898C22.9779 18.1466 22.8847 17.9474 22.875 17.7358V12.3883C22.8847 12.1767 22.9779 11.9776 23.1341 11.8346C23.2902 11.6915 23.4967 11.6161 23.7083 11.625H25.375" stroke="#0F0A23" stroke-width="1.5" stroke-linecap="round" stroke-linejoin="round"/>
<path d="M16.0005 19.9942L15.1855 19.1792" stroke="#0F0A23" stroke-width="1.5" stroke-linecap="round" stroke-linejoin="round"/>
<path d="M18.0378 18.7717L16.8145 17.5483" stroke="#0F0A23" stroke-width="1.5" stroke-linecap="round" stroke-linejoin="round"/>
</g>
<defs>
<clipPath id="clip0_2249_28">
<rect width="20" height="20" fill="white" transform="translate(6 6)"/>
</clipPath>
</defs>
</svg>
