<svg width="16" height="16" viewBox="0 0 16 16" fill="none" xmlns="http://www.w3.org/2000/svg">
<g clip-path="url(#clip0_2140_2909)">
<path d="M15.3264 -0.000173329C15.2451 0.00969402 15.1666 0.0358565 15.0956 0.0767497L0.326416 8.07675C0.221717 8.13457 0.136354 8.22194 0.0809704 8.32795C0.0255866 8.43396 0.00263206 8.55392 0.0149684 8.67289C0.0273048 8.79186 0.0743864 8.90456 0.150343 8.99695C0.2263 9.08934 0.327772 9.15733 0.442108 9.19244L4.36518 10.3654C4.45688 11.0909 4.86549 14.2331 4.9418 14.846C5.01811 15.4564 5.43288 15.5623 5.8458 14.9998C6.12519 14.6189 7.76826 12.3075 7.76888 12.3075L11.2692 15.8078C11.3446 15.8834 11.4385 15.9379 11.5415 15.9658C11.6446 15.9936 11.7532 15.9939 11.8564 15.9666C11.9596 15.9393 12.0538 15.8854 12.1296 15.8102C12.2054 15.735 12.2601 15.6413 12.2883 15.5383L15.9806 0.769057C16.0074 0.673044 16.0102 0.571923 15.9888 0.474565C15.9674 0.377207 15.9224 0.286586 15.8579 0.21065C15.7933 0.134714 15.7111 0.0757827 15.6184 0.0390259C15.5257 0.002269 15.4255 -0.0111909 15.3264 -0.000173329ZM14.4427 1.80783L11.3461 14.1924L7.86549 10.7112L12.9227 3.69213L5.05749 9.30752L2.19226 8.46137L14.4415 1.80721L14.4427 1.80783Z" fill="#015CB5"/>
</g>
<defs>
<clipPath id="clip0_2140_2909">
<rect width="16" height="16" fill="white"/>
</clipPath>
</defs>
</svg>
