<svg width="166" height="166" viewBox="0 0 166 166" fill="none" xmlns="http://www.w3.org/2000/svg">
<path d="M80.1689 41.4895C80.6781 41.9897 81.0552 42.6086 81.2663 43.2904C81.4775 43.9723 81.5162 44.696 81.3788 45.3965C81.2717 45.9431 81.0539 46.4621 80.7388 46.9215C80.4237 47.3808 80.018 47.7709 79.5466 48.0677L77.4599 49.4347L85.219 56.1275L89.5199 53.3344C90.3234 52.7962 91.2846 52.5441 92.2488 52.6187C93.213 52.6933 94.1241 53.0903 94.8352 53.7458C95.3474 54.2325 95.728 54.841 95.9416 55.5146C96.1552 56.1881 96.1949 56.9048 96.0568 57.5978L96.0334 57.7078C95.9193 58.2452 95.6993 58.7546 95.3862 59.2062C95.0731 59.6577 94.6733 60.0424 94.2099 60.3377L91.8761 61.8533L94.0968 63.7767L113.254 51.3239C115.442 49.9026 118.106 49.409 120.658 49.9515C123.21 50.494 125.443 52.0283 126.864 54.2168C127.568 55.3005 128.051 56.5121 128.286 57.7826C128.522 59.0531 128.505 60.3575 128.236 61.6213C127.694 64.1738 126.159 66.4063 123.971 67.8275L104.803 80.2636L105.657 83.0747L107.991 81.5591C108.45 81.2528 108.967 81.0423 109.509 80.9404C110.052 80.8385 110.61 80.8471 111.149 80.9658C111.857 81.1114 112.515 81.4365 113.061 81.9098C113.607 82.3832 114.022 82.989 114.267 83.669C114.577 84.5853 114.569 85.579 114.245 86.4903C113.921 87.4015 113.299 88.1771 112.481 88.6922L108.18 91.4853L111.138 101.296L113.236 99.9458C113.692 99.6394 114.206 99.4287 114.747 99.3262C115.287 99.2237 115.843 99.2317 116.38 99.3496C117.088 99.4952 117.746 99.8203 118.292 100.294C118.838 100.767 119.253 101.373 119.498 102.053C119.815 102.969 119.81 103.965 119.486 104.878C119.161 105.79 118.535 106.566 117.712 107.076L113.661 109.707L114.631 112.916C114.716 113.206 114.706 113.515 114.602 113.798C114.498 114.081 114.305 114.323 114.053 114.489L108.152 118.321C107.84 118.522 107.461 118.592 107.097 118.515C106.734 118.438 106.416 118.22 106.213 117.909L88.5971 90.8002L77.7282 97.8588L82.6317 115.282C82.7172 115.569 82.7072 115.876 82.6035 116.157C82.4997 116.438 82.3077 116.678 82.0561 116.841L77.3385 119.905C77.0242 120.107 76.6426 120.177 76.2769 120.099C75.9113 120.022 75.5911 119.802 75.3863 119.49L66.2092 105.34L55.5904 112.236C53.4019 113.657 50.7385 114.151 48.186 113.608C45.6336 113.066 43.4012 111.531 41.98 109.343C40.5588 107.154 40.0652 104.491 40.6078 101.938C41.1503 99.3857 42.6846 97.1533 44.8731 95.732L55.4919 88.8359L46.2981 74.6965C46.0979 74.3816 46.0292 74.0007 46.1068 73.6356C46.1844 73.2706 46.4021 72.9506 46.7131 72.7443L51.4307 69.6805C51.6827 69.5199 51.9793 69.4439 52.2775 69.4633C52.5757 69.4828 52.8599 69.5967 53.0889 69.7887L67.0109 81.3551L77.8798 74.2966L60.2804 47.1769C60.1787 47.0246 60.109 46.8533 60.0757 46.6733C60.0423 46.4933 60.0459 46.3083 60.0863 46.1298C60.1223 45.9481 60.1946 45.7756 60.2987 45.6225C60.4029 45.4693 60.5368 45.3387 60.6924 45.2384L66.5936 41.406C66.8473 41.2426 67.1469 41.1651 67.448 41.1851C67.7491 41.2052 68.0357 41.3215 68.2656 41.5171L70.8028 43.7089L74.8399 41.0752C75.6439 40.531 76.6088 40.2756 77.5768 40.3508C78.5448 40.4261 79.4586 40.8275 80.1689 41.4895ZM92.6865 57.9734C92.8473 57.8755 92.985 57.7439 93.0902 57.5876C93.1953 57.4314 93.2654 57.2542 93.2955 57.0683C93.332 56.8316 93.3125 56.5897 93.2387 56.3619C93.1648 56.1341 93.0387 55.9268 92.8703 55.7565C92.6154 55.5456 92.2975 55.4254 91.9667 55.4149C91.636 55.4044 91.3111 55.5043 91.0434 55.6987L87.4426 58.0371L89.6525 59.9438L92.6865 57.9734ZM110.941 86.3388C111.227 86.1729 111.45 85.9167 111.575 85.6104C111.7 85.3041 111.719 84.965 111.631 84.6462C111.551 84.4106 111.411 84.2003 111.223 84.0367C111.036 83.8732 110.809 83.7623 110.564 83.7154C110.388 83.6775 110.205 83.6754 110.028 83.7092C109.85 83.7431 109.681 83.8122 109.531 83.9125L106.497 85.8828L107.34 88.6772L110.941 86.3388ZM116.185 104.726C116.471 104.558 116.692 104.301 116.815 103.994C116.937 103.687 116.954 103.348 116.862 103.03C116.78 102.796 116.638 102.587 116.451 102.424C116.264 102.261 116.038 102.149 115.795 102.099C115.619 102.061 115.436 102.059 115.259 102.093C115.081 102.127 114.912 102.196 114.762 102.296L111.978 104.104L112.818 106.912L116.185 104.726ZM107.795 115.199L111.629 112.709L102.35 81.8688L90.9642 89.2629L107.795 115.199ZM76.9819 116.783L79.6491 115.05L75.261 99.461L68.5597 103.813L76.9819 116.783ZM52.0873 72.6077L49.4201 74.3399L57.8424 87.3094L64.5437 82.9574L52.0873 72.6077ZM80.5898 75.8785L80.5868 75.8922L67.6705 84.2686L58.199 90.4315L46.4132 98.0855C44.8855 99.1158 43.8236 100.705 43.4561 102.511C43.0887 104.316 43.4451 106.194 44.4487 107.739C45.4523 109.285 47.0227 110.374 48.8217 110.773C50.6207 111.172 52.5043 110.848 54.0669 109.871L65.8526 102.217L75.3349 96.0712L88.2405 87.6782L88.2542 87.6811L102.393 78.4869L122.431 65.4741C123.958 64.4438 125.02 62.8546 125.388 61.0489C125.755 59.2432 125.399 57.3655 124.395 55.8201C123.392 54.2747 121.821 53.1853 120.022 52.7865C118.223 52.3877 116.34 52.7115 114.777 53.6881L94.7397 66.701L80.5898 75.8785ZM63.3995 46.834L80.2469 72.7593L91.6326 65.3652L67.2336 44.344L63.3995 46.834ZM76.38 43.4287L73.0126 45.6155L75.2363 47.5251L78.0202 45.7171C78.1762 45.6137 78.3103 45.4806 78.4148 45.3252C78.5194 45.1699 78.5922 44.9955 78.6293 44.812C78.6821 44.5753 78.6706 44.3288 78.5958 44.0981C78.521 43.8673 78.3857 43.6609 78.204 43.5002C77.9513 43.287 77.6347 43.1642 77.3043 43.1513C76.9739 43.1383 76.6486 43.2359 76.38 43.4287Z" fill="white"/>
<path d="M66.9038 111.585L64.5469 113.117L63.0151 110.76L65.372 109.228L66.9038 111.585Z" fill="white"/>
<path d="M61.7144 114.966L55.8203 118.793L54.2897 116.435L60.1839 112.609L61.7144 114.966Z" fill="white"/>
<path d="M52.7793 87.2463L50.4219 88.7773L48.891 86.4199L51.2484 84.8888L52.7793 87.2463Z" fill="white"/>
<path d="M47.5724 90.6239L40.5 95.2168L38.9691 92.8593L46.0414 88.2665L47.5724 90.6239Z" fill="white"/>
<path d="M111.184 61.0536C110.981 60.741 110.911 60.3606 110.988 59.9961C111.066 59.6316 111.285 59.3128 111.597 59.1097L116.311 56.0484C117.249 55.4396 118.39 55.2282 119.484 55.4606C120.578 55.6931 121.534 56.3504 122.143 57.288C122.726 58.2332 122.923 59.3666 122.692 60.4528C122.461 61.539 121.82 62.4946 120.903 63.121L116.191 66.1813C115.878 66.3842 115.498 66.4547 115.133 66.3772C114.769 66.2997 114.45 66.0806 114.247 65.7681L111.184 61.0536ZM119.373 60.7612C119.679 60.5526 119.893 60.2342 119.97 59.8721C120.047 59.51 119.981 59.1322 119.786 58.8173C119.583 58.5052 119.265 58.2864 118.901 58.209C118.536 58.1316 118.156 58.2018 117.844 58.4044L114.308 60.7004L115.839 63.0575L119.373 60.7612Z" fill="white"/>
<path d="M64.7452 97.9164C64.852 98.0811 64.9232 98.2665 64.954 98.4604C64.9848 98.6543 64.9746 98.8525 64.9241 99.0423C64.8737 99.2321 64.784 99.4091 64.6609 99.5621C64.5377 99.7151 64.3839 99.8406 64.2094 99.9304L51.6569 106.405C51.3472 106.565 50.9893 106.604 50.6525 106.514C50.3157 106.425 50.0241 106.214 49.8343 105.921L48.3036 103.564C48.1138 103.272 48.0394 102.92 48.0947 102.576C48.15 102.232 48.3312 101.921 48.603 101.703L59.6236 92.8692C59.7767 92.7463 59.9539 92.6568 60.1437 92.6066C60.3335 92.5563 60.5318 92.5464 60.7257 92.5775C60.9196 92.6085 61.1048 92.6799 61.2695 92.7869C61.4341 92.8939 61.5745 93.0343 61.6815 93.1989L64.7452 97.9164ZM51.3538 103.099L51.5 103.324L61.5415 98.1435L60.171 96.0331L51.3538 103.099Z" fill="white"/>
<path d="M111.127 66.1213L108.77 67.6523L107.239 65.2949L109.596 63.7639L111.127 66.1213Z" fill="white"/>
<path d="M106.412 69.1826L66.3359 95.209L64.805 92.8515L104.881 66.8251L106.412 69.1826Z" fill="white"/>
</svg>
