<svg width="90" height="90" viewBox="0 0 90 90" fill="none" xmlns="http://www.w3.org/2000/svg">
<path d="M45.0033 4.21875C35.1924 4.21875 27.2383 12.1773 27.2383 21.9948C27.2383 31.8122 35.1924 39.7708 45.0033 39.7708C50.1696 39.7708 55.0789 37.5192 58.4534 33.6046L62.7051 23.4779C62.7466 22.9849 62.7655 22.4895 62.7656 21.9948C62.7656 12.1773 54.8143 4.21876 45.0033 4.21875Z" fill="#FFB92B"/>
<path d="M33.9812 8.05298C31.8789 9.71718 30.1803 11.8359 29.0125 14.2503C27.8448 16.6648 27.2382 19.3124 27.2383 21.9947C27.2383 24.3292 27.6978 26.6408 28.5906 28.7975C29.4834 30.9542 30.792 32.9139 32.4416 34.5645C34.0913 36.2152 36.0497 37.5245 38.205 38.4178C40.3603 39.3111 42.6704 39.7708 45.0033 39.7707C47.5561 39.7708 50.079 39.2203 52.4 38.1567C54.721 37.0931 56.7857 35.5414 58.4534 33.6074L58.5743 33.319C55.4827 35.6773 51.7033 36.9558 47.8158 36.9582C45.4829 36.9583 43.1729 36.4986 41.0175 35.6053C38.8622 34.712 36.9038 33.4027 35.2542 31.752C33.6045 30.1013 32.2959 28.1417 31.4031 25.985C30.5103 23.8282 30.0508 21.5167 30.0508 19.1822C30.0559 15.1328 31.4425 11.2065 33.9812 8.05298Z" fill="#ECB200"/>
<path d="M69.562 29.4117C69.562 30.317 69.3838 31.2135 69.0376 32.0499C68.6914 32.8863 68.1839 33.6463 67.5442 34.2864C66.9044 34.9266 66.1449 35.4344 65.3091 35.7808C64.4732 36.1273 63.5773 36.3056 62.6726 36.3056C61.7679 36.3056 60.872 36.1273 60.0361 35.7808C59.2003 35.4344 58.4408 34.9266 57.8011 34.2864C57.1613 33.6463 56.6539 32.8863 56.3076 32.0499C55.9614 31.2135 55.7832 30.317 55.7832 29.4117C55.7832 27.5833 56.509 25.8299 57.8011 24.537C59.0931 23.2441 60.8454 22.5178 62.6726 22.5178C64.4998 22.5178 66.2521 23.2441 67.5442 24.537C68.8362 25.8299 69.562 27.5833 69.562 29.4117Z" fill="#A7C305"/>
<path d="M65.3556 42.8987L71.3793 39.4417C72.4917 38.8033 73.8577 39.0994 74.4421 40.1055L85.518 59.1749C86.1024 60.181 85.6774 61.505 84.565 62.1434L78.5412 65.6004C77.4289 66.2387 76.0629 65.9427 75.4785 64.9366L64.4025 45.8672C63.8181 44.861 64.2432 43.5371 65.3556 42.8987Z" fill="#755BE2"/>
<path d="M19.8692 41.1991L25.893 44.6561C27.0054 45.2945 27.3839 46.6986 26.7416 47.8043L14.5694 68.7612C13.9272 69.8669 12.5146 70.2431 11.4022 69.6047L5.37848 66.1477C4.26609 65.5093 3.88759 64.1052 4.52982 62.9995L16.7021 42.0426C17.3443 40.9369 18.7569 40.5607 19.8692 41.1991Z" fill="#755BE2"/>
<path d="M18.5469 40.8937C17.8051 40.9469 17.1028 41.3508 16.7014 42.0417L4.52944 62.9992C3.88721 64.1049 4.26571 65.5081 5.37807 66.1465L11.4009 69.6042C12.5133 70.2426 13.9252 69.8668 14.5674 68.761L14.9272 68.1431L9.56904 65.0699C8.45666 64.4316 8.07818 63.0256 8.72041 61.9199L20.5353 41.5803L19.868 41.1987C19.4508 40.9595 18.9921 40.8629 18.5469 40.8937Z" fill="#755BE2"/>
<path d="M25.8885 49.6403L34.3847 51.3293L45.0015 57.5431L67.4295 70.6713C67.4295 70.6713 68.0091 71.7655 68.0121 72.3744C68.0151 72.9834 67.8199 73.6284 67.4295 74.1343C67.0392 74.6403 66.4383 75.0672 65.7689 75.2127C65.0996 75.3584 64.3215 75.1293 63.6624 74.8992C63.0034 74.669 61.88 73.8701 61.88 73.8701C61.88 73.8701 62.2213 75.3425 62.0745 76.0608C61.9417 76.7102 61.6073 77.348 61.1355 77.8136C60.796 78.1484 60.3357 78.3937 59.8652 78.4725C59.1631 78.5899 57.7524 78.1605 57.7524 78.1605C57.3047 79.0385 57.2459 80.2818 56.8053 80.9434C56.3646 81.605 56.3717 81.7925 55.4341 82.155C54.4965 82.5175 52.7857 81.9706 51.2331 82.2151C51.2331 82.2151 51.1334 83.7685 50.8384 84.2984C50.5434 84.8283 50.3112 84.9614 49.7191 85.3247C49.127 85.6883 47.5684 85.6239 46.9362 85.2593L43.4224 83.2428L25.3122 75.3565L19.0465 70.7553L15.4551 68.0779L25.8885 49.6403Z" fill="#FFC6A0"/>
<path d="M43.276 56.5542C39.9946 61.2069 33.4844 65.6285 32.2781 62.3157C31.4399 60.0139 35.2686 53.2182 37.4414 50.9135C40.2113 47.9756 49.0057 47.3356 55.5243 48.4879C62.0428 49.6402 65.3022 47.3356 65.3022 47.3356L74.5763 63.4681L67.6595 70.5064" fill="#FFB92B"/>
<path d="M40.2697 78.4127C41.6601 79.2107 42.1333 80.9658 41.3305 82.348L40.1712 84.3439C39.3684 85.726 37.6027 86.1963 36.2122 85.3983C34.8218 84.6003 34.3486 82.8452 35.1514 81.463L36.3107 79.4672C37.1135 78.085 38.8792 77.6147 40.2697 78.4127Z" fill="#FFB92B"/>
<path d="M38.616 78.03C37.6886 78.0943 36.8108 78.6025 36.309 79.4663L35.1501 81.463C34.3473 82.8451 34.8224 84.6005 36.2129 85.3985C37.1298 85.9247 38.2041 85.8896 39.0636 85.4144C39.0514 85.4091 39.0376 85.4038 39.0254 85.3985C37.6349 84.6005 37.1597 82.8451 37.9625 81.463L39.1215 79.4663C39.3949 78.9954 39.7871 78.6404 40.231 78.3953C39.7195 78.1114 39.1591 77.9923 38.616 78.03Z" fill="#FF8A3C"/>
<path d="M35.8283 74.5339C37.2187 75.3319 37.6919 77.087 36.8891 78.4692L34.5705 82.461C33.7678 83.8431 32.0021 84.3134 30.6116 83.5154C29.2211 82.7174 28.748 80.9623 29.5508 79.5802L31.8693 75.5884C32.6721 74.2062 34.4378 73.7359 35.8283 74.5339Z" fill="#FFB92B"/>
<path d="M34.178 74.1521C33.2507 74.2164 32.3728 74.7246 31.871 75.5885L29.5531 79.579C28.7503 80.9611 29.2227 82.7165 30.6132 83.5145C31.5301 84.0407 32.6044 84.0083 33.4639 83.5358C33.4512 83.5304 33.4384 83.5251 33.4257 83.5145C32.0352 82.7165 31.5628 80.9611 32.3655 79.579L34.6835 75.5885C34.9573 75.117 35.3482 74.7625 35.793 74.5174C35.281 74.2325 34.722 74.1144 34.178 74.1521Z" fill="#FF8A3C"/>
<path d="M31.3891 70.6551C32.7796 71.4531 33.2527 73.2083 32.4499 74.5904L28.9721 80.5781C28.1694 81.9602 26.4037 82.4305 25.0132 81.6325C23.6227 80.8345 23.1496 79.0794 23.9524 77.6973L27.4301 71.7096C28.2329 70.3274 29.9986 69.8571 31.3891 70.6551ZM24.6303 70.7682C26.0208 71.5662 26.494 73.3213 25.6912 74.7034L25.1115 75.7014C24.3087 77.0835 22.543 77.5538 21.1526 76.7558C19.7621 75.9578 19.289 74.2027 20.0917 72.8206L20.6714 71.8226C21.4742 70.4405 23.2399 69.9702 24.6303 70.7682Z" fill="#FFB92B"/>
<path d="M50.3402 47.9683C44.987 47.7998 39.5207 48.7089 37.4433 50.9124C35.2704 53.217 31.4419 60.0134 32.2801 62.3153C32.7534 63.6153 34.0476 63.7129 35.6389 63.0843C35.4103 62.8988 35.217 62.6575 35.0924 62.3153C34.2542 60.0134 38.0827 53.217 40.2555 50.9124C41.983 49.0801 46.055 48.1438 50.4556 47.9765C50.4168 47.9752 50.3791 47.9736 50.3402 47.9683Z" fill="#FF8A3C"/>
<path d="M25.8886 49.6409L15.4551 68.0772L19.0446 70.7549L20.6183 71.9111L20.6704 71.8234C21.206 70.9011 22.1712 70.3969 23.1668 70.3925L22.7713 70.1013L19.1791 67.4235L28.904 50.2396L25.8886 49.6409ZM41.6253 80.1859C41.8076 80.8863 41.7246 81.6535 41.3342 82.3336L43.4214 83.2426L46.934 85.2584C47.5663 85.6236 49.1267 85.6879 49.7189 85.3244C50.1649 85.0506 50.3987 84.863 50.6169 84.5829L47.1483 82.589L41.6253 80.1859Z" fill="#FFAF7A"/>
<path d="M29.7374 70.2743C28.8101 70.3386 27.9322 70.8468 27.4305 71.7106L23.9536 77.6977C23.1508 79.0798 23.6232 80.8352 25.0137 81.6333C25.9306 82.1594 27.0049 82.1244 27.8644 81.6492C27.8522 81.6439 27.8384 81.6386 27.8261 81.6333C26.4356 80.8352 25.9632 79.0798 26.766 77.6977L30.2429 71.7106C30.5163 71.2397 30.9058 70.8819 31.3497 70.6368C30.8391 70.354 30.2795 70.2365 29.7374 70.2743ZM22.9786 70.3869C22.0513 70.4512 21.1734 70.9594 20.6717 71.8232L20.0922 72.8202C19.2894 74.2023 19.7618 75.9577 21.1523 76.7557C22.0686 77.2814 23.1437 77.2458 24.003 76.7717C23.9908 76.7664 23.977 76.761 23.9647 76.7557C22.5742 75.9577 22.1018 74.2023 22.9046 72.8202L23.4841 71.8232C23.7576 71.3523 24.1468 70.9945 24.5909 70.7494C24.0803 70.4666 23.5207 70.3492 22.9786 70.3869Z" fill="#FFB92B"/>
<path d="M72.6811 39.1058C72.2473 39.0952 71.7965 39.2015 71.3794 39.4407L65.3538 42.8983C64.2414 43.5367 63.8164 44.861 64.4008 45.8671L75.477 64.9351C76.0614 65.9413 77.4268 66.2382 78.5392 65.5998L79.1791 65.2314L68.4819 46.8116C67.8975 45.8055 68.3253 44.4812 69.4377 43.8428L74.8206 40.7559L74.4416 40.105C74.0763 39.4762 73.4043 39.1251 72.6811 39.1058Z" fill="#755BE2"/>
<path d="M59.4139 23.3444C58.3177 23.9333 57.4013 24.8083 56.762 25.8764C56.1227 26.9446 55.7845 28.166 55.7832 29.4111C55.7833 30.3165 55.9616 31.213 56.3079 32.0494C56.6542 32.8858 57.1618 33.6458 57.8017 34.2859C58.4416 34.926 59.2012 35.4338 60.0371 35.7801C60.8731 36.1264 61.7691 36.3046 62.6739 36.3045C63.9198 36.3038 65.1423 35.965 66.2111 35.3242C67.2799 34.6834 68.1551 33.7646 68.7434 32.6655C67.7425 33.2059 66.6234 33.4899 65.4861 33.4922C64.5814 33.4924 63.6854 33.3142 62.8494 32.9678C62.0135 32.6215 61.2538 32.1138 60.614 31.4737C59.9741 30.8335 59.4665 30.0736 59.1202 29.2371C58.7739 28.4007 58.5956 27.5042 58.5955 26.5988C58.5962 25.4631 58.8774 24.3452 59.4139 23.3444Z" fill="#94AC04"/>
<path d="M45.0008 2.81262C34.4128 2.81268 25.8284 11.4189 25.8284 21.996C25.8284 32.5731 34.4138 41.1766 45.0008 41.1766C49.7956 41.1766 54.4165 39.3685 57.8923 36.1892C59.2452 37.1502 60.8913 37.7107 62.6683 37.7107C67.2831 37.7107 70.9733 33.9725 70.9733 29.4057C70.9733 25.34 68.0284 21.9435 64.1568 21.2462C63.7615 11.0156 55.3212 2.81268 45.0008 2.81262ZM45.0008 5.62764C53.7941 5.62764 60.9491 12.604 61.3445 21.216C57.361 21.8638 54.3742 25.298 54.3742 29.4057C54.3742 31.1806 54.9694 32.9269 55.904 34.2036C52.9071 36.8732 49.0501 38.3643 45.0008 38.3643C35.9968 38.3643 28.6434 31.0542 28.6434 21.996C28.6434 12.9378 35.9997 5.62769 45.0008 5.62764ZM43.6 12.12V13.6965C41.1384 14.3059 39.3689 16.5212 39.3871 19.0684C39.4009 20.9831 40.386 22.0794 41.4826 22.6194C42.4823 23.1116 43.8005 23.2556 44.8551 23.3664C46.246 23.5126 46.8443 23.6157 47.2856 23.8336C47.727 24.051 47.8239 24.3566 47.8239 24.8607C47.8239 26.3752 46.5925 27.5727 45.0309 27.5906C43.5067 27.5295 42.6488 26.5165 42.2598 25.2754C41.6935 23.4888 39.012 24.3311 39.5821 26.1158C40.2622 28.2476 41.6434 29.6561 43.6 30.2051V31.8035C43.6409 33.6372 46.3716 33.6372 46.4123 31.8035V30.2326C48.8578 29.61 50.6279 27.4409 50.628 24.8607C50.628 23.0503 49.761 21.9161 48.5298 21.3097C47.4994 20.8021 46.2118 20.6734 45.1572 20.5627C44.1026 20.4521 43.2677 20.3607 42.7294 20.096C42.4094 19.9381 42.1993 19.7654 42.1993 19.0689C42.1993 17.5544 43.4033 16.3569 44.9649 16.339C46.3128 16.3932 47.2791 17.144 47.7525 18.6541C48.2748 20.3858 50.9948 19.6809 50.4302 17.8138C49.8267 15.8885 48.5195 14.2948 46.4123 13.7272V12.1205C46.4123 11.2708 45.7094 10.7336 45.0061 10.7334C44.3029 10.7331 43.6 11.2867 43.6 12.12ZM62.6681 23.9267C65.6741 23.9267 68.1581 26.3577 68.1581 29.4057C68.1581 32.4536 65.6815 34.8984 62.6681 34.8984C59.6547 34.8984 57.1863 32.4536 57.1863 29.4057C57.1863 26.3577 59.6621 23.9267 62.6681 23.9267ZM63.3519 27.6012L62.2012 28.8041L61.8057 28.4198C60.5375 27.1452 58.5098 28.9587 59.8228 30.4026L61.2152 31.7978C61.7713 32.3617 62.6775 32.3586 63.2228 31.795L65.376 29.5512C66.2653 28.639 65.5694 27.1145 64.2967 27.1701C63.9337 27.1861 63.6021 27.3376 63.3519 27.6012ZM70.6765 38.2244L64.6455 41.6876C62.895 42.6922 62.1822 44.8451 63.1844 46.5706L63.2806 46.738C63.0742 46.8225 62.8081 46.8991 62.5033 46.9799C61.0607 47.3625 58.828 47.6447 55.7665 47.1032C52.3565 46.5004 48.4325 46.3728 44.9183 46.7736C41.4041 47.1744 38.1527 48.1088 36.4183 49.9484C36.338 50.0335 36.2282 50.1525 36.1464 50.245L27.9018 48.6027L27.9622 48.5012C29.0031 46.7091 28.3705 44.4525 26.6055 43.4397L20.5745 39.9765C18.8095 38.9636 16.5267 39.5486 15.4854 41.3414L3.31074 62.2989C2.28101 64.0825 2.90249 66.3503 4.66745 67.3632L10.6985 70.8237C12.3163 71.7521 14.3686 71.336 15.5129 69.8707L18.7728 72.3012C17.714 74.3617 18.469 76.8366 20.4481 77.9724C21.0044 78.2919 21.5949 78.4763 22.2003 78.5272C21.9544 80.2131 22.7134 81.9261 24.304 82.8445C25.5531 83.5613 27.0261 83.5914 28.2588 83.031C28.6236 83.7266 29.1793 84.3136 29.9066 84.7311C31.1573 85.4488 32.6249 85.4734 33.8559 84.9097C34.2213 85.6076 34.7818 86.2004 35.5093 86.6179C37.5523 87.7904 40.1953 87.1063 41.3947 85.0415L41.977 84.0363C43.4294 84.8696 44.9755 85.7527 46.2366 86.4751C48.3181 87.6696 50.9281 86.9465 52.1111 84.9097C52.3835 84.4403 52.5551 83.965 52.6329 83.4568C54.5951 84.2807 56.9252 83.5323 58.0186 81.6497C58.3412 81.0942 58.53 80.5135 58.5816 79.9085C60.2775 80.1578 62.0198 79.3682 62.9263 77.8076C63.1983 77.3393 63.3756 76.8675 63.4537 76.3602C65.4161 77.1851 67.7402 76.433 68.8338 74.5504C69.8167 72.848 69.3047 71.2698 69.1277 70.862L74.3073 65.7235C75.3354 67.3742 77.5285 67.803 79.2426 66.8194L85.2736 63.3562C87.0076 62.3611 87.7369 60.1986 86.7347 58.4732L75.6613 39.4079C75.0349 38.3295 73.9108 37.7433 72.7391 37.7024C72.0361 37.6759 71.3164 37.8571 70.6765 38.2244ZM84.2958 59.8739C84.4713 60.1763 84.3309 60.6551 83.8619 60.9257L77.8308 64.3862C77.3571 64.6583 76.8632 64.5222 76.6966 64.2352C72.8793 57.6235 68.9632 50.9196 65.6232 45.17C65.4549 44.8803 65.5908 44.3858 66.0571 44.1181L72.0909 40.6577C72.2205 40.5833 72.3347 40.545 72.4946 40.5147C72.8086 40.4669 73.0975 40.5934 73.2224 40.8086L84.2958 59.8739ZM19.16 42.4096L25.2103 45.8865C25.5992 46.1108 25.7854 46.6492 25.5234 47.1004L13.3487 68.0606C13.1039 68.4848 12.5726 68.6541 12.1128 68.3902L6.08181 64.9297C5.65927 64.6874 5.49019 64.1505 5.75223 63.6994L17.9242 42.7418C18.1207 42.4033 18.4602 42.264 18.8057 42.2916C18.9228 42.3076 19.0451 42.3447 19.16 42.4096ZM72.8187 63.2354L67.2985 68.7144C59.5515 64.2632 51.7434 59.7915 43.9735 55.3368C43.3454 54.9749 42.5452 55.1498 42.1252 55.7408C40.5676 57.9493 38.2686 60.0581 36.3139 61.1951C35.2469 61.8156 34.4397 62.0587 34.0097 62.0629C33.6731 62.0661 33.6655 61.9943 33.6032 61.8349C33.5371 61.6659 33.5425 61.1227 33.7817 60.2557C34.0209 59.3888 34.4613 58.3163 34.9956 57.2347C36.0644 55.0717 37.5656 52.8297 38.4616 51.8793C39.3719 50.9138 41.5915 49.9803 45.2396 49.5641C48.4447 49.1985 52.169 49.3276 55.2776 49.8772C58.7347 50.4883 61.4007 50.1802 63.2174 49.6986C64.1136 49.461 64.4957 49.2963 64.7142 49.2043C67.4581 53.9032 70.1057 58.5185 72.8187 63.2354ZM26.4104 51.1761L34.3145 52.7498C33.6701 53.753 33.0322 54.856 32.4717 55.9905C31.8821 57.1837 31.3819 58.3819 31.071 59.5086C30.7602 60.6352 30.5979 61.8086 30.9584 62.7987C31.4335 64.1035 32.5524 64.9143 34.081 64.875C35.2207 64.8431 36.4924 64.3435 37.7035 63.6391C39.7719 62.4361 41.9667 60.4848 43.6522 58.3935L65.8648 71.1339C66.6024 71.557 66.7943 72.47 66.4059 73.1387C66.0175 73.8075 65.0977 74.1005 64.3598 73.6771C59.2669 70.739 54.136 67.8233 49.0488 64.8969C48.8049 64.7508 48.5499 64.6928 48.2661 64.7104C46.8591 64.7965 46.4453 66.6468 47.6481 67.3359L59.9492 74.3941C60.6871 74.8177 60.8946 75.71 60.4984 76.3962C60.1023 77.0823 59.193 77.3607 58.4551 76.9372C54.938 74.9267 51.4241 72.911 47.909 70.8952C46.2832 69.9596 44.8798 72.3984 46.5056 73.334C49.3463 74.9622 52.1863 76.59 55.0276 78.217C55.7765 78.6476 55.9889 79.5439 55.5879 80.2383C55.1869 80.9328 54.2825 81.2001 53.5446 80.7766C51.2034 79.4319 48.86 78.0913 46.5166 76.7504C44.8801 75.8048 43.4894 78.2724 45.116 79.1892C46.4501 79.952 47.8125 80.7295 49.1339 81.4934C49.8718 81.9171 50.0752 82.8276 49.6832 83.4983C49.2912 84.1689 48.375 84.4601 47.6371 84.0365C46.4638 83.3666 45.2915 82.695 44.119 82.0235L43.0919 81.433C43.3064 79.8808 42.5924 78.1332 40.9772 77.2008C40.2497 76.7831 39.4602 76.5912 38.6702 76.6241C38.5447 75.2841 37.7829 74.04 36.5336 73.323C35.807 72.9063 35.0196 72.7131 34.2321 72.7462C34.1063 71.4011 33.3429 70.1516 32.0927 69.4342C30.2069 68.3519 27.8183 68.8527 26.5148 70.5519C26.1921 70.1517 25.8073 69.8251 25.3366 69.555C23.6884 68.6091 21.7347 68.8687 20.3849 70.0025L16.9574 67.4484L26.4104 51.1761ZM79.7341 58.5995C78.9575 58.5995 78.3279 59.2291 78.3279 60.0056C78.3279 60.7822 78.9575 61.4118 79.7341 61.4118C80.5107 61.4118 81.1402 60.7822 81.1402 60.0056C81.1402 59.2291 80.5106 58.5995 79.7341 58.5995ZM10.4897 62.0572C9.71313 62.0572 9.08358 62.6867 9.08356 63.4633C9.08355 64.2399 9.71311 64.8695 10.4897 64.8695C11.2663 64.8695 11.8959 64.2399 11.8958 63.4633C11.8958 62.6867 11.2663 62.0572 10.4897 62.0572ZM30.6811 71.8671C31.3843 72.2732 31.6529 73.1663 31.2303 73.8939L27.7479 79.881C27.3253 80.6086 26.4214 80.8145 25.7184 80.4109C25.0154 80.0075 24.7465 79.1255 25.1691 78.3978C26.329 76.4022 27.4879 74.406 28.6487 72.4108C28.9657 71.8651 29.5443 71.6061 30.1208 71.6831C30.3129 71.7097 30.4966 71.7614 30.6811 71.8671ZM23.925 71.9883C24.6225 72.3912 24.8941 73.2738 24.4715 74.0014C24.2793 74.3336 24.0852 74.6642 23.892 74.9956C23.4694 75.7232 22.5733 75.9516 21.8597 75.5421C21.1461 75.1323 20.8878 74.2429 21.3104 73.5153L21.8872 72.5184C22.2042 71.9727 22.8201 71.7179 23.3977 71.7987C23.5902 71.8253 23.7405 71.882 23.925 71.9883ZM35.1247 75.7452C35.8241 76.1523 36.0911 77.0416 35.6685 77.7692C34.8925 79.0994 34.1219 80.4318 33.3478 81.7624C32.9252 82.49 32.027 82.7047 31.3182 82.2979C30.6094 81.8913 30.3526 81.019 30.7689 80.2931L33.0924 76.2916C33.4097 75.7483 33.9536 75.5118 34.5178 75.5501C34.7099 75.5767 34.9402 75.6394 35.1247 75.7452ZM38.9943 79.4362C39.1869 79.4628 39.3811 79.5282 39.5656 79.6339C40.2558 80.0325 40.5347 80.9194 40.1121 81.647L38.9559 83.6409C38.5333 84.3685 37.6256 84.5891 36.9208 84.1846C36.2161 83.7801 35.9489 82.8854 36.3716 82.1578L37.5278 80.164C37.8447 79.6183 38.4388 79.3718 38.9943 79.4362Z" fill="#0F0A23"/>
</svg>
