<svg width="131" height="83" viewBox="0 0 131 83" fill="none" xmlns="http://www.w3.org/2000/svg">
<path fill-rule="evenodd" clip-rule="evenodd" d="M13.7029 39.4116C13.6751 38.9282 13.6213 38.4604 13.5524 38.0232C13.336 36.7093 12.1075 36.843 12.0121 36.8549C11.8122 36.8805 10.9259 37.0307 10.8203 38.0839C10.8131 38.1468 10.828 38.5952 10.8369 38.7677C10.8572 39.1355 10.8859 39.496 10.9739 39.8516C10.9927 40.4685 10.9587 41.1088 10.8298 41.7215C10.644 42.6253 10.2782 43.48 9.50859 43.9957C8.13321 44.9224 6.21348 45.0924 4.63178 45.4574C3.97123 45.6097 3.52002 46.2212 3.56804 46.8971C3.62067 47.573 4.15587 48.1112 4.83335 48.1637C6.87523 48.3237 9.37 49.9024 10.9899 51.2146C11.4879 51.6177 12.106 52.6377 12.7427 53.2655C13.2557 53.7683 13.7998 54.0843 14.2932 54.1806C14.4858 54.2179 15.541 54.3168 15.8929 53.1985C15.9888 52.8848 16.2741 51.2647 16.2963 51.0811C16.4341 50.0276 16.6881 49.0729 17.2896 48.1833C17.8114 47.4121 18.4702 46.7171 19.3036 46.2826C19.6396 46.1074 19.9927 45.964 20.3455 45.8174C20.4713 45.7886 20.8262 45.7053 20.9491 45.6486C21.1995 45.5349 21.3764 45.3792 21.4988 45.2297C21.7314 44.9467 21.8313 44.6274 21.8175 44.2774C21.8116 44.0461 21.7511 43.7773 21.5556 43.4928C21.4101 43.2914 21.0985 42.9979 20.5758 42.8412C20.0293 42.6773 18.883 42.5875 18.677 42.5544C17.2447 42.3258 15.8191 41.8992 14.6455 41.0232C14.0609 40.585 13.882 40.065 13.7029 39.4116ZM13.2174 43.3754C12.7972 44.5449 12.0946 45.5661 11.0413 46.2736C10.6073 46.5672 10.1261 46.806 9.62241 47.0052C10.7704 47.6373 11.8517 48.3794 12.7217 49.0812C13.0035 49.3097 13.3246 49.6938 13.6681 50.1164C13.8868 48.8686 14.2823 47.7269 15.0152 46.6432C15.4497 46.004 15.9532 45.4086 16.5299 44.8957C15.354 44.5674 14.2213 44.0819 13.2174 43.3754Z" fill="#755BE2"/>
<path fill-rule="evenodd" clip-rule="evenodd" d="M46.2172 75.0855C35.8828 76.4247 25.2414 77.0325 15.708 81.6141C15.0246 81.9436 14.2025 81.6527 13.8734 80.9741C13.5439 80.291 13.8349 79.469 14.5182 79.1395C24.3188 74.4286 35.2412 73.7361 45.8619 72.3622C46.6157 72.2645 47.3019 72.7952 47.3991 73.5441C47.4967 74.2977 46.9659 74.9838 46.2172 75.0855Z" fill="#755BE2"/>
<path fill-rule="evenodd" clip-rule="evenodd" d="M45.3966 59.8771C41.8771 57.2633 38.144 55.4181 33.7953 54.7673C33.0471 54.655 32.5318 53.9555 32.6417 53.2064C32.7562 52.4568 33.4521 51.9401 34.2048 52.0519C39.0117 52.771 43.1447 54.7844 47.0335 57.6728C47.6425 58.1246 47.7697 58.9849 47.3182 59.5933C46.8666 60.2016 46.0056 60.3289 45.3966 59.8771Z" fill="#755BE2"/>
<path fill-rule="evenodd" clip-rule="evenodd" d="M50.9071 26.3309C48.908 21.4545 45.6037 17.8224 40.8758 15.4459C40.2003 15.1056 39.9248 14.2796 40.2679 13.6027C40.6063 12.9257 41.4337 12.6524 42.1092 12.9932C47.4541 15.6784 51.1897 19.7796 53.4487 25.2903C53.7341 25.9914 53.3996 26.7936 52.698 27.0808C51.9964 27.368 51.1925 27.032 50.9071 26.3309Z" fill="#755BE2"/>
<path fill-rule="evenodd" clip-rule="evenodd" d="M101.802 13.9072C102.764 14.8339 103.644 15.8457 104.421 16.9372C104.874 17.5665 105.711 19.0548 105.716 20.1958C105.719 21.0509 105.39 21.781 104.632 22.2712C103.421 23.0555 102.389 23.0835 101.56 22.7735C100.765 22.477 100.087 21.8075 99.6094 20.8569C98.7591 19.1597 98.5557 16.4803 98.7234 14.8357C97.7155 14.0035 96.6299 13.2646 95.4902 12.6233C86.7253 7.69985 74.9849 11.1175 66.6845 20.7291C63.7753 24.0964 62.9103 30.6238 62.8257 37.5697C62.6872 48.4694 64.6747 60.4179 65.1451 63.9301C65.2653 64.8547 65.2229 65.415 65.1889 65.5295C64.9977 66.162 64.5592 66.3691 64.2513 66.4612C63.8184 66.5896 63.4588 66.54 63.1562 66.4199C62.7528 66.2599 62.3972 65.942 62.1941 65.4103C62.0919 65.1386 62.0284 64.7528 61.9939 64.3373C61.9772 64.091 62.0082 63.8172 61.9397 63.6468C61.4549 62.4495 60.9002 61.288 60.3584 60.1174C58.5362 56.1795 56.3268 52.5423 53.9266 48.9292C46.2807 37.4434 38.7852 25.2419 27.374 17.0782C26.7569 16.6374 26.6116 15.7798 27.053 15.1633C27.4946 14.5473 28.354 14.405 28.9711 14.8458C40.6558 23.2035 48.3887 35.6487 56.2107 47.4091C58.0304 50.1413 59.7368 52.8896 61.2584 55.7632C60.4373 49.0008 59.6364 39.8042 60.3469 32.0697C60.8488 26.5546 62.1545 21.7684 64.6043 18.9353C73.8649 8.21231 87.0582 4.73674 96.8356 10.2297C97.7991 10.7698 98.7231 11.373 99.6073 12.0356C103.555 3.08758 113.322 -1.32447 122.705 1.81967C123.421 2.061 123.811 2.83943 123.569 3.55779C123.327 4.27615 122.549 4.66393 121.833 4.4226C113.561 1.65164 104.955 5.7673 101.802 13.9072ZM101.482 17.6069C101.725 17.9076 101.96 18.216 102.186 18.5322C102.348 18.7536 102.596 19.1425 102.783 19.5664C102.844 19.714 102.906 19.9501 102.94 20.0947C102.78 20.1925 102.647 20.2487 102.518 20.2011C102.307 20.1216 102.195 19.8799 102.066 19.6251C101.781 19.0574 101.59 18.3335 101.482 17.6069Z" fill="#755BE2"/>
</svg>
