<svg width="140" height="140" viewBox="0 0 140 140" fill="none" xmlns="http://www.w3.org/2000/svg">
<circle cx="70" cy="70" r="68" stroke="#755BE2" stroke-width="4"/>
<path d="M76.7829 21.9182C88.3033 10.3977 106.982 10.3977 118.502 21.9182C130.023 33.4386 130.023 52.117 118.502 63.6375L64.055 118.085C52.5345 129.605 33.8561 129.605 22.3357 118.085C10.8152 106.564 10.8152 87.8858 22.3357 76.3654L76.7829 21.9182Z" stroke="#755BE2" stroke-width="4"/>
<path d="M101.137 21.91C105.933 17.1143 113.708 17.1143 118.503 21.91C123.299 26.7056 123.299 34.4809 118.503 39.2765L39.7035 118.076C34.9079 122.872 27.1326 122.872 22.337 118.076C17.5413 113.281 17.5413 105.506 22.337 100.71L101.137 21.91Z" stroke="#755BE2" stroke-width="4"/>
<path d="M22.3357 63.6375C10.8152 52.117 10.8152 33.4386 22.3357 21.9182C33.8561 10.3977 52.5345 10.3977 64.055 21.9182L118.502 76.3654C130.023 87.8858 130.023 106.564 118.502 118.085C106.982 129.605 88.3034 129.605 76.7829 118.085L22.3357 63.6375Z" stroke="#755BE2" stroke-width="4"/>
<path d="M22.337 39.2765C17.5413 34.4809 17.5413 26.7056 22.337 21.91C27.1326 17.1143 34.9079 17.1143 39.7035 21.91L118.503 100.71C123.299 105.506 123.299 113.281 118.503 118.076C113.708 122.872 105.933 122.872 101.137 118.076L22.337 39.2765Z" stroke="#755BE2" stroke-width="4"/>
</svg>
