<svg width="73" height="60" viewBox="0 0 73 60" fill="none" xmlns="http://www.w3.org/2000/svg">
<circle cx="18.75" cy="41.25" r="18.75" fill="#F4462F"/>
<path d="M72.5 0H12.5V48H26.2C28.3 55 34.8 60 42.5 60C50.2 60 56.6 55 58.8 48H72.5V0ZM53.5 30C53.2 29.7 52.9 29.5 52.5 29.3V6H56.5C57 11.3 61.2 15.5 66.5 16V20C61.2 20.5 57 24.7 56.5 30H53.5ZM50.5 2V28C48.9 27.2 47.2 26.6 45.3 26.3C47.2 25.4 48.5 23.8 48.5 21.9C48.5 20.3 47.5 18.8 46.1 17.9C45.3 17.4 44.5 17.1 43.5 17V11C44.8 11.3 45.8 12 46.3 13H48.4C47.9 11 46 9.3 43.5 9V6H41.5V9C38.7 9.4 36.5 11.5 36.5 13.9C36.5 15.5 37.5 17 38.9 17.9C39.6 18.4 40.5 18.7 41.5 18.8V24.8C40.2 24.5 39.2 24 38.7 23H36.6C37 24.4 38.1 25.6 39.6 26.3C37.8 26.6 36.1 27.2 34.5 28V2H50.5ZM41.5 16.8C39.8 16.5 38.5 15.3 38.5 13.9C38.5 12.5 39.8 11.3 41.5 11V16.8ZM43.5 24.8V19C45.2 19.3 46.5 20.5 46.5 21.9C46.5 23.3 45.2 24.5 43.5 24.8ZM32.5 29.3C32.2 29.5 31.9 29.8 31.5 30H28.5C28 24.7 23.8 20.5 18.5 20V16C23.8 15.5 28 11.3 28.5 6H32.5V29.3ZM14.5 2H32.5V4H26.5V5C26.5 10 22.5 14 17.5 14H16.5V22H17.5C22.5 22 26.5 26 26.5 31V32H29.5C29 32.6 28.5 33.3 28 34H14.5V2ZM14.5 36H27C26.7 36.6 26.4 37.3 26.2 38H14.5V36ZM14.5 41V40H25.8C25.7 40.7 25.6 41.3 25.6 42H14.5V41ZM14.5 46V44H25.6C25.6 44.7 25.7 45.3 25.8 46H14.5ZM42.5 58C34.2 58 27.5 51.3 27.5 43C27.5 34.7 34.2 28 42.5 28C50.8 28 57.5 34.7 57.5 43C57.5 51.3 50.8 58 42.5 58ZM70.5 46H59.2C59.3 45.3 59.4 44.7 59.4 44H70.5V46ZM70.5 41V42H59.4C59.4 41.3 59.3 40.7 59.2 40H70.5V41ZM70.5 38H58.8C58.6 37.3 58.3 36.6 58 36H70.5V38ZM70.5 34H56.9C56.5 33.3 56 32.6 55.4 32H58.4V31C58.4 26 62.4 22 67.4 22H68.4V14H67.4C62.4 14 58.4 10 58.4 5V4H52.4V2H70.4V34H70.5Z" fill="#0A1317"/>
<path d="M43.5984 31L43.3984 33C48.5984 33.5 52.4984 37.7 52.4984 43C52.4984 46.4 50.7984 49.4 48.0984 51.3L47.4984 49.5L43.4984 54L49.3984 55.2L48.7984 53.3C52.2984 51.1 54.4984 47.2 54.4984 43C54.4984 36.7 49.7984 31.6 43.5984 31Z" fill="#0A1317"/>
<path d="M36.8984 34.7008L37.4984 36.5008L41.4984 32.0008L35.5984 30.8008L36.1984 32.7008C32.5984 34.9008 30.3984 38.7008 30.3984 43.0008C30.3984 49.3008 35.0984 54.4008 41.2984 55.0008L41.4984 53.0008C36.3984 52.5008 32.4984 48.2008 32.4984 43.0008C32.4984 39.6008 34.1984 36.6008 36.8984 34.7008Z" fill="#0A1317"/>
</svg>
