<svg width="80" height="80" viewBox="0 0 80 80" fill="none" xmlns="http://www.w3.org/2000/svg">
<g clip-path="url(#clip0_2129_1737)">
<path d="M43.5475 72.6094C63.5717 67.4566 78.3228 57.5216 76.495 50.419C74.6673 43.3164 56.9529 41.7359 36.9288 46.8887C16.9046 52.0415 2.15353 61.9765 3.98125 69.0791C5.80897 76.1817 23.5234 77.7623 43.5475 72.6094Z" fill="#E9E9E9"/>
<path d="M62.08 13.9199H18V69.4399H62.08V13.9199Z" fill="#8DBBE2"/>
<path d="M53.4397 17.6797H56.3197V63.6797H23.6797V17.6797H26.5597H53.4397Z" fill="white"/>
<path d="M61.9991 70.4009H17.9991C17.4391 70.4009 17.0391 70.0009 17.0391 69.4409V13.9209C17.0391 13.3609 17.4391 12.9609 17.9991 12.9609H62.0791C62.6391 12.9609 63.0391 13.3609 63.0391 13.9209V69.4409C62.9591 70.0009 62.5591 70.4009 61.9991 70.4009ZM18.9591 68.4809H61.1191V14.8809H18.9591V68.4809Z" fill="#585452"/>
<path d="M50.4814 10.0801H29.4414V19.6801H50.4814V10.0801Z" fill="#F28C13"/>
<path d="M50.5605 20.5591H29.4405C28.8805 20.5591 28.4805 20.1591 28.4805 19.5991V9.99906C28.4805 9.43906 28.8805 9.03906 29.4405 9.03906H50.4805C51.0405 9.03906 51.4405 9.43906 51.4405 9.99906V19.5991C51.5205 20.1591 51.0405 20.5591 50.5605 20.5591ZM30.4005 18.6391H49.6005V10.9591H30.4005V18.6391Z" fill="#585452"/>
<path d="M56.3187 64.6407H23.6788C23.1188 64.6407 22.7188 64.2407 22.7188 63.6807V17.6807C22.7188 17.1207 23.1188 16.7207 23.6788 16.7207H26.5588V18.6407H24.6387V62.7207H55.2787V18.6407H53.3587V16.8007H56.2388C56.7987 16.8007 57.1987 17.2007 57.1987 17.7607V63.7607C57.1987 64.2407 56.7987 64.6407 56.3187 64.6407Z" fill="#585452"/>
<path d="M42.8805 34.9609L51.5205 38.8009C51.5205 38.8009 51.5205 40.0809 51.5205 41.6809C51.5205 43.2809 50.5605 44.5609 49.6005 44.5609H30.4005C29.4405 44.5609 28.4805 43.2809 28.4805 41.6809C28.4805 40.0809 28.4805 38.8009 28.4805 38.8009L37.1205 34.9609H42.8805Z" fill="#8DBBE2"/>
<path d="M44.7992 28.7195C44.7992 32.0795 42.9592 35.9195 39.9992 35.9195C37.1192 35.9195 35.1992 32.0795 35.1992 28.7195C35.1992 25.3595 36.1592 23.4395 39.9992 23.4395C43.8392 23.4395 44.7992 25.3595 44.7992 28.7195Z" fill="#FFB957"/>
<path d="M50.4814 47.4395H29.4414V49.3595H50.4814V47.4395Z" fill="#585452"/>
<path d="M50.4814 51.1992H29.4414V53.1192H50.4814V51.1992Z" fill="#585452"/>
<path d="M40.9614 55.0391H29.4414V56.9591H40.9614V55.0391Z" fill="#585452"/>
<path d="M47.6803 12.9609H32.3203V14.8809H47.6803V12.9609Z" fill="#585452"/>
<path d="M59.2017 64.3195C64.4153 64.3195 68.6417 60.093 68.6417 54.8795C68.6417 49.6659 64.4153 45.4395 59.2017 45.4395C53.9881 45.4395 49.7617 49.6659 49.7617 54.8795C49.7617 60.093 53.9881 64.3195 59.2017 64.3195Z" fill="#F28C13"/>
<path d="M64.4019 52.5609L62.8019 50.9609L58.1619 55.5209L55.6019 52.8809L53.9219 54.5609L58.1619 58.8009L64.4019 52.5609Z" fill="white"/>
</g>
<defs>
<clipPath id="clip0_2129_1737">
<rect width="80" height="80" fill="white"/>
</clipPath>
</defs>
</svg>
