<svg width="81" height="80" viewBox="0 0 81 80" fill="none" xmlns="http://www.w3.org/2000/svg">
<g clip-path="url(#clip0_2129_1678)">
<path d="M77.9315 61.7066C79.7132 51.4773 64.6432 40.3084 44.2716 36.7601C23.9001 33.2118 5.94139 38.6279 4.15967 48.8571C2.37796 59.0864 17.448 70.2553 37.8195 73.8036C58.191 77.3519 76.1497 71.9358 77.9315 61.7066Z" fill="#E9E9E9"/>
<path d="M29.4598 56.0798C42.2287 56.0798 52.5798 45.7287 52.5798 32.9598C52.5798 20.191 42.2287 9.83984 29.4598 9.83984C16.691 9.83984 6.33984 20.191 6.33984 32.9598C6.33984 45.7287 16.691 56.0798 29.4598 56.0798Z" fill="white"/>
<path d="M29.4598 9.83984C16.6598 9.83984 6.33984 20.1598 6.33984 32.9598C6.33984 39.3598 8.89984 45.1198 13.1398 49.2798L29.4598 32.9598V9.83984Z" fill="#FFB957"/>
<path d="M29.4608 57.2007C16.1008 57.2007 5.30078 46.3207 5.30078 32.9607C5.30078 19.6007 16.1808 8.7207 29.5408 8.7207C42.9008 8.7207 53.7808 19.6007 53.7808 32.9607C53.7808 46.3207 42.8208 57.2007 29.4608 57.2007ZM29.4608 10.9607C17.3808 10.9607 7.46078 20.8007 7.46078 32.9607C7.46078 45.1207 17.3008 54.9607 29.4608 54.9607C41.6208 54.9607 51.4608 45.1207 51.4608 32.9607C51.4608 20.8007 41.6208 10.9607 29.4608 10.9607Z" fill="#585452"/>
<path d="M59.2197 52.8008C66.8997 57.2008 74.6597 56.0808 74.6597 67.1208V69.3608H26.1797V67.1208C26.1797 56.0808 33.8597 57.2008 41.6197 52.8008H59.2197Z" fill="#8DBBE2"/>
<path d="M54.8211 57.1991L50.4211 54.9591L46.0211 57.1991L41.6211 52.7991L43.7811 49.4391H44.9011V45.0391L50.4211 46.1591L55.9411 45.0391V49.4391H56.9811L59.2211 52.7991L54.8211 57.1991Z" fill="white"/>
<path d="M75.6986 70.3998H25.0586V67.1198C25.0586 58.3198 29.9386 56.4798 35.1386 54.4798C37.0586 53.7598 39.0586 52.9598 41.0586 51.8398L42.1786 53.7598C40.0186 54.9598 37.8586 55.8398 35.9386 56.5598C30.7386 58.5598 27.2986 59.8398 27.2986 67.1198V68.2398H73.5386V67.1198C73.5386 59.8398 70.0986 58.4798 64.8986 56.5598C62.9786 55.8398 60.8186 55.0398 58.6586 53.7598L59.7786 51.8398C61.7786 52.9598 63.7786 53.7598 65.6986 54.4798C70.8186 56.3998 75.6986 58.2398 75.6986 67.1198V70.3998Z" fill="#585452"/>
<path d="M55.0597 58.4802L50.4197 56.1602L45.7797 58.4802L40.1797 52.8802L43.2997 48.2402L50.4197 49.4402L57.5397 48.2402L60.6597 52.8802L55.0597 58.4802ZM50.4197 53.7602L54.5797 55.8402L57.7797 52.6402L56.4997 50.6402L50.4197 51.6802L44.3397 50.6402L43.0597 52.5602L46.2597 55.7602L50.4197 53.7602Z" fill="#585452"/>
<path d="M57.0603 45.0391H54.8203V49.4391H57.0603V45.0391Z" fill="#585452"/>
<path d="M46.0213 45.0391H43.7812V49.4391H46.0213V45.0391Z" fill="#585452"/>
<path d="M51.5408 63.7598H49.3008V65.9998H51.5408V63.7598Z" fill="#585452"/>
<path d="M51.5408 59.3594H49.3008V61.5994H51.5408V59.3594Z" fill="#585452"/>
<path d="M60.34 30.7205V35.2005C59.22 42.8805 55.94 45.1205 55.94 45.1205C53.7 46.2405 50.42 46.2405 50.42 46.2405C50.42 46.2405 47.14 46.2405 44.9 45.1205C44.9 45.1205 41.62 42.8805 40.5 35.2005V30.8005L44.9 28.5605L55.94 32.9605L60.34 30.7205Z" fill="white"/>
<path d="M40.5 30.7188C40.5 23.9988 43.7 20.7988 50.42 20.7988C57.14 20.7988 60.34 23.9988 60.34 30.7188L55.94 32.9588L50.42 30.7188L44.9 28.4788L40.5 30.7188Z" fill="#FFB957"/>
<path d="M50.4209 47.2788C50.2609 47.2788 46.8209 47.2788 44.4209 46.0788L44.3409 45.9988C44.1809 45.9188 40.5809 43.4388 39.4609 35.3588V35.1988V30.7988H41.7009V35.1188C42.6609 41.5988 45.2209 43.9188 45.5409 44.1588C47.4609 45.1188 50.4209 45.1188 50.5009 45.1188C50.5009 45.1188 53.4609 45.1188 55.4609 44.1588C55.7809 43.9188 58.4209 41.5988 59.3009 35.1188V30.7988H61.5409V35.3588C60.4209 43.4388 56.8209 45.9188 56.6609 45.9988L56.5809 46.0788C54.0209 47.2788 50.5809 47.2788 50.4209 47.2788Z" fill="#585452"/>
<path d="M61.3808 30.7197H59.1408C59.1408 24.6397 56.4208 21.9197 50.3408 21.9197C44.2608 21.9197 41.5408 24.6397 41.5408 30.7197H39.3008C39.3008 23.4397 42.9808 19.6797 50.3408 19.6797C57.7008 19.7597 61.3808 23.4397 61.3808 30.7197Z" fill="#585452"/>
<path d="M55.9395 34.1594L44.9795 29.7594L40.9795 31.7594L40.0195 29.7594L44.8195 27.3594L55.8595 31.7594L59.8595 29.7594L60.8195 31.7594L55.9395 34.1594Z" fill="#585452"/>
<path d="M30.6619 13.1191H28.4219V17.5191H30.6619V13.1191Z" fill="#585452"/>
<path d="M30.6619 48.4004H28.4219V52.8004H30.6619V48.4004Z" fill="#585452"/>
<path d="M14.0992 31.8398H9.69922V34.0798H14.0992V31.8398Z" fill="#585452"/>
<path d="M17.0605 18.9356L15.4766 20.5195L18.7575 23.8005L20.3414 22.2166L17.0605 18.9356Z" fill="#585452"/>
<path d="M18.8161 42.1116L15.5352 45.3926L17.1191 46.9765L20.4 43.6955L18.8161 42.1116Z" fill="#585452"/>
<path d="M30.6619 21.9199H28.4219V32.9599H30.6619V21.9199Z" fill="#585452"/>
<path d="M28.7669 32.1804L22.1484 38.7988L23.7323 40.3827L30.3508 33.7643L28.7669 32.1804Z" fill="#585452"/>
</g>
<defs>
<clipPath id="clip0_2129_1678">
<rect width="80" height="80" fill="white" transform="translate(0.5)"/>
</clipPath>
</defs>
</svg>
