<svg width="73" height="64" viewBox="0 0 73 64" fill="none" xmlns="http://www.w3.org/2000/svg">
<path d="M68.0117 35.3601L62.4941 29.5225C62.9402 29.2177 63.3502 28.8626 63.7161 28.4642C63.8164 28.3546 63.8942 28.2261 63.9451 28.0862C63.996 27.9462 64.0189 27.7975 64.0125 27.6484C64.0062 27.4994 63.9707 27.353 63.9082 27.2175C63.8456 27.0821 63.7572 26.9603 63.6479 26.8591C63.5386 26.7579 63.4106 26.6793 63.2713 26.6278C63.1319 26.5762 62.9839 26.5527 62.8357 26.5587C62.6875 26.5646 62.542 26.5998 62.4075 26.6624C62.273 26.7249 62.1521 26.8135 62.0518 26.9231C61.6158 27.4272 61.0637 27.8164 60.4434 28.0568C60.4058 28.059 60.3682 28.0632 60.331 28.0693C60.2434 28.0923 60.1588 28.1258 60.0792 28.1692C60.0694 28.1714 60.06 28.1762 60.0501 28.1782C59.6342 28.2636 59.2051 28.2626 58.789 28.1753C60.7709 21.6367 60.641 15.842 58.3437 10.9566C55.826 5.59604 48.7436 2.84689 41.8691 4.56091C39.7351 5.08775 37.7398 6.06972 36.0184 7.44038C33.4876 9.57811 31.4143 12.2096 29.9231 15.1766C27.2647 13.1414 24.1577 11.782 20.8675 11.2145C18.7064 10.8139 16.4862 10.8841 14.357 11.4204C7.48252 13.1344 2.51978 18.8868 2.81315 24.8008C3.79455 44.6637 35.7216 55.325 39.3599 56.4758C39.635 56.565 39.9291 56.5752 40.2092 56.5054C40.4892 56.4356 40.7441 56.2884 40.9451 56.0806C41.3882 55.628 42.5976 54.3736 44.2241 52.4936C44.4175 52.2662 44.5134 51.9708 44.491 51.672C44.4686 51.3731 44.3298 51.0949 44.1047 50.8979C43.8795 50.7009 43.5864 50.601 43.289 50.6201C42.9916 50.6392 42.7142 50.7757 42.517 50.9998C41.2117 52.508 40.1894 53.5968 39.6295 54.178C34.674 52.564 5.94742 42.4466 5.06946 24.6947C4.82941 19.8426 9.05779 15.0844 14.907 13.626C16.7387 13.1662 18.6485 13.1082 20.5068 13.4561C23.5953 13.9956 26.4968 15.3225 28.9337 17.3099C27.8375 19.5787 26.1647 22.8162 26.143 22.8573C26.0117 23.1114 25.9809 23.4063 26.0568 23.6829C26.1328 23.9595 26.3098 24.1973 26.5524 24.3487L31.2675 27.2877L28.4327 31.7534C28.2752 32.0017 28.22 32.3022 28.279 32.5913C28.3379 32.8804 28.5062 33.1354 28.7484 33.3025L33.7907 36.7833L31.6889 41.7995C31.581 42.0572 31.5716 42.3461 31.6624 42.6109C31.7532 42.8757 31.9378 43.0979 32.1809 43.2349L33.6434 44.0576C33.9053 44.2049 34.2145 44.2418 34.5028 44.16C34.7911 44.0783 35.035 43.8846 35.1808 43.6216C35.3266 43.3587 35.3623 43.0479 35.2802 42.7578C35.198 42.4676 35.0047 42.2218 34.7427 42.0745L34.1649 41.7495L36.2318 36.8164C36.3327 36.5754 36.3476 36.3064 36.274 36.055C36.2003 35.8036 36.0426 35.5853 35.8276 35.437L30.9267 32.0536L33.7893 27.5444C33.8697 27.4176 33.9242 27.276 33.9497 27.1277C33.9752 26.9794 33.9711 26.8275 33.9377 26.6806C33.9042 26.5338 33.8421 26.395 33.7549 26.2724C33.6678 26.1497 33.5573 26.0456 33.4299 25.9661L28.6299 22.9739C29.4657 21.3425 31.1453 18.0343 31.7468 16.626C33.0979 13.7799 35.0343 11.2558 37.4284 9.21993C38.8972 8.05207 40.599 7.21544 42.419 6.76652C48.2682 5.30815 54.2355 7.5243 56.3017 11.9222C58.3324 16.2429 58.4402 21.4363 56.6756 27.3545C56.5633 27.2974 56.4511 27.2403 56.3378 27.182C54.8784 26.4306 53.2264 25.5865 51.3741 26.1913C51.0081 26.3202 50.6614 26.4983 50.3431 26.7208L50.044 25.5209C49.9711 25.2284 49.7857 24.9767 49.5286 24.8211C49.2715 24.6656 48.9637 24.6189 48.673 24.6914C48.3824 24.7638 48.1326 24.9495 47.9786 25.2076C47.8246 25.4656 47.7791 25.7749 47.852 26.0674L48.1691 27.3392C47.7182 27.2643 47.2586 27.2612 46.8071 27.33C44.9094 27.6659 43.8276 29.1859 42.8895 30.5351C42.2829 31.7105 41.2895 32.6372 40.0784 33.1578C39.2967 33.3623 38.4692 33.303 37.7228 32.9889C37.44 32.8886 37.1295 32.9053 36.8596 33.0352C36.5897 33.1652 36.3824 33.3978 36.2835 33.6818C36.1846 33.9659 36.2021 34.2781 36.3321 34.5499C36.4621 34.8217 36.694 35.0307 36.9768 35.131C37.4869 35.311 38.0156 35.4321 38.5527 35.4918L36.4215 43.2364C36.1802 43.3404 35.9835 43.527 35.8662 43.7632C35.7489 43.9993 35.7186 44.2698 35.7805 44.5267C36.2915 46.1481 37.3977 47.5142 38.8737 48.3466C40.3496 49.1789 42.0841 49.4147 43.7234 49.006C45.3627 48.5973 46.7835 47.5748 47.6959 46.1469C48.6083 44.7191 48.9437 42.9936 48.6337 41.3221C48.5677 41.0661 48.4139 40.8415 48.1995 40.6881C47.985 40.5347 47.7238 40.4623 47.4619 40.4837L42.0429 34.7516C43.1333 33.9783 44.0527 32.9868 44.7437 31.839C45.5277 30.7113 46.2241 29.738 47.1906 29.5703C47.7481 29.5079 48.3117 29.6193 48.805 29.8896L51.889 42.2587C51.4688 42.5892 51.153 43.0351 50.9797 43.5426C50.8063 44.0501 50.7827 44.5977 50.9117 45.1193L51.7511 48.4858L47.0342 49.6619C46.4889 49.7984 46.0204 50.147 45.7315 50.6313C45.4426 51.1155 45.3569 51.6958 45.4932 52.2447L45.7397 53.2334C45.856 53.6983 46.1508 54.0983 46.5595 54.3458C46.9681 54.5932 47.4573 54.6678 47.9195 54.5533L63.2827 50.7228C63.7447 50.607 64.1417 50.3115 64.3866 49.9011C64.6314 49.4907 64.7041 48.999 64.5888 48.5338L64.3423 47.5451C64.2049 46.9964 63.8568 46.5243 63.3744 46.2324C62.8919 45.9405 62.3146 45.8526 61.769 45.988L57.1261 47.1457L56.2867 43.7791C56.1558 43.258 55.8779 42.7856 55.4865 42.4189C55.0951 42.0522 54.607 41.8068 54.0809 41.7122L50.9587 29.1899C51.249 28.8088 51.6399 28.5177 52.0872 28.3494C53.0504 28.0361 54.0936 28.5767 55.3131 29.2049C56.4621 29.8936 57.7393 30.3371 59.0649 30.5077L56.9713 38.1128C56.73 38.2168 56.5333 38.4034 56.416 38.6396C56.2986 38.8757 56.2683 39.1462 56.3302 39.4032C56.8412 41.0246 57.9475 42.3907 59.4234 43.223C60.8993 44.0553 62.6338 44.2912 64.2731 43.8825C65.9125 43.4737 67.3332 42.4512 68.2456 41.0234C69.158 39.5956 69.4934 37.87 69.1834 36.1985C69.1175 35.9425 68.9637 35.718 68.7492 35.5645C68.5348 35.4111 68.2736 35.3387 68.0117 35.3601ZM44.9107 41.079L38.9534 42.5643L40.6129 36.5328L44.9107 41.079ZM43.173 46.8005C42.2988 47.0427 41.3703 47.0031 40.5181 46.6873C39.6658 46.3714 38.9327 45.7951 38.4219 45.0395L46.5423 43.0149C46.4458 43.9221 46.0689 44.7752 45.4646 45.4542C44.8602 46.1333 44.0588 46.6041 43.173 46.8005ZM62.2843 48.629L47.8192 52.2356L47.719 51.8339L62.1841 48.2273L62.2843 48.629ZM53.9431 47.9393L53.1037 44.5727C53.0714 44.4407 53.0924 44.3014 53.1621 44.1853C53.2318 44.0691 53.3445 43.9856 53.4755 43.9529C53.6065 43.9202 53.7452 43.9411 53.8613 44.011C53.9773 44.0808 54.0613 44.1939 54.0948 44.3256L54.9342 47.6922L53.9431 47.9393ZM65.4607 35.9553L59.5033 37.4406L61.1637 31.4089L65.4607 35.9553ZM63.7237 41.6766C62.8494 41.9191 61.9208 41.8796 61.0684 41.5637C60.2159 41.2479 59.4827 40.6716 58.9717 39.9159L67.092 37.8913C66.9957 38.7983 66.6189 39.6512 66.0147 40.3303C65.4105 41.0093 64.6093 41.4801 63.7237 41.6766Z" fill="#259EA6"/>
</svg>
