<svg width="165" height="83" viewBox="0 0 165 83" fill="none" xmlns="http://www.w3.org/2000/svg">
<path d="M97.544 3.04155C98.3376 3.35916 99.1103 3.28366 99.9359 3.04804C106.824 1.07916 113.684 0.539441 120.544 1.4417C128.669 2.5102 136.545 4.2926 143.797 8.2737C147.603 10.3614 151.314 12.5921 154.78 15.2747C155.175 15.5796 155.553 16.1834 156.11 15.8381C156.822 15.3976 156.436 14.6375 156.411 14.0243C156.345 12.4581 156.144 10.9083 156.161 9.33518C156.173 8.15028 157.07 6.96757 157.847 6.84234C158.91 6.66838 159.161 7.60246 159.486 8.40376C159.636 8.76763 159.78 9.13985 159.897 9.52038C161.219 13.7957 162.519 18.0811 163.862 22.3494C164.362 23.9468 164.234 25.4422 163.097 26.7807C161.983 28.0929 160.688 28.0432 159.355 27.5982C154.704 26.0542 150.044 24.5378 145.39 22.996C144.767 22.7896 144.151 22.5375 143.584 22.2063C142.993 21.86 142.525 21.319 142.717 20.443C142.914 19.5446 143.585 19.2748 144.287 19.2167C144.952 19.1604 145.617 19.2405 146.283 19.1982C146.994 19.1569 147.707 19.4854 148.47 19.0375C148.286 18.1669 147.611 17.9944 147.086 17.6429C139.952 12.8671 132.135 9.86736 123.746 8.41407C118.533 7.51067 113.277 6.90738 107.871 7.77129C107.4 7.84783 106.795 7.65077 106.529 8.5605C108.416 10.4499 110.207 12.4852 111.856 14.6818C121.308 27.2818 116.853 45.987 105.43 54.4257C103.038 56.1926 100.613 57.9146 97.976 59.0331C91.0949 61.9475 84.3424 61.9931 78.167 58.4609C66.4541 51.7547 66.6238 34.5856 71.2998 25.405C74.8267 18.475 80.031 13.3684 86.1194 9.35425C87.0915 8.71265 88.1911 8.32176 89.1453 7.36673C88.6923 6.79978 88.3125 6.77306 87.9583 6.71382C82.6319 5.83088 77.2401 5.8079 71.797 6.98777C59.5638 9.64287 48.1973 15.2162 37.6259 23.1271C30.6644 28.335 24.5787 34.8035 18.9562 41.7637C11.6424 50.829 5.97468 60.9077 2.93717 72.5035C2.20309 75.3015 1.65947 78.0977 2.68794 80.7962C2.88479 81.3124 3.22089 81.8919 2.60305 82.3331C1.93884 82.8067 1.49806 82.2745 1.12945 81.7663C0.715293 81.1986 0.521725 80.5023 0.350311 79.7928C-0.0531172 78.1181 -0.0843704 76.3855 0.156984 74.6271C1.26986 66.5215 3.94946 58.9075 7.97914 51.857C16.9548 36.1631 28.4276 23.2031 42.7584 13.6878C52.9793 6.89774 63.7822 2.02271 75.3862 0.577271C83.0488 -0.379901 90.4883 0.205267 97.544 3.04155ZM96.3171 10.9181C89.5109 13.7855 83.3561 17.7674 78.3506 24.047C72.9546 30.8158 71.7803 41.498 75.8679 48.4219C78.1579 52.3004 81.5335 54.4335 85.679 55.0482C90.2095 55.7188 94.6788 55.0158 98.9341 52.2635C102.287 50.094 105.465 47.7023 107.785 44.0834C108.786 42.5219 109.519 40.8375 109.953 39.3308C112.446 31.9833 111.857 25.5759 108.099 19.8613C105.84 16.4271 103.151 13.5202 99.8771 11.2944C98.7733 10.5426 97.6643 10.3529 96.3171 10.9181Z" fill="white"/>
</svg>
