<svg width="49" height="48" viewBox="0 0 49 48" fill="none" xmlns="http://www.w3.org/2000/svg">
<path fill-rule="evenodd" clip-rule="evenodd" d="M5.50252 23.6507C7.30988 17.9922 7.59466 12.4439 8.16188 6.61807C8.27249 5.48032 7.44152 4.47155 6.30729 4.3598C5.17237 4.248 4.16199 5.08303 4.05069 6.22073C3.51299 11.745 3.28404 17.0211 1.56843 22.3961C1.22117 23.4833 1.82139 24.6488 2.90743 24.9918C3.99233 25.3417 5.15595 24.7379 5.50252 23.6507Z" fill="#259EA6"/>
<path fill-rule="evenodd" clip-rule="evenodd" d="M16.767 35.6225C26.9669 27.4999 36.7831 16.826 43.8831 5.85672C44.5024 4.8985 44.2288 3.61723 43.2719 3.0001C42.3149 2.38298 41.0352 2.65461 40.4159 3.61283C33.5504 14.2186 24.0568 24.542 14.1943 32.3909C13.3027 33.1029 13.1555 34.4038 13.8655 35.2938C14.5755 36.1839 15.8754 36.3345 16.767 35.6225Z" fill="#259EA6"/>
<path fill-rule="evenodd" clip-rule="evenodd" d="M18.5468 45.3739C27.2302 47.4211 36.4506 45.5654 44.6742 42.6138C45.7474 42.2246 46.3054 41.0415 45.9207 39.9735C45.5358 38.8985 44.3518 38.3418 43.2792 38.7241C35.7895 41.4153 27.4034 43.2175 19.4947 41.3541C18.3852 41.0923 17.2722 41.7823 17.0112 42.8891C16.7496 43.9959 17.438 45.1121 18.5468 45.3739Z" fill="#259EA6"/>
</svg>
