<svg width="73" height="100" viewBox="0 0 73 100" fill="none" xmlns="http://www.w3.org/2000/svg">
<path d="M51.5193 87.0054L0.32845 98.8237C-2.11595 99.388 -4.564 97.8551 -5.12942 95.406L-21.9747 22.441C-22.5401 19.992 -21.0118 17.541 -18.5674 16.9767L24.0705 7.13292C24.4089 7.05479 24.7648 7.1147 25.0595 7.29923L39.4769 16.3274C39.7716 16.5119 39.9813 16.8062 40.0596 17.1453L54.9265 81.541C55.492 83.9901 53.9637 86.441 51.5193 87.0054ZM-17.9769 19.5344C-19.0134 19.7737 -19.6616 20.8132 -19.4219 21.8517L-2.57657 94.8166C-2.33683 95.8551 -1.29851 96.5053 -0.262045 96.266L50.9288 84.4477C51.9652 84.2084 52.6134 83.1688 52.3737 82.1304L37.629 18.2642L24.1325 9.81266L-17.9769 19.5344Z" fill="#259EA6"/>
<path d="M39.0785 18.7199L27.3694 21.4231C26.6645 21.5859 25.9608 21.1452 25.7978 20.439L23.0894 8.70754C22.97 8.1905 23.1733 7.65224 23.6044 7.34421C24.0346 7.03508 24.609 7.01822 25.0595 7.3003L39.4769 16.3285C39.9266 16.6101 40.1626 17.1344 40.0754 17.6583C39.9882 18.1817 39.5945 18.6007 39.0785 18.7199ZM28.0554 18.5707L35.4066 16.8736L26.3549 11.2054L28.0554 18.5707Z" fill="#259EA6"/>
<path d="M34.6687 28.4125L-8.08328 38.2826C-8.78818 38.4453 -9.4919 38.0046 -9.65495 37.2984C-9.818 36.5921 -9.37867 35.8876 -8.67377 35.7248L34.0782 25.8548C34.7831 25.692 35.4868 26.1327 35.6499 26.8389C35.8129 27.5452 35.3736 28.2498 34.6687 28.4125Z" fill="#259EA6"/>
<path d="M24.7775 40.3343L-5.97 47.433C-6.6749 47.5957 -7.37862 47.155 -7.54167 46.4488C-7.70472 45.7425 -7.26539 45.038 -6.56049 44.8752L24.187 37.7766C24.8919 37.6139 25.5956 38.0545 25.7587 38.7608C25.9217 39.467 25.4824 40.1716 24.7775 40.3343Z" fill="#259EA6"/>
<path d="M38.8942 46.7113L-3.85775 56.5814C-4.56265 56.7441 -5.26637 56.3035 -5.42942 55.5972C-5.59247 54.891 -5.15315 54.1864 -4.44825 54.0237L38.3037 44.1536C39.0086 43.9909 39.7123 44.4315 39.8754 45.1378C40.0384 45.844 39.5991 46.5486 38.8942 46.7113Z" fill="#259EA6"/>
<path d="M29.0021 58.6332L-1.74545 65.7318C-2.45035 65.8945 -3.15407 65.4539 -3.31712 64.7476C-3.48017 64.0414 -3.04084 63.3368 -2.33595 63.1741L28.4116 56.0754C29.1165 55.9127 29.8202 56.3534 29.9832 57.0596C30.1463 57.7659 29.707 58.4704 29.0021 58.6332Z" fill="#259EA6"/>
<path d="M43.1179 65.0101L0.36594 74.8802C-0.338958 75.043 -1.04268 74.6023 -1.20573 73.896C-1.36878 73.1898 -0.929454 72.4852 -0.224556 72.3225L42.5274 62.4524C43.2323 62.2897 43.936 62.7304 44.0991 63.4366C44.2621 64.1429 43.8228 64.8474 43.1179 65.0101Z" fill="#259EA6"/>
<path d="M68.9726 71.0154L57.3315 73.703C56.6266 73.8657 55.9229 73.4251 55.7598 72.7188L42.763 16.4234C42.6 15.7171 43.0393 15.0126 43.7442 14.8498L55.3853 12.1623C56.0902 11.9995 56.7939 12.4402 56.957 13.1465L69.9538 69.4419C70.1168 70.1481 69.6775 70.8527 68.9726 71.0154ZM58.0174 70.8506L67.1057 68.7524L54.6994 15.0147L45.6111 17.1129L58.0174 70.8506Z" fill="#259EA6"/>
<path d="M65.7734 83.7129C65.2948 83.8234 64.7948 83.6566 64.4776 83.2807L56.0352 73.2683C55.7405 72.9187 55.6485 72.4407 55.7926 72.0069C55.9367 71.5731 56.2956 71.2455 56.7406 71.1428L68.3817 68.4552C68.8267 68.3525 69.293 68.4895 69.6126 68.8163C69.9322 69.1431 70.0591 69.613 69.9475 70.0564L66.7487 82.7563C66.6284 83.2333 66.2521 83.6024 65.7734 83.7129ZM59.4215 73.2179L64.8319 79.6346L66.8818 71.4956L59.4215 73.2179Z" fill="#259EA6"/>
<path d="M63.152 72.3612C62.4471 72.5239 61.7434 72.0833 61.5803 71.377L48.5835 15.0816C48.4205 14.3753 48.8598 13.6708 49.5647 13.508C50.2696 13.3453 50.9733 13.786 51.1364 14.4922L64.1332 70.7877C64.2962 71.4939 63.8569 72.1985 63.152 72.3612Z" fill="#259EA6"/>
<path d="M55.9757 14.7189L44.3346 17.4064C43.6297 17.5692 42.926 17.1285 42.763 16.4223L41.8477 12.4577C41.3592 10.3421 42.6796 8.22454 44.7912 7.73704L51.3266 6.22822C53.4382 5.74072 55.5532 7.06513 56.0416 9.18075L56.9569 13.1453C57.1199 13.8516 56.6806 14.5561 55.9757 14.7189ZM45.0205 14.554L54.1088 12.4558L53.4888 9.77011C53.326 9.06512 52.6207 8.62349 51.9171 8.78594L45.3817 10.2948C44.678 10.4572 44.2377 11.1633 44.4005 11.8683L45.0205 14.554Z" fill="#259EA6"/>
<path d="M42.9128 81.4219C42.6143 81.4908 42.3048 81.5267 41.985 81.5289C39.9291 81.5411 37.8428 80.1022 36.4045 77.6797L36.3045 77.5081C36.3101 77.6916 36.3254 77.8887 36.3519 78.0944C36.4074 78.5196 36.4678 78.9773 36.367 79.4452C36.1664 80.3873 35.4507 80.765 35.2156 80.8896C33.5069 81.7945 32.0967 81.6459 31.0247 80.4464C30.5297 81.1625 29.8222 81.6099 28.9867 81.6989C27.7676 81.8324 26.516 81.1512 25.6389 79.8771L25.6012 79.822C25.3692 80.0169 25.068 80.1312 24.7405 80.1259C24.0168 80.1134 23.4403 79.5158 23.4516 78.791C23.461 78.2206 23.4739 77.4402 23.9406 76.8431C24.2783 76.4119 24.7722 76.1769 25.2948 76.1943C26.3436 76.233 26.991 77.1945 27.6168 78.1254L27.7956 78.388C28.1711 78.934 28.5425 79.1067 28.7008 79.0899C28.7997 79.0691 28.9027 78.9381 28.987 78.7286L29.046 78.5775C29.2178 78.1274 29.5367 77.2908 30.4435 77.0814C30.4479 77.0804 30.4516 77.0796 30.4553 77.0787C31.5936 76.8251 32.2879 77.7738 32.7024 78.341C32.7867 78.4558 32.8691 78.5709 32.9527 78.6687C33.1114 78.8557 33.2002 78.9562 33.7848 78.6732C33.7769 78.6106 33.7685 78.5455 33.7618 78.4911C33.6868 77.9158 33.4204 75.2977 34.6936 74.227C35.1825 73.8169 35.8182 73.6898 36.4361 73.8839C37.4114 74.1902 37.9771 75.1672 38.4755 76.0295L38.6559 76.3391C39.7838 78.2387 41.1059 78.9095 41.9672 78.904C42.5732 78.9016 43.0806 78.5628 43.4643 77.8961C43.8259 77.2673 44.6281 77.0539 45.2533 77.416C45.8805 77.7783 46.0954 78.5811 45.7341 79.2084C45.0532 80.391 44.0714 81.1544 42.9128 81.4219Z" fill="#259EA6"/>
</svg>
