<svg width="23" height="23" viewBox="0 0 23 23" fill="none" xmlns="http://www.w3.org/2000/svg">
<path fill-rule="evenodd" clip-rule="evenodd" d="M18.8213 3.53569C18.9971 3.5294 19.1681 3.59318 19.2968 3.713C19.4256 3.83283 19.5014 3.99888 19.5077 4.17463L19.7925 12.1266C19.7988 12.3024 19.735 12.4734 19.6152 12.6021C19.4954 12.7309 19.3293 12.8067 19.1536 12.813C18.9778 12.8193 18.8068 12.7555 18.6781 12.6357C18.5493 12.5159 18.4735 12.3498 18.4672 12.1741L18.2397 5.82176L5.27508 19.7514C5.21567 19.8153 5.14428 19.8667 5.06498 19.903C4.98568 19.9392 4.90002 19.9594 4.81289 19.9626C4.72576 19.9657 4.63887 19.9516 4.55718 19.9212C4.47549 19.8907 4.4006 19.8444 4.33678 19.785C4.27297 19.7256 4.22148 19.6542 4.18525 19.5749C4.14902 19.4956 4.12877 19.41 4.12565 19.3228C4.12253 19.2357 4.1366 19.1488 4.16706 19.0671C4.19752 18.9854 4.24378 18.9105 4.30318 18.8467L17.2692 4.91831L10.9172 5.14578C10.7414 5.15207 10.5704 5.08829 10.4416 4.96847C10.3129 4.84865 10.2371 4.6826 10.2308 4.50684C10.2245 4.3311 10.2883 4.16004 10.4081 4.03132C10.5279 3.90259 10.6939 3.82674 10.8697 3.82045L18.8213 3.53569Z" fill="white"/>
</svg>
