<svg width="40" height="40" viewBox="0 0 40 40" fill="none" xmlns="http://www.w3.org/2000/svg">
<g opacity="0.4">
<circle cx="20" cy="20" r="19.25" stroke="#755BE2" stroke-width="1.5"/>
<path d="M22.0645 6.38866C25.2863 3.16683 30.51 3.16683 33.7318 6.38866C36.9536 9.61048 36.9536 14.8341 33.7318 18.0559L18.1754 33.6123C14.9536 36.8341 9.72999 36.8341 6.50817 33.6123C3.28634 30.3904 3.28634 25.1668 6.50817 21.945L22.0645 6.38866Z" stroke="#755BE2" stroke-width="1.5"/>
<path d="M29.0228 6.38622C30.3233 5.08578 32.4317 5.08578 33.7321 6.38622C35.0326 7.68667 35.0326 9.79511 33.7321 11.0956L11.2179 33.6098C9.91742 34.9103 7.80898 34.9103 6.50854 33.6098C5.20809 32.3094 5.20809 30.2009 6.50854 28.9005L29.0228 6.38622Z" stroke="#755BE2" stroke-width="1.5"/>
<path d="M6.50817 18.0559C3.28634 14.8341 3.28634 9.61048 6.50816 6.38866C9.72999 3.16683 14.9536 3.16683 18.1754 6.38866L33.7318 21.945C36.9536 25.1668 36.9536 30.3904 33.7318 33.6123C30.51 36.8341 25.2863 36.8341 22.0645 33.6123L6.50817 18.0559Z" stroke="#755BE2" stroke-width="1.5"/>
<path d="M6.50854 11.0956C5.20809 9.79511 5.20809 7.68667 6.50854 6.38622C7.80898 5.08578 9.91742 5.08578 11.2179 6.38622L33.7322 28.9005C35.0326 30.2009 35.0326 32.3094 33.7322 33.6098C32.4317 34.9103 30.3233 34.9103 29.0228 33.6098L6.50854 11.0956Z" stroke="#755BE2" stroke-width="1.5"/>
</g>
</svg>
