<svg width="67" height="60" viewBox="0 0 67 60" fill="none" xmlns="http://www.w3.org/2000/svg">
<circle cx="18.75" cy="41.25" r="18.75" fill="#F4462F"/>
<path d="M13.9202 2.44434C13.4916 2.4442 13.0725 2.57127 12.7161 2.80949C12.3596 3.04771 12.0817 3.38638 11.9176 3.78264C11.7535 4.17891 11.7105 4.61497 11.7941 5.03568C11.8777 5.45639 12.0841 5.84284 12.3872 6.14615C12.6903 6.44945 13.0765 6.656 13.497 6.73964C13.9174 6.82329 14.3531 6.78029 14.7491 6.61607C15.1451 6.45186 15.4836 6.17381 15.7216 5.8171C15.9597 5.46039 16.0867 5.04104 16.0865 4.61209C16.0856 4.03746 15.8571 3.48663 15.451 3.0803C15.045 2.67397 14.4945 2.44528 13.9202 2.44434ZM13.9202 5.22443C13.7988 5.22457 13.68 5.18865 13.5789 5.12122C13.4778 5.05378 13.399 4.95787 13.3524 4.8456C13.3058 4.73333 13.2936 4.60976 13.3172 4.49052C13.3408 4.37127 13.3992 4.26172 13.4851 4.17571C13.5709 4.08971 13.6803 4.03111 13.7995 4.00735C13.9186 3.98358 14.0421 3.9957 14.1544 4.04219C14.2666 4.08868 14.3625 4.16744 14.4301 4.2685C14.4976 4.36957 14.5336 4.48839 14.5336 4.60996C14.5338 4.69074 14.5181 4.77078 14.4873 4.84549C14.4566 4.92019 14.4115 4.98812 14.3545 5.04537C14.2976 5.10263 14.2299 5.1481 14.1554 5.17919C14.0809 5.21028 14.001 5.22638 13.9202 5.22657V5.22443ZM66.2496 45.7118C66.2568 45.4315 66.171 45.1567 66.0056 44.9304C65.8403 44.7041 65.6047 44.5389 65.3356 44.4607L54.6246 41.1417C54.2828 41.0344 53.9241 40.9916 53.5667 41.0156C52.7946 38.7751 51.6957 36.6612 50.3055 34.7425C52.129 31.1714 53.0057 27.1916 52.8519 23.1842C52.6981 19.1769 51.5188 15.2761 49.427 11.8554C47.3352 8.43477 44.4009 5.60872 40.905 3.64787C37.4091 1.68702 33.4687 0.657038 29.4611 0.656528C26.1842 0.648817 22.9429 1.33562 19.9504 2.67174L17.1679 0.196032C17.0258 0.069714 16.8423 -3.62656e-05 16.6522 1.41457e-08H11.1891C10.999 0.000227947 10.8156 0.0699439 10.6733 0.196032L1.96113 7.94392H1.88989C1.38884 7.94449 0.908463 8.14392 0.554162 8.49846C0.199861 8.853 0.000565635 9.3337 0 9.8351V10.95C0 11.1561 0.0818068 11.3537 0.227424 11.4994C0.373041 11.6451 0.57054 11.727 0.776474 11.727H4.3454V12.9531C4.34562 13.2316 4.427 13.5041 4.57959 13.737C4.73218 13.97 4.94935 14.1534 5.20451 14.2647V20.5605C4.9497 20.6701 4.73255 20.852 4.57987 21.0837C4.4272 21.3154 4.34569 21.5868 4.3454 21.8643V22.6292H3.40366C2.82042 22.6298 2.26123 22.8619 1.84881 23.2746C1.4364 23.6873 1.20446 24.2468 1.20389 24.8305V26.2561C1.20389 26.4622 1.2857 26.6599 1.43131 26.8056C1.57693 26.9513 1.77443 27.0331 1.98036 27.0331H6.23957C6.87022 31.9945 9.07076 36.6238 12.5193 40.2438C15.9679 43.8639 20.4835 46.2848 25.4056 47.1524C25.4185 47.2674 25.4327 47.3815 25.4484 47.4946C26.0411 51.5628 29.8729 54.5624 35.7413 55.5868C35.8196 55.7425 35.9279 55.8812 36.06 55.995C36.192 56.1087 36.3451 56.1953 36.5106 56.2497L47.2153 59.8489C47.512 59.9483 47.8228 59.9993 48.1357 60C48.5641 59.9992 48.9868 59.9017 49.3723 59.7149L65.5429 51.8436C65.7338 51.7551 65.8988 51.6192 66.0225 51.4489C66.1462 51.2787 66.2243 51.0796 66.2496 50.8706C66.2496 50.8464 66.2496 50.8221 66.2496 50.7993V45.7118ZM64.6966 48.072L61.2631 49.7458V48.8497L64.6959 47.1795L64.6966 48.072ZM48.4947 44.8984L58.4848 48.4705L55.4452 49.9489L45.3867 46.3533L48.4947 44.8984ZM57.6663 46.5273L54.0276 45.2263L57.8843 46.4211L57.6663 46.5273ZM43.3899 47.2886L44.1343 47.5545L42.2516 48.4363C42.1536 48.4823 42.0663 48.5483 41.9953 48.63C41.9243 48.7117 41.8711 48.8074 41.8392 48.9109C41.8073 49.0143 41.7973 49.1233 41.8099 49.2309C41.8226 49.3385 41.8575 49.4422 41.9125 49.5355C41.8585 49.7271 41.8802 49.9322 41.973 50.1084C42.0658 50.2845 42.2226 50.4183 42.4111 50.4821L47.949 52.3441C48.0947 52.3926 48.2515 52.3969 48.3996 52.3566C48.5478 52.3163 48.6807 52.2331 48.7818 52.1174C48.8959 52.2009 49.0307 52.2517 49.1715 52.2642C49.3123 52.2768 49.4539 52.2507 49.581 52.1887L52.7639 50.6389L53.4905 50.8984L48.6913 53.2323C48.5391 53.308 48.3732 53.3522 48.2036 53.3622C48.0339 53.3723 47.864 53.3479 47.704 53.2907L37.7409 49.9339L43.3899 47.2886ZM50.7201 49.909L49.284 50.6083C49.1091 50.5446 48.9244 50.5123 48.7383 50.5128C48.471 50.5111 48.2081 50.5802 47.9761 50.7131L43.947 49.3587L46.2123 48.298L50.7201 49.909ZM45.3297 44.6653L40.6723 46.8466V46.7518C41.2006 46.6537 41.6811 46.3818 42.0375 45.9793C42.3938 45.5767 42.6056 45.0666 42.6391 44.5299C42.6391 43.1755 41.2728 42.648 40.175 42.2245C39.5895 41.9993 38.7047 41.6586 38.7047 41.3691C38.7047 41.0084 39.1934 40.6057 39.8958 40.6057C40.5526 40.6057 41.0868 40.9657 41.0868 41.4091C41.0868 41.6151 41.1687 41.8128 41.3143 41.9585C41.4599 42.1042 41.6574 42.1861 41.8633 42.1861C42.0693 42.1861 42.2668 42.1042 42.4124 41.9585C42.558 41.8128 42.6398 41.6151 42.6398 41.4091C42.6164 40.8646 42.409 40.3443 42.0515 39.9331C41.6941 39.522 41.2078 39.2444 40.6723 39.1458V38.4401C40.6723 38.234 40.5905 38.0364 40.4448 37.8906C40.2992 37.7449 40.1017 37.6631 39.8958 37.6631C39.6898 37.6631 39.4924 37.7449 39.3467 37.8906C39.2011 38.0364 39.1193 38.234 39.1193 38.4401V39.1479C38.5909 39.2458 38.1103 39.5176 37.7539 39.92C37.3974 40.3224 37.1855 40.8324 37.1518 41.3691C37.1518 42.7235 38.5188 43.2518 39.6165 43.6745C40.2021 43.9004 41.0868 44.2447 41.0868 44.5299C41.0868 44.8913 40.5975 45.294 39.8958 45.294C39.239 45.294 38.7047 44.9333 38.7047 44.4907C38.7047 44.2846 38.6229 44.087 38.4773 43.9412C38.3317 43.7955 38.1342 43.7137 37.9282 43.7137C37.7223 43.7137 37.5248 43.7955 37.3792 43.9412C37.2336 44.087 37.1518 44.2846 37.1518 44.4907C37.1758 45.0346 37.3833 45.5543 37.7405 45.965C38.0978 46.3757 38.5835 46.653 39.1186 46.7518V47.4568C39.1188 47.495 39.1219 47.5331 39.1279 47.5709L37.7323 48.2238C36.7082 47.8034 35.8285 47.0937 35.2009 46.1812C34.5732 45.2687 34.2247 44.1931 34.1979 43.0857C34.1711 41.9783 34.4672 40.8871 35.0501 39.9453C35.6329 39.0035 36.4772 38.252 37.4798 37.7825C38.4825 37.313 39.6 37.1459 40.696 37.3016C41.792 37.4573 42.819 37.929 43.6515 38.6591C44.484 39.3893 45.0859 40.3462 45.3838 41.4131C45.6817 42.4799 45.6626 43.6105 45.329 44.6667L45.3297 44.6653ZM37.1852 51.3853L47.2139 54.7649C47.5121 54.8667 47.8249 54.9192 48.1399 54.9203C48.5676 54.9195 48.9894 54.8207 49.373 54.6316L54.4764 52.1495V53.0434L48.6942 55.8555C48.542 55.9312 48.3761 55.9754 48.2064 55.9855C48.0368 55.9955 47.8669 55.9712 47.7068 55.914L37.1852 52.3669V51.3853ZM56.0322 51.3938L59.7073 49.6032V52.9535L56.0286 54.7442L56.0322 51.3938ZM54.1687 42.6259L64.1488 45.7182L60.4445 47.5195L59.7065 47.2558C59.8761 47.1421 59.9942 46.9662 60.0352 46.7661C60.0763 46.5661 60.037 46.3579 59.926 46.1865C59.9704 45.9952 59.9409 45.794 59.8432 45.6236C59.7455 45.4531 59.587 45.326 59.3995 45.2677L53.925 43.5711C53.7808 43.5265 53.6268 43.5248 53.4817 43.5664C53.3366 43.6079 53.2067 43.6908 53.1079 43.8049C52.9956 43.7222 52.8631 43.6714 52.7243 43.6577C52.5855 43.644 52.4456 43.6681 52.3194 43.7272L51.2394 44.2326L50.4957 43.9667L53.2219 42.6886C53.5165 42.5469 53.8544 42.5244 54.1651 42.6259H54.1687ZM46.7166 30.998C47.1481 31.2878 47.6513 31.4526 48.1706 31.4742C48.468 31.4745 48.7612 31.4033 49.0254 31.2667C49.1188 31.2219 49.2022 31.1588 49.2708 31.0812C49.3395 31.0035 49.3919 30.913 49.425 30.8148C49.4581 30.7166 49.4713 30.6128 49.4637 30.5094C49.4561 30.4061 49.428 30.3053 49.3809 30.213C49.3338 30.1207 49.2687 30.0387 49.1895 29.972C49.1103 29.9052 49.0185 29.855 48.9196 29.8242C48.8207 29.7935 48.7167 29.7829 48.6136 29.793C48.5105 29.8031 48.4105 29.8337 48.3195 29.8831C47.9939 30.0485 47.2274 29.5858 46.5343 28.8067C46.3038 28.5384 45.9996 28.3438 45.6595 28.2471C45.9829 27.7995 46.307 27.5671 46.5058 27.5671C46.7779 27.5708 47.0497 27.5884 47.32 27.6198C48.1898 27.7082 49.2726 27.8166 50.0662 26.3281C50.1176 26.2379 50.1504 26.1382 50.1627 26.0351C50.1749 25.9319 50.1664 25.8273 50.1375 25.7275C50.1087 25.6277 50.0602 25.5347 49.9948 25.454C49.9294 25.3733 49.8485 25.3065 49.7569 25.2576C49.6652 25.2088 49.5647 25.1788 49.4613 25.1694C49.3579 25.1601 49.2537 25.1716 49.1548 25.2033C49.0559 25.235 48.9644 25.2862 48.8857 25.3539C48.8069 25.4216 48.7425 25.5044 48.6963 25.5975C48.3928 26.1678 48.2888 26.1563 47.476 26.0744C47.1539 26.0372 46.83 26.017 46.5058 26.0138C46.4216 26.0139 46.3376 26.0198 46.2543 26.0316C46.6076 25.6973 46.8954 25.2998 47.1027 24.8597H51.3007C51.1953 27.8126 50.4945 30.7138 49.2405 33.3889C48.4966 32.4949 47.6493 31.6924 46.7166 30.998ZM20.6214 36.7378C23.1665 35.6121 25.9036 34.9851 28.6846 34.8908V35.9209C27.0056 38.469 25.8997 41.3516 25.4434 44.3695C23.4901 42.7791 21.8232 40.0931 20.6214 36.7378ZM24.1341 45.2969C20.7106 44.447 17.545 42.7766 14.9104 40.4296C16.2168 39.2604 17.6588 38.2524 19.2053 37.4271C20.4327 40.7953 22.1231 43.5283 24.1341 45.2969ZM8.46214 14.3852V20.4443H6.75746V14.3887L8.46214 14.3852ZM10.0151 20.5605V14.2647C10.2703 14.1534 10.4876 13.97 10.6403 13.7371C10.793 13.5041 10.8745 13.2317 10.8749 12.9531V12.5753C11.0523 12.2901 11.2361 12.005 11.427 11.727H16.9684V12.9531C16.9688 13.2317 17.0502 13.5042 17.2028 13.7372C17.3554 13.9703 17.5724 14.1538 17.8275 14.2654V20.5605C17.5727 20.6701 17.3555 20.8519 17.2028 21.0836C17.0501 21.3153 16.9686 21.5868 16.9684 21.8643V22.6292H10.8721V21.8643C10.8718 21.5867 10.7902 21.3152 10.6374 21.0835C10.4846 20.8518 10.2672 20.6699 10.0122 20.5605H10.0151ZM25.9527 7.94321H25.8815L23.5079 5.83462C24.7033 4.24783 26.4542 2.58619 28.6832 2.26399V13.2717C26.927 13.2109 25.1846 12.9383 23.4937 12.4598V11.727H27.0626C27.2684 11.7268 27.4657 11.6448 27.6112 11.4992C27.7567 11.3535 27.8384 11.1559 27.8384 10.95V9.8351C27.8378 9.33395 27.6387 8.85346 27.2847 8.49896C26.9307 8.14446 26.4507 7.94487 25.9499 7.94392L25.9527 7.94321ZM44.0189 25.8028C43.7019 26.0166 43.3778 26.2376 43.0929 26.4778H36.1744C35.9336 26.254 35.6672 26.0501 35.4072 25.8456C34.2097 24.9189 33.3186 24.2303 34.3287 22.2307C36.3005 22.8131 37.062 22.2949 37.5592 21.3333L37.5692 21.314C37.8755 21.4088 38.1313 21.4922 38.3528 21.5628C38.834 21.7961 39.3618 21.9173 39.8965 21.9173C40.4312 21.9173 40.959 21.7961 41.4402 21.5628C41.6596 21.4915 41.916 21.4088 42.2238 21.314L42.2338 21.3333C42.7324 22.2942 43.4911 22.8131 45.4615 22.2322C46.4118 24.1804 45.3902 24.8732 44.0189 25.8028ZM39.8922 20.3645C39.5259 20.3157 39.167 20.2219 38.8237 20.0851C38.5936 20.0102 38.325 19.9225 37.9981 19.8213C37.8263 19.7509 37.6422 19.7158 37.4567 19.718C37.2711 19.7202 37.0879 19.7596 36.9179 19.834C36.7478 19.9084 36.5945 20.0163 36.4669 20.1511C36.3393 20.2859 36.2401 20.445 36.1751 20.619C36.0505 20.8606 36.027 20.8763 35.9571 20.8963C35.3593 20.9483 34.7588 20.8323 34.2233 20.5612C34.0541 20.4997 33.8688 20.4989 33.6991 20.559C33.5294 20.6191 33.3858 20.7363 33.2929 20.8906C32.8204 21.622 32.505 22.4437 32.3668 23.3036H30.2376V14.825C33.1877 14.7311 36.0933 14.078 38.8002 12.9003C39.5101 15.3201 39.9731 17.8057 40.1822 20.3189C40.0876 20.3454 39.9903 20.3608 39.8922 20.3645ZM30.2376 13.2703V2.27041C33.5209 2.74872 36.4622 6.23239 38.3143 11.4212C35.7652 12.5491 33.0233 13.1769 30.2376 13.2703ZM21.9407 12.8312H18.5214V11.7861H21.9407V12.8312ZM19.3762 14.3852H21.0859V20.4443H19.3833L19.3762 14.3852ZM18.5214 21.9991H21.9407V22.6292H18.5214V21.9991ZM22.636 20.5605V14.2647C22.8019 14.1923 22.9527 14.0893 23.0805 13.961C24.9057 14.4768 26.7869 14.7683 28.6825 14.8293V23.3036H26.0176C25.8129 23.0904 25.5674 22.9208 25.2956 22.8049C25.0239 22.689 24.7315 22.6292 24.4361 22.6292H23.4951V21.8643C23.4948 21.5867 23.4133 21.3152 23.2604 21.0835C23.1076 20.8518 22.891 20.6699 22.636 20.5605ZM25.8587 27.0317C26.0646 27.0317 26.2621 26.9499 26.4078 26.8041C26.5534 26.6584 26.6352 26.4608 26.6352 26.2547V24.8575H28.6839V33.3361C25.739 33.4291 22.8384 34.0798 20.1356 35.2537C19.3468 32.5755 18.858 29.8179 18.6781 27.0317H25.8587ZM30.5874 33.3504C30.4705 33.3447 30.3544 33.3375 30.2376 33.3333V24.8575H32.5314C32.9515 25.7628 33.6181 26.5311 34.4548 27.0745C34.5438 27.1458 34.6314 27.2114 34.7162 27.2784C34.661 27.3644 34.6133 27.455 34.5737 27.5492C34.4657 27.8153 34.4258 28.1042 34.4576 28.3897C34.1284 28.615 33.8882 28.9483 33.7787 29.3321C33.6691 29.7158 33.6971 30.1259 33.8578 30.4911C32.6179 31.2577 31.5129 32.2237 30.5874 33.3504ZM35.4314 29.9636C35.3905 29.9609 35.3521 29.9427 35.3241 29.9127C35.296 29.8828 35.2804 29.8432 35.2804 29.8022C35.2804 29.7611 35.296 29.7216 35.3241 29.6916C35.3521 29.6616 35.3905 29.6434 35.4314 29.6407H35.5112C35.6656 29.6407 35.8166 29.5945 35.9446 29.5082C36.0728 29.4219 36.1722 29.2993 36.2303 29.1561C36.2885 29.013 36.3026 28.8557 36.2709 28.7044C36.2393 28.5532 36.1632 28.4148 36.0526 28.307C36.0301 28.2844 36.0147 28.2558 36.0084 28.2245C36.0021 28.1933 36.005 28.1609 36.017 28.1314C36.0289 28.1018 36.0492 28.0764 36.0754 28.0584C36.1017 28.0403 36.1326 28.0303 36.1644 28.0297H43.6243C43.6567 28.0283 43.6887 28.0375 43.7154 28.0559C43.7421 28.0743 43.7621 28.1009 43.7724 28.1316C43.7866 28.1608 43.7907 28.1938 43.7841 28.2255C43.7775 28.2572 43.7607 28.2859 43.7361 28.307C43.6245 28.4146 43.5476 28.5532 43.5153 28.705C43.4831 28.8567 43.497 29.0147 43.5552 29.1585C43.6135 29.3022 43.7134 29.4253 43.8421 29.5117C43.9708 29.5982 44.1225 29.6441 44.2775 29.6436H44.3573C44.3794 29.6421 44.4015 29.6452 44.4224 29.6526C44.4432 29.6601 44.4623 29.6717 44.4785 29.6869C44.4947 29.702 44.5076 29.7203 44.5164 29.7406C44.5252 29.761 44.5297 29.7829 44.5297 29.805C44.5297 29.8272 44.5252 29.8491 44.5164 29.8694C44.5076 29.8898 44.4947 29.9081 44.4785 29.9232C44.4623 29.9383 44.4432 29.95 44.4224 29.9574C44.4015 29.9649 44.3794 29.968 44.3573 29.9665L35.4314 29.9636ZM45.9551 30.4177C46.0748 30.5254 46.2045 30.6316 46.3434 30.7385C46.2009 30.648 46.0648 30.5653 45.9273 30.4876C45.938 30.4662 45.9473 30.4427 45.9558 30.4192L45.9551 30.4177ZM51.2978 23.3021H47.3649C47.2644 22.4409 46.9652 21.6148 46.4908 20.8892C46.3979 20.7349 46.2544 20.6176 46.0847 20.5576C45.915 20.4975 45.7297 20.4983 45.5605 20.5598C45.0251 20.8313 44.4245 20.9473 43.8266 20.8949C43.7554 20.8749 43.734 20.8592 43.6086 20.6176C43.5437 20.4436 43.4446 20.2845 43.317 20.1497C43.1895 20.0149 43.0362 19.9071 42.8663 19.8327C42.6963 19.7583 42.5131 19.7188 42.3276 19.7166C42.1421 19.7144 41.9581 19.7495 41.7864 19.8199L41.6988 19.8477C41.4612 17.2646 40.9631 14.7123 40.2121 12.2295C41.9832 11.3091 43.6298 10.1662 45.1117 8.82856C48.9053 12.7132 51.1127 17.8753 51.3014 23.3036L51.2978 23.3021ZM43.9862 7.75431C42.6852 8.91545 41.2503 9.91696 39.712 10.7376C39.2029 9.31791 38.5665 7.94723 37.8107 6.64227C37.0083 5.23233 35.9879 3.95839 34.7874 2.86777C38.203 3.72945 41.3592 5.40609 43.9862 7.75431ZM24.1305 2.86278C23.4741 3.44972 22.8763 4.09908 22.3453 4.80171L21.2326 3.81228C22.175 3.42781 23.1434 3.11052 24.1305 2.86278ZM11.4847 1.55756H16.3558L23.5414 7.94749H4.29839L11.4847 1.55756ZM1.55295 9.8351C1.55424 9.74607 1.59015 9.66106 1.65306 9.5981C1.71597 9.53515 1.80093 9.49921 1.88989 9.49792H25.9499C26.039 9.49903 26.1241 9.53488 26.1872 9.59786C26.2502 9.66083 26.2863 9.74595 26.2875 9.8351V10.173H1.55295V9.8351ZM9.31768 11.727V12.8312H5.89835V11.727H9.31768ZM5.89835 21.9991H9.31768V22.6292H5.89835V21.9991ZM2.75684 24.8305C2.75703 24.6589 2.82523 24.4943 2.9465 24.373C3.06776 24.2516 3.23217 24.1834 3.40366 24.1832H24.434C24.6055 24.1834 24.7699 24.2516 24.8912 24.373C25.0124 24.4943 25.0806 24.6589 25.0808 24.8305V25.4777H2.75684V24.8305ZM7.80392 27.0317H17.1202C17.303 30.0503 17.8347 33.0375 18.7045 35.9337C16.9253 36.8589 15.2721 38.0089 13.7856 39.3554C10.5194 35.9979 8.42182 31.6763 7.80392 27.0317ZM26.9857 47.2722C26.5818 44.4586 27.542 40.8445 29.6214 37.3573C31.3859 34.3954 33.6612 32.0758 35.3367 31.5119C35.3687 31.5119 35.4015 31.5169 35.4343 31.5169H44.3573C44.3872 31.5169 44.4164 31.5169 44.4463 31.5127C46.7893 32.2932 50.4679 36.6665 52.0921 41.4967L47.0871 43.8413C47.1241 43.5443 47.1429 43.2453 47.1433 42.9459C47.1432 41.6842 46.8142 40.4443 46.1889 39.3486C45.5636 38.253 44.6636 37.3394 43.5778 36.6981C42.4919 36.0568 41.2577 35.7099 39.9969 35.6917C38.7361 35.6735 37.4924 35.9845 36.3885 36.5942C35.2846 37.2039 34.3586 38.0911 33.702 39.1682C33.0453 40.2454 32.6807 41.4752 32.6441 42.7365C32.6076 43.9977 32.9003 45.2466 33.4934 46.3601C34.0865 47.4735 34.9595 48.413 36.0262 49.0857C35.885 49.2114 35.7752 49.3685 35.7058 49.5445C35.6364 49.7204 35.6093 49.9102 35.6266 50.0986V53.9857C30.6714 53.0284 27.4637 50.5563 26.9857 47.2722ZM48.6977 58.3148C48.5452 58.3917 48.3786 58.4367 48.2081 58.447C48.0376 58.4573 47.8668 58.4327 47.7061 58.3747L37.1852 54.8362V54.0071L47.2139 57.386C47.512 57.488 47.8248 57.5407 48.1399 57.5421C48.5676 57.541 48.9893 57.4422 49.373 57.2534L54.4764 54.7713V55.5027L48.6977 58.3148ZM61.2631 52.2008V51.4715L64.7002 49.7999V50.5299L61.2631 52.2008Z" fill="#0A1317"/>
</svg>
