<svg width="79" height="73" viewBox="0 0 79 73" fill="none" xmlns="http://www.w3.org/2000/svg">
<path fill-rule="evenodd" clip-rule="evenodd" d="M14.667 25.2168C16.9433 18.9715 18.355 12.359 19.6757 5.94067C19.9554 4.5579 19.0858 3.18818 17.7293 2.98469C16.3795 2.68142 15.0552 3.58415 14.7831 4.8672C13.5084 11.0884 12.1629 17.5043 9.9761 23.4555C9.50356 24.7233 10.1671 26.1784 11.4609 26.678C12.7537 27.1775 14.1935 26.4846 14.667 25.2168Z" fill="#F4462F"/>
<path fill-rule="evenodd" clip-rule="evenodd" d="M29.9329 42.0058C41.195 32.5328 51.2066 21.661 62.7347 12.4088C63.808 11.5879 63.9833 9.99658 63.1208 8.92807C62.2574 7.85949 60.6855 7.64001 59.6046 8.56066C48.0456 17.8105 38.0041 28.68 26.7111 38.1506C25.6541 39.0731 25.5188 40.667 26.4081 41.7376C27.3041 42.7084 28.8759 42.9282 29.9329 42.0058Z" fill="#F4462F"/>
<path fill-rule="evenodd" clip-rule="evenodd" d="M56.5735 49.6641C50.7015 51.0062 44.8293 52.3478 38.9563 53.6902C37.5993 53.9299 36.7605 55.2973 37.07 56.6643C37.3806 58.0311 38.7096 58.8112 40.0675 58.5713C45.9494 57.2274 51.8304 55.8842 57.7113 54.5405C59.0509 54.2022 59.883 52.8364 59.5655 51.4708C59.2655 50.2037 57.9121 49.326 56.5735 49.6641Z" fill="#F4462F"/>
</svg>
