<svg width="278" height="18" viewBox="0 0 278 18" fill="none" xmlns="http://www.w3.org/2000/svg">
<path d="M36.2209 2.72901C105.598 1.43041 174.849 0.315897 244.358 2.58551C254.812 2.92685 265.272 3.28476 275.711 3.96142C280.533 4.27398 266.19 4.99931 261.39 5.29381C198.866 9.1303 135.892 8.6105 73.0248 7.13341C50.6263 6.60715 -16.4968 5.10309 5.8453 4.42138C76.356 2.26994 148.191 7.47116 218.701 11.2504C224.39 11.5554 241.424 11.8472 235.767 12.211C205.403 14.1637 172.563 12.6003 142.264 12.9747C127.917 13.1519 113.566 13.2927 99.2324 13.6631C94.6239 13.7822 89.6894 13.1406 85.4538 14.4428C82.7052 15.2877 91.4271 14.9857 94.4219 15.1419C102.364 15.5564 110.313 15.805 118.26 16.0949" stroke="#F4462F" stroke-width="2" stroke-linecap="round"/>
</svg>
