<svg width="21" height="20" viewBox="0 0 21 20" fill="none" xmlns="http://www.w3.org/2000/svg">
<path d="M7.31125 5.18798C6.62716 10.2422 6.00255 11.2938 0.594869 11.8562L0.640628 12.311C6.20501 11.8515 6.64684 12.838 8.54675 17.4685L9.0037 17.4213C8.49779 12.3605 10.4016 11.4037 15.2631 10.8003L15.2174 10.3455C9.2784 10.9549 9.71438 9.58863 7.31125 5.18798Z" fill="white"/>
<path d="M13.4748 2.09184C14.2532 5.12333 14.1407 5.86374 11.1938 7.41297L11.3249 7.66139C14.3848 6.13505 14.864 6.59599 17.0147 8.79902L17.2638 8.66828C15.8069 5.90351 16.6691 4.92629 19.2958 3.47788L19.1647 3.22947C15.9263 4.92626 15.8588 4.0497 13.4748 2.09184Z" fill="white"/>
<path d="M12.4293 12.9831C14.0185 15.104 14.1703 15.7183 12.369 17.8669L12.5518 18.0193C14.4488 15.8526 14.9724 16.0602 17.3659 17.0969L17.5182 16.9154C15.485 15.219 15.8425 14.1809 17.4262 12.213L17.2433 12.0607C15.2621 14.4174 14.9256 13.754 12.4293 12.9831Z" fill="white"/>
</svg>
