<svg width="113" height="159" viewBox="0 0 113 159" fill="none" xmlns="http://www.w3.org/2000/svg">
<path d="M39.2253 153.908C39.045 153.937 38.877 154.035 38.7672 154.198C38.5596 154.51 38.6433 154.93 38.9547 155.136C40.7855 156.357 42.682 157.549 44.5908 158.684C44.912 158.875 45.3289 158.773 45.5198 158.449C45.7117 158.129 45.6069 157.714 45.2863 157.523C43.3952 156.398 41.5177 155.217 39.7067 154.012C39.5598 153.912 39.3876 153.882 39.2253 153.908ZM28.597 146.003C28.4403 146.028 28.2923 146.107 28.1824 146.237C27.9428 146.525 27.9807 146.951 28.2682 147.191C29.9472 148.589 31.7095 149.974 33.505 151.309C33.8042 151.53 34.2289 151.469 34.4531 151.169C34.6765 150.87 34.6149 150.446 34.3141 150.222C32.5382 148.904 30.7978 147.534 29.1378 146.151C28.9814 146.024 28.7829 145.974 28.597 146.003ZM18.9896 136.901C18.8616 136.921 18.7389 136.978 18.6372 137.071C18.3614 137.324 18.3427 137.751 18.5958 138.028C20.0629 139.623 21.6391 141.216 23.283 142.768C23.5555 143.026 23.9838 143.013 24.241 142.742C24.498 142.471 24.4864 142.043 24.2154 141.785C22.594 140.255 21.0395 138.682 19.5955 137.112C19.4348 136.938 19.2054 136.866 18.9896 136.901ZM10.8501 126.49C10.7584 126.505 10.6703 126.538 10.5875 126.592C10.2739 126.794 10.1832 127.213 10.3868 127.526C11.566 129.343 12.8719 131.167 14.2723 132.95C14.5026 133.245 14.9289 133.295 15.223 133.064C15.5179 132.834 15.5696 132.409 15.3383 132.116C13.9643 130.363 12.6814 128.574 11.5251 126.79C11.3747 126.559 11.1065 126.449 10.8501 126.49ZM4.83981 114.742C4.79429 114.749 4.74927 114.76 4.70552 114.778C4.35455 114.909 4.17786 115.3 4.31111 115.648C5.08564 117.695 6.00064 119.75 7.03272 121.755C7.20208 122.089 7.61148 122.219 7.94454 122.048C8.27697 121.878 8.40929 121.47 8.23715 121.137C7.22996 119.176 6.33573 117.169 5.57807 115.171C5.46323 114.866 5.15001 114.693 4.83981 114.742ZM64.8759 100.45C64.5633 100.5 64.3184 100.763 64.3055 101.09C64.2911 101.463 64.5822 101.778 64.9553 101.793C67.0366 101.873 69.1408 101.747 71.2079 101.42L71.6975 101.337C72.0666 101.272 72.3136 100.922 72.2488 100.554C72.1844 100.191 71.8397 99.9452 71.4754 100.003L71.4648 100.005L70.996 100.082C69.0151 100.396 67.0017 100.517 65.0099 100.441C64.9636 100.44 64.9189 100.444 64.8759 100.45ZM83.6889 95.1151C83.5953 95.1299 83.5027 95.1625 83.4177 95.2201C81.6287 96.4154 79.7033 97.4313 77.6927 98.2368C77.345 98.3752 77.1772 98.7695 77.3165 99.1167C77.4557 99.4623 77.8492 99.6369 78.1972 99.4919C80.2944 98.6514 82.3046 97.5927 84.1718 96.3425C84.483 96.1347 84.5656 95.7147 84.3587 95.406C84.2062 95.1785 83.9416 95.075 83.6889 95.1151ZM52.1273 97.2069C51.9152 97.2405 51.7235 97.3755 51.6227 97.5826C51.4597 97.919 51.6018 98.3229 51.9383 98.4853C53.6946 99.3297 55.4877 100.021 57.2695 100.541C57.6002 100.639 57.9355 100.733 58.2688 100.818C58.6347 100.912 59.0022 100.691 59.0953 100.33C59.1878 99.9692 58.9702 99.6001 58.608 99.5071C58.288 99.4255 57.9705 99.3385 57.6523 99.2435C55.9409 98.7434 54.2168 98.0786 52.5281 97.266C52.3985 97.2032 52.2589 97.1861 52.1273 97.2069ZM1.73664 101.924C1.38092 101.981 1.12992 102.306 1.16906 102.666C1.25649 103.481 1.36593 104.289 1.49267 105.089C1.71723 106.491 2.00017 107.894 2.33176 109.26C2.41842 109.622 2.79453 109.84 3.14836 109.757C3.51237 109.668 3.73595 109.302 3.64786 108.94C3.32454 107.609 3.05043 106.242 2.83168 104.877C2.70847 104.099 2.60232 103.312 2.51587 102.52C2.4756 102.149 2.14227 101.881 1.7702 101.922L1.73664 101.924ZM92.8336 85.6706C92.6451 85.7004 92.4709 85.8081 92.3625 85.9838C92.1152 86.3857 91.854 86.7834 91.5771 87.1835C90.6276 88.5627 89.5532 89.8719 88.3851 91.0783C88.1248 91.3483 88.1321 91.7753 88.4007 92.0367C88.671 92.2945 89.102 92.285 89.3589 92.0172C90.5795 90.7584 91.7025 89.3925 92.6939 87.951C92.983 87.531 93.2568 87.1118 93.515 86.695C93.7131 86.3744 93.6128 85.9589 93.2954 85.7641C93.1522 85.6756 92.9871 85.6462 92.8336 85.6706ZM41.3819 89.5771C41.2434 89.599 41.1102 89.6627 41.0052 89.7708C40.7414 90.0365 40.7455 90.4656 41.0121 90.7273C42.6317 92.3156 44.3608 93.7705 46.1529 95.0504C46.4542 95.269 46.8773 95.1987 47.0985 94.8956C47.3157 94.59 47.2462 94.168 46.9408 93.9516C45.2074 92.7115 43.5317 91.302 41.963 89.7612C41.8036 89.6067 41.5859 89.5448 41.3819 89.5771ZM1.98945 88.7363C1.70305 88.7816 1.46847 89.0084 1.42437 89.3078C1.10075 91.5292 0.915094 93.7728 0.86971 95.9778C0.862262 96.3516 1.16009 96.6606 1.53389 96.6668C1.89893 96.6775 2.21765 96.3803 2.22548 96.0049C2.26811 93.8558 2.4498 91.6668 2.76545 89.5006C2.82044 89.1324 2.56295 88.7875 2.19278 88.7351C2.12273 88.7249 2.0551 88.7259 1.98945 88.7363ZM96.6809 73.1763C96.3664 73.2261 96.12 73.4923 96.1105 73.8239C96.0461 75.9731 95.6904 78.1015 95.0535 80.1453C94.9428 80.5011 95.1419 80.8814 95.4983 80.9916C95.8563 81.0999 96.2357 80.9025 96.3461 80.5451C97.0209 78.3842 97.3968 76.1382 97.4657 73.8625C97.4766 73.4882 97.182 73.1786 96.8087 73.1675C96.7641 73.1647 96.722 73.1698 96.6809 73.1763ZM33.348 79.114C33.2682 79.1266 33.1893 79.1538 33.1142 79.1968C32.7902 79.3837 32.6805 79.7982 32.867 80.1232C34.0044 82.0837 35.253 83.9579 36.5791 85.6956C36.8062 85.9914 37.2369 86.0489 37.5289 85.8213C37.8269 85.5943 37.8837 85.1703 37.6576 84.8727C36.3661 83.1834 35.1496 81.3581 34.0411 79.4437C33.8966 79.1937 33.6169 79.0714 33.348 79.114ZM5.34158 75.9625C5.10886 75.9994 4.90244 76.1579 4.81266 76.3944C4.43284 77.4089 4.07413 78.4347 3.73955 79.4682C3.38585 80.5504 3.05994 81.6593 2.76864 82.7562C2.67314 83.1178 2.88963 83.4871 3.2519 83.5817C3.61416 83.6762 3.98327 83.4625 4.08005 83.1007C4.3637 82.028 4.68206 80.9448 5.02786 79.885C5.35746 78.8687 5.70865 77.8636 6.08311 76.868C6.21373 76.5172 6.03578 76.1287 5.68562 75.9979C5.5715 75.9555 5.45451 75.9446 5.34158 75.9625ZM93.9005 60.366C93.8381 60.3759 93.776 60.3955 93.7147 60.4248C93.3765 60.583 93.2328 60.9881 93.3942 61.3253C94.1774 62.9742 94.8026 64.6972 95.2498 66.4467C95.3334 66.7684 95.4113 67.0943 95.4845 67.4243C95.5651 67.7873 95.93 68.0237 96.2913 67.9386C96.6581 67.856 96.8874 67.4945 96.8074 67.1297C96.7314 66.7872 96.65 66.4471 96.5644 66.1126C96.0952 64.2767 95.439 62.472 94.6185 60.7441C94.4864 60.4676 94.1893 60.3202 93.9005 60.366ZM28.2384 66.9668C28.2215 66.9695 28.2058 66.972 28.1903 66.9744C27.8256 67.0584 27.5972 67.4214 27.6817 67.7855C28.0991 69.5806 28.6818 71.3821 29.4135 73.1356C29.5563 73.479 29.703 73.8202 29.8518 74.1578C30.001 74.4985 30.4048 74.6535 30.7437 74.5034C31.0876 74.3525 31.2428 73.9553 31.0919 73.6116C30.9477 73.2831 30.8049 72.9511 30.6663 72.6168C29.9624 70.9309 29.4019 69.2009 29.0032 67.4797C28.9228 67.1329 28.5858 66.9118 28.2384 66.9668ZM11.1567 64.0961C10.9702 64.1256 10.7953 64.2334 10.6871 64.4058C9.52811 66.2676 8.43909 68.236 7.45301 70.26C7.28772 70.5934 7.42798 70.9993 7.76335 71.1619C8.1 71.3243 8.50626 71.188 8.66953 70.85C9.63699 68.8698 10.7031 66.9426 11.8377 65.1206C12.0355 64.8033 11.9388 64.3856 11.6202 64.1877C11.4764 64.0993 11.3126 64.0714 11.1567 64.0961ZM85.8542 49.9865C85.6995 50.011 85.5532 50.0881 85.4434 50.215C85.2007 50.5002 85.2359 50.9276 85.5196 51.1686C87.1801 52.5788 88.6865 54.1508 89.9998 55.8366C90.2281 56.1305 90.657 56.1818 90.9504 55.954C91.2459 55.7241 91.2985 55.3008 91.0687 55.0054C89.7007 53.2449 88.1285 51.6083 86.399 50.1387C86.2425 50.0066 86.0427 49.9566 85.8542 49.9865ZM28.0253 53.8576C27.7508 53.9011 27.5211 54.1107 27.4651 54.399C27.0356 56.6387 26.8349 58.8929 26.8675 61.1019C26.8729 61.4753 27.1813 61.7745 27.5556 61.7675C27.9244 61.7614 28.2272 61.4568 28.2228 61.0817C28.1907 58.9641 28.384 56.801 28.7972 54.652C28.8675 54.2847 28.6269 53.9322 28.2587 53.8615C28.179 53.8463 28.1008 53.8456 28.0253 53.8576ZM19.3261 53.708C19.1889 53.7298 19.0568 53.7932 18.9504 53.8999C17.4011 55.4575 15.9117 57.1479 14.5203 58.9223C14.2893 59.2171 14.3419 59.6418 14.6361 59.8714C14.9308 60.1008 15.3569 60.0496 15.5878 59.7549C16.9459 58.0233 18.4011 56.3727 19.9135 54.8519C20.1774 54.5879 20.1746 54.1586 19.9096 53.895C19.7504 53.7372 19.5314 53.6755 19.3261 53.708ZM74.4225 43.423C74.196 43.4589 73.9937 43.6102 73.9009 43.8357C73.7598 44.1816 73.9254 44.577 74.2719 44.7165C75.6743 45.2852 77.1015 45.9203 78.5128 46.6052C79.0819 46.8827 79.6429 47.1746 80.193 47.4813C80.5192 47.6632 80.9325 47.5471 81.115 47.2208C81.2973 46.8945 81.1815 46.4814 80.8551 46.2995C80.2821 45.9801 79.6982 45.6772 79.1069 45.3885C77.6667 44.6918 76.2131 44.0429 74.7839 43.4637C74.6651 43.4156 74.5412 43.4042 74.4225 43.423ZM61.7067 39.8131C61.4261 39.8576 61.191 40.0778 61.1449 40.376C61.0831 40.742 61.3353 41.0893 61.7041 41.1486C63.8096 41.4882 65.9572 41.9667 68.0867 42.5754C68.4444 42.6772 68.8208 42.4721 68.9249 42.1125C69.0285 41.7529 68.8211 41.3805 68.4599 41.276C66.2799 40.6524 64.079 40.1595 61.9214 39.815C61.8484 39.8021 61.7761 39.8021 61.7067 39.8131ZM41.9835 40.6209C41.9622 40.6242 41.9429 40.6273 41.9223 40.6338C41.4405 40.7543 40.9632 40.8822 40.4912 41.0158C38.8148 41.4922 37.1498 42.0649 35.5407 42.7202C35.1947 42.8616 35.0287 43.2588 35.1703 43.6041C35.3108 43.9495 35.7027 44.1145 36.053 43.9724C37.6153 43.336 39.2334 42.7789 40.861 42.3168C41.3201 42.1869 41.784 42.0627 42.2532 41.9442C42.6159 41.8557 42.8362 41.4858 42.7453 41.126C42.6591 40.7835 42.3261 40.5666 41.9835 40.6209ZM48.4991 39.4496C48.1434 39.506 47.8919 39.8318 47.9313 40.19C47.9718 40.5627 48.306 40.8316 48.6776 40.7907C50.8267 40.5565 53.0213 40.4686 55.1999 40.5303C55.565 40.5411 55.887 40.2482 55.8976 39.8756C55.9081 39.5014 55.6144 39.19 55.2405 39.179C52.9987 39.1142 50.7426 39.2053 48.5315 39.4445L48.4991 39.4496ZM32.7109 41.5557C32.5149 41.5867 32.334 41.7036 32.2278 41.8888C31.5027 43.1589 30.8473 44.4442 30.2642 45.7295C30.0531 45.5718 29.7553 45.5454 29.5188 45.6875C27.6093 46.7972 25.7403 48.064 23.9628 49.4486C23.6685 49.6783 23.615 50.1035 23.8453 50.3987C24.0766 50.6921 24.5006 50.7443 24.7961 50.5144C26.3498 49.3041 27.9732 48.189 29.6321 47.1909C29.53 47.4423 29.43 47.6919 29.3328 47.9426C29.198 48.2907 29.3725 48.6814 29.7206 48.8158C30.0662 48.9506 30.4613 48.7802 30.5975 48.4285C31.3525 46.4754 32.2966 44.5006 33.4056 42.5584C33.5903 42.2334 33.4784 41.8213 33.1522 41.6361C33.013 41.5568 32.8575 41.5324 32.7109 41.5557ZM40.5846 30.9432C40.4386 30.9663 40.2993 31.0358 40.1919 31.1541C38.6435 32.8342 37.202 34.5643 35.9102 36.2936C35.6857 36.5922 35.7473 37.0171 36.0466 37.2393C36.3487 37.4627 36.773 37.4004 36.9952 37.1021C38.2602 35.4098 39.6715 33.7155 41.1895 32.0697C41.4432 31.7941 41.4249 31.3673 41.1494 31.1135C40.9906 30.9671 40.7823 30.9119 40.5846 30.9432ZM50.3562 22.0138C50.2465 22.0312 50.139 22.076 50.0452 22.1497C48.2622 23.5368 46.5433 24.9841 44.9351 26.4481C44.6582 26.6995 44.6391 27.1274 44.8905 27.403C45.1447 27.6797 45.5724 27.6985 45.8493 27.4471C47.43 26.0071 49.1225 24.582 50.8785 23.2155C51.1735 22.9857 51.2263 22.5607 50.9963 22.267C50.8397 22.0663 50.5915 21.9765 50.3562 22.0138ZM61.3394 14.6115C61.2585 14.6244 61.1781 14.6502 61.1032 14.6947C59.1747 15.8206 57.2726 17.0125 55.4513 18.2374C55.1413 18.445 55.0578 18.8668 55.2674 19.1767C55.4777 19.4866 55.8966 19.5673 56.2076 19.3579C58.0064 18.148 59.8833 16.9747 61.7871 15.8626C62.1096 15.6742 62.2192 15.2598 62.0307 14.9367C61.8853 14.6901 61.6078 14.569 61.3394 14.6115ZM73.1775 8.65233C73.1238 8.66083 73.0686 8.67613 73.0161 8.69916C70.9768 9.57457 68.9419 10.5212 66.9675 11.5154C66.6333 11.6828 66.4983 12.0898 66.6664 12.4243C66.8355 12.757 67.2428 12.8902 67.5767 12.7246C69.5268 11.7423 71.5364 10.8063 73.5507 9.94298C73.8942 9.79379 74.0538 9.39591 73.9054 9.05339C73.7808 8.76266 73.477 8.60488 73.1775 8.65233ZM85.6601 4.19896C85.6326 4.20332 85.606 4.20917 85.5778 4.21692C83.4722 4.8185 81.336 5.50504 79.2258 6.25933C78.8722 6.38562 78.6879 6.77269 78.816 7.12496C78.9401 7.47624 79.335 7.65552 79.6812 7.5353C81.7638 6.78865 83.8733 6.11124 85.9507 5.51738C86.3112 5.41451 86.5185 5.04015 86.4158 4.68221C86.3221 4.349 85.9939 4.14607 85.6601 4.19896ZM105.224 0.914665C104.89 0.967558 104.639 1.2639 104.654 1.60797C104.668 1.98324 104.982 2.27168 105.356 2.25818C107.597 2.16956 109.801 2.19782 111.907 2.34123C112.295 2.37128 112.605 2.08517 112.632 1.71334C112.656 1.34173 112.374 1.01876 112.002 0.992807C109.847 0.844055 107.594 0.815329 105.304 0.905188C105.276 0.906353 105.251 0.910414 105.224 0.914665ZM96.4236 1.79912C94.9861 2.02688 93.5165 2.29895 92.0591 2.60668C91.6926 2.68434 91.4564 3.04205 91.5358 3.41021C91.6112 3.77247 91.9223 4.02058 92.3371 3.93034C94.5141 3.47268 96.6847 3.09609 98.8169 2.82036C99.2047 2.75238 99.4501 2.43243 99.4009 2.06111C99.354 1.6927 99.0131 1.42971 98.6422 1.47865C97.9058 1.57409 97.1668 1.68136 96.4236 1.79912Z" fill="#259EA6"/>
</svg>
