<svg width="88" height="167" viewBox="0 0 88 167" fill="none" xmlns="http://www.w3.org/2000/svg">
<path d="M8.54244 1.85315C8.66459 1.7174 8.7331 1.5351 8.71596 1.33945C8.68076 0.966037 8.35163 0.69255 7.98029 0.72887C5.78907 0.932486 3.56571 1.20075 1.36798 1.52017C0.99824 1.57403 0.738451 1.91582 0.794172 2.28812C0.846202 2.65731 1.18865 2.91362 1.55797 2.86025C3.7355 2.54398 5.93778 2.2798 8.10325 2.07585C8.27986 2.06053 8.43251 1.97531 8.54244 1.85315ZM21.7751 1.30365C21.8813 1.1857 21.9466 1.03117 21.9501 0.860837C21.955 0.486175 21.6579 0.179471 21.2833 0.173636C19.0992 0.144936 16.8578 0.177578 14.6226 0.270851C14.2513 0.287842 13.9596 0.602394 13.9743 0.976906C13.9885 1.34949 14.3037 1.64091 14.6781 1.62524C16.8877 1.5315 19.102 1.50012 21.2618 1.5292C21.4633 1.52959 21.6492 1.44361 21.7751 1.30365ZM34.9682 2.32776C35.0549 2.23145 35.1144 2.10982 35.1349 1.97358C35.1901 1.60344 34.9355 1.25921 34.5645 1.20341C32.4212 0.888177 30.1938 0.642352 27.94 0.47163C27.5662 0.443096 27.2411 0.722371 27.2119 1.09501C27.1828 1.46753 27.4611 1.79275 27.8338 1.82238C30.057 1.99097 32.2543 2.23405 34.3645 2.54511C34.5987 2.57909 34.822 2.4902 34.9682 2.32776ZM47.8435 5.29235C47.9056 5.22333 47.9529 5.14171 47.9833 5.04762C48.1001 4.69351 47.9066 4.31031 47.5517 4.19563C45.4924 3.52657 43.3298 2.93125 41.1196 2.42739C40.7549 2.34299 40.3921 2.57244 40.309 2.93733C40.2245 3.30151 40.4516 3.66425 40.816 3.74661C42.9867 4.24367 45.1091 4.82582 47.1302 5.48424C47.3925 5.56911 47.6698 5.48533 47.8435 5.29235ZM59.9058 10.6368C59.9366 10.6025 59.965 10.5661 59.9875 10.5242C60.1779 10.2016 60.0693 9.78677 59.7467 9.6001C57.8566 8.49686 55.8529 7.4765 53.7894 6.5684C53.4474 6.41526 53.0478 6.57235 52.8962 6.9145C52.745 7.25616 52.8991 7.6567 53.2419 7.80648C55.2587 8.69649 57.2165 9.69309 59.0623 10.7684C59.3436 10.9334 59.6956 10.8703 59.9058 10.6368ZM22.2468 59.5436C22.4585 59.3083 22.4836 58.95 22.2877 58.6876C22.0641 58.3885 21.6397 58.327 21.3406 58.5507C19.6728 59.7987 18.1169 61.2214 16.7167 62.7774L16.3882 63.1498C16.1423 63.4327 16.1703 63.8599 16.4527 64.1057C16.7308 64.3467 17.1534 64.3209 17.4002 64.0467L17.4074 64.0387L17.7229 63.6833C19.0647 62.1921 20.5529 60.8301 22.1488 59.6356C22.1853 59.6071 22.2177 59.5759 22.2468 59.5436ZM10.9852 75.535C11.0486 75.4645 11.1 75.3809 11.1298 75.2826C11.7679 73.2274 12.6248 71.2256 13.6803 69.3338C13.8634 69.0072 13.7457 68.5952 13.419 68.4131C13.0933 68.2322 12.6777 68.3443 12.4985 68.6761C11.3978 70.6497 10.5019 72.7381 9.83758 74.8852C9.72648 75.2427 9.92661 75.621 10.2817 75.7306C10.5433 75.8114 10.814 75.7252 10.9852 75.535ZM34.1941 54.0369C34.3378 53.8773 34.4018 53.6517 34.3498 53.4273C34.2649 53.0633 33.9003 52.8388 33.5366 52.9245C31.6406 53.3743 29.8122 53.966 28.1004 54.6838C27.7818 54.8159 27.4621 54.954 27.15 55.0983C26.8065 55.2556 26.6594 55.658 26.8143 55.9972C26.9696 56.336 27.371 56.4859 27.7109 56.3301C28.0109 56.1921 28.3123 56.0597 28.6194 55.9331C30.264 55.2443 32.022 54.6752 33.8455 54.2434C33.9857 54.2106 34.105 54.136 34.1941 54.0369ZM70.3824 18.6432C70.6233 18.3754 70.6134 17.9643 70.3566 17.7093C69.7761 17.1314 69.1827 16.5725 68.5807 16.0305C67.5238 15.0821 66.4212 14.1701 65.3041 13.3175C65.0089 13.0907 64.5793 13.1579 64.3571 13.4459C64.1301 13.744 64.1863 14.1688 64.4825 14.3945C65.5714 15.2254 66.6444 16.1149 67.6737 17.0384C68.2589 17.5653 68.8367 18.1102 69.4022 18.6711C69.667 18.9341 70.0943 18.9321 70.3576 18.666L70.3824 18.6432ZM9.82182 88.6318C9.94949 88.4899 10.0171 88.2966 9.9908 88.0918C9.93003 87.6238 9.88283 87.1503 9.84623 86.6651C9.71619 84.9954 9.72729 83.3016 9.87592 81.6287C9.9083 81.255 9.63394 80.9279 9.26082 80.8938C8.88848 80.8637 8.55956 81.1424 8.52846 81.5123C8.37208 83.259 8.35886 85.0275 8.49549 86.7718C8.53511 87.2802 8.58609 87.7784 8.64767 88.2648C8.69547 88.6387 9.03491 88.8984 9.40414 88.8499C9.57105 88.8285 9.71784 88.7473 9.82182 88.6318ZM47.3447 53.2C47.4385 53.0957 47.502 52.9624 47.5155 52.8123C47.5534 52.4397 47.2802 52.1089 46.9084 52.0734C44.6505 51.8589 42.3914 51.8171 40.1935 51.9509C39.8218 51.9708 39.5373 52.2918 39.5561 52.6666C39.5797 53.0409 39.8992 53.325 40.2726 53.3009C42.3999 53.1731 44.5889 53.2132 46.7773 53.4228C46.9984 53.4425 47.2065 53.3535 47.3447 53.2ZM78.484 29.0502C78.678 28.8346 78.7176 28.5107 78.5634 28.2502C77.4172 26.3204 76.1498 24.4601 74.7976 22.718C74.5682 22.4229 74.1423 22.3703 73.848 22.6009C73.5575 22.8224 73.4969 23.254 73.7271 23.5507C75.0461 25.2474 76.2824 27.0629 77.4001 28.9449C77.589 29.2656 78.0061 29.3714 78.3267 29.1791C78.3876 29.1429 78.4395 29.0996 78.484 29.0502ZM14.6938 100.763C14.9069 100.526 14.9308 100.164 14.7296 99.9006C13.4273 98.19 12.3645 96.3122 11.5734 94.323C11.4355 93.9768 11.0416 93.8067 10.6953 93.9454C10.3489 94.0867 10.1783 94.479 10.3174 94.8262C11.1528 96.9302 12.2739 98.9121 13.6523 100.724C13.8793 101.022 14.303 101.077 14.6001 100.85C14.6365 100.824 14.666 100.794 14.6938 100.763ZM60.171 56.272C60.2251 56.2119 60.2693 56.1411 60.3006 56.0604C60.4348 55.7111 60.2593 55.32 59.9098 55.1849C57.7924 54.3776 55.6429 53.7074 53.5191 53.1921C53.1565 53.1053 52.7856 53.3317 52.702 53.6924C52.6131 54.0565 52.8358 54.4218 53.1987 54.5106C55.2653 55.0101 57.3591 55.6625 59.425 56.4522C59.6946 56.5554 59.989 56.4744 60.171 56.272ZM83.9166 41.0868C84.0743 40.9116 84.1349 40.6584 84.0559 40.4181C83.7127 39.3907 83.346 38.3677 82.9557 37.354C82.5496 36.2903 82.1051 35.2234 81.6412 34.1876C81.488 33.8466 81.0874 33.6959 80.7463 33.8505C80.4053 34.0051 80.253 34.4036 80.4054 34.7456C80.86 35.7579 81.2942 36.8 81.6923 37.8412C82.0757 38.8385 82.4352 39.8406 82.7707 40.8501C82.8899 41.2049 83.2726 41.3947 83.627 41.2759C83.7424 41.237 83.8401 41.1718 83.9166 41.0868ZM24.9148 108.967C24.9571 108.92 24.993 108.865 25.0222 108.804C25.1854 108.468 25.0422 108.063 24.7046 107.902C23.0585 107.114 21.4886 106.169 20.0402 105.091C19.7729 104.894 19.5072 104.69 19.2427 104.479C18.9517 104.248 18.5194 104.294 18.2921 104.588C18.0591 104.883 18.1084 105.308 18.4001 105.541C18.6747 105.76 18.9519 105.973 19.2289 106.179C20.7487 107.31 22.3941 108.299 24.119 109.125C24.3956 109.257 24.7192 109.184 24.9148 108.967ZM71.7847 62.4938C71.7962 62.481 71.8068 62.4693 71.8173 62.4576C72.0479 62.1627 71.997 61.7368 71.7022 61.5071C70.2483 60.375 68.662 59.342 66.9901 58.4402C66.663 58.2632 66.3344 58.0905 66.0064 57.9219C65.676 57.7511 65.2647 57.8849 65.0958 58.2149C64.9236 58.5486 65.0528 58.955 65.3864 59.1271C65.7051 59.2915 66.025 59.4596 66.343 59.6321C67.9508 60.499 69.4748 61.4903 70.8677 62.5768C71.1484 62.7956 71.5494 62.7553 71.7847 62.4938ZM86.8645 53.9692C86.9908 53.8287 87.0589 53.6349 87.0346 53.4328C86.7636 51.2563 86.3713 49.041 85.864 46.8474C85.7827 46.4843 85.4183 46.2571 85.0554 46.342C84.6916 46.4278 84.4617 46.7895 84.5475 47.1549C85.0417 49.3028 85.4259 51.4716 85.6907 53.6018C85.7366 53.9729 86.0746 54.2366 86.4467 54.1898C86.614 54.1679 86.7589 54.0865 86.8645 53.9692ZM37.6982 111.966C37.803 111.849 37.8682 111.697 37.8736 111.53C37.8828 111.155 37.5865 110.845 37.2143 110.837C35.0367 110.786 32.8771 110.513 30.7958 110.03C30.4335 109.946 30.0679 110.176 29.9833 110.538C29.8983 110.902 30.1238 111.264 30.4882 111.349C32.6589 111.856 34.9105 112.138 37.179 112.191C37.3837 112.195 37.5705 112.108 37.6982 111.966ZM80.1988 72.5462C80.3847 72.3396 80.4314 72.0321 80.2935 71.7728C79.2179 69.762 77.9555 67.884 76.5403 66.1879C76.3011 65.9012 75.8732 65.8629 75.5868 66.1041C75.3041 66.341 75.2604 66.7683 75.4998 67.057C76.8572 68.6823 78.0681 70.4849 79.0992 72.4149C79.2756 72.7447 79.6844 72.867 80.015 72.6902C80.0865 72.6518 80.1477 72.6031 80.1988 72.5462ZM87.0527 67.1851C87.1456 67.0818 87.2084 66.9494 87.2239 66.7994C87.4477 64.6135 87.5415 62.3623 87.5061 60.1073C87.5002 59.7328 87.1921 59.4359 86.819 59.4428C86.4456 59.45 86.1467 59.7581 86.1528 60.1325C86.1871 62.3332 86.0949 64.532 85.8765 66.666C85.8376 67.0374 86.1099 67.3692 86.4816 67.4072C86.7047 67.4295 86.9137 67.3396 87.0527 67.1851ZM50.7111 109.868C50.8645 109.698 50.9265 109.453 50.8568 109.219C50.7487 108.861 50.3713 108.659 50.0142 108.768C48.5666 109.209 47.0581 109.614 45.5304 109.971C44.9136 110.114 44.294 110.24 43.6736 110.348C43.3056 110.412 43.0575 110.763 43.121 111.131C43.1847 111.499 43.5346 111.747 43.9027 111.683C44.5489 111.571 45.1932 111.438 45.8344 111.29C47.3919 110.925 48.9297 110.514 50.4046 110.064C50.5272 110.027 50.6307 109.958 50.7111 109.868ZM62.8634 104.667C63.0535 104.456 63.0976 104.136 62.9458 103.876C62.7635 103.552 62.349 103.441 62.0252 103.627C60.1753 104.689 58.2055 105.67 56.1677 106.538C55.8257 106.684 55.6623 107.08 55.8076 107.425C55.9534 107.77 56.3489 107.928 56.6953 107.782C58.7817 106.894 60.8021 105.891 62.6954 104.801C62.7602 104.765 62.8164 104.719 62.8634 104.667ZM77.6812 91.6206C77.6956 91.6046 77.7087 91.5901 77.7206 91.572C78.0192 91.1751 78.3096 90.7751 78.5923 90.3741C79.5952 88.9484 80.5288 87.455 81.3668 85.9327C81.5467 85.6049 81.4257 85.1917 81.0984 85.0126C80.7719 84.8327 80.3635 84.9512 80.1807 85.2822C79.3672 86.7605 78.4603 88.2121 77.4864 89.596C77.2114 89.9861 76.929 90.3746 76.639 90.7621C76.4128 91.0593 76.4744 91.4854 76.7714 91.7077C77.0539 91.9197 77.4492 91.8785 77.6812 91.6206ZM73.3552 96.6332C73.5961 96.3655 73.5865 95.9539 73.3306 95.7004C73.0646 95.4363 72.6356 95.4378 72.3726 95.7035C70.8501 97.2387 69.2001 98.6888 67.4683 100.013C67.1779 100.234 67.1119 100.664 67.3381 100.961C67.5655 101.258 67.9895 101.315 68.287 101.088C70.0698 99.727 71.7656 98.2357 73.3332 96.6576L73.3552 96.6332ZM84.2984 85.0558C84.4311 84.9083 84.4982 84.7035 84.4642 84.4928C84.2285 83.0492 83.929 81.6378 83.5734 80.272C83.8367 80.2616 84.0846 80.0946 84.1791 79.8352C84.9645 77.7706 85.6198 75.6095 86.1298 73.4144C86.214 73.0505 85.9881 72.6865 85.6233 72.6021C85.2589 72.5197 84.8967 72.7462 84.8117 73.1108C84.3659 75.0296 83.8061 76.9182 83.145 78.7384C83.0662 78.4787 82.9869 78.2218 82.9046 77.9658C82.7903 77.6104 82.4089 77.4167 82.0538 77.5315C81.7005 77.6443 81.5007 78.0255 81.6161 78.3845C82.2584 80.3775 82.7674 82.5066 83.1276 84.714C83.1886 85.0829 83.5349 85.3326 83.9049 85.2711C84.0629 85.2451 84.1991 85.1662 84.2984 85.0558ZM84.8576 98.2599C84.9565 98.15 85.0211 98.0083 85.03 97.8488C85.1761 95.5683 85.2076 93.3163 85.1233 91.1592C85.1099 90.7857 84.7947 90.4943 84.4223 90.5101C84.047 90.5268 83.7564 90.8424 83.7715 91.214C83.8534 93.3256 83.8228 95.5308 83.6788 97.7655C83.655 98.1393 83.9378 98.4595 84.3115 98.4832C84.527 98.497 84.7237 98.4087 84.8576 98.2599ZM82.883 111.351C82.9573 111.269 83.0126 111.166 83.0392 111.05C83.5518 108.849 83.9769 106.642 84.3054 104.492C84.3623 104.122 84.108 103.778 83.7393 103.722C83.3676 103.667 83.0234 103.922 82.9664 104.291C82.6442 106.406 82.2257 108.579 81.7211 110.746C81.6364 111.111 81.8628 111.474 82.2263 111.557C82.4742 111.615 82.7236 111.528 82.883 111.351ZM79.006 124.019C79.0609 123.958 79.1071 123.887 79.1372 123.805C79.9274 121.716 80.6555 119.592 81.3 117.494C81.4102 117.137 81.2097 116.757 80.8519 116.648C80.4935 116.54 80.1172 116.741 80.0073 117.099C79.3708 119.172 78.6506 121.266 77.871 123.328C77.7389 123.678 77.9145 124.069 78.2643 124.201C78.5324 124.301 78.8242 124.221 79.006 124.019ZM73.5568 136.103C73.5932 136.063 73.6264 136.016 73.6528 135.965C74.6865 134.001 75.6722 131.984 76.5808 129.968C76.7352 129.628 76.584 129.226 76.2429 129.072C75.9022 128.92 75.5018 129.073 75.3467 129.412C74.4493 131.403 73.4767 133.396 72.4547 135.335C72.2817 135.667 72.4079 136.077 72.7388 136.25C73.0186 136.397 73.3539 136.329 73.5568 136.103ZM66.6592 147.423C66.6778 147.403 66.6948 147.381 66.7119 147.357C67.9695 145.564 69.1975 143.686 70.3626 141.771C70.5579 141.45 70.4576 141.033 70.1364 140.84C69.8189 140.645 69.3993 140.755 69.2059 141.066C68.0574 142.958 66.8444 144.812 65.6038 146.582C65.3884 146.889 65.4629 147.31 65.7679 147.524C66.0504 147.723 66.4331 147.674 66.6592 147.423ZM53.5235 162.294C53.7496 162.042 53.7583 161.654 53.5302 161.396C53.2833 161.113 52.8575 161.087 52.5754 161.333C50.8902 162.812 49.1597 164.178 47.4326 165.393C47.1123 165.614 47.0512 166.032 47.2648 166.337C47.4793 166.642 47.9017 166.715 48.2075 166.501C49.9758 165.259 51.7445 163.863 53.467 162.352C53.488 162.333 53.5053 162.314 53.5235 162.294ZM59.8054 156.065C60.7791 154.983 61.7498 153.846 62.6887 152.69C62.9246 152.399 62.8831 151.972 62.5897 151.736C62.3032 151.502 61.9054 151.505 61.6398 151.836C60.2362 153.562 58.7864 155.222 57.303 156.779C57.0445 157.076 57.0551 157.479 57.327 157.736C57.5952 157.993 58.0256 157.983 58.283 157.711C58.7952 157.173 59.3019 156.625 59.8054 156.065Z" fill="#259EA6"/>
</svg>
