<svg width="24" height="24" viewBox="0 0 24 24" fill="none" xmlns="http://www.w3.org/2000/svg">
<path d="M18.75 13.7461C21.2353 13.7461 23.25 11.7314 23.25 9.24609C23.25 6.76081 21.2353 4.74609 18.75 4.74609C16.2647 4.74609 14.25 6.76081 14.25 9.24609C14.25 11.7314 16.2647 13.7461 18.75 13.7461Z" stroke="#00415D" stroke-width="1.5" stroke-linecap="round" stroke-linejoin="round"/>
<path d="M23.25 9.24609C23.25 12.0309 22.1438 14.7016 20.1746 16.6707C18.2055 18.6398 15.5348 19.7461 12.75 19.7461" stroke="#00415D" stroke-width="1.5" stroke-linecap="round" stroke-linejoin="round"/>
<path d="M6.75 13.7461C9.23528 13.7461 11.25 11.7314 11.25 9.24609C11.25 6.76081 9.23528 4.74609 6.75 4.74609C4.26472 4.74609 2.25 6.76081 2.25 9.24609C2.25 11.7314 4.26472 13.7461 6.75 13.7461Z" stroke="#00415D" stroke-width="1.5" stroke-linecap="round" stroke-linejoin="round"/>
<path d="M11.25 9.24609C11.25 12.0309 10.1438 14.7016 8.17462 16.6707C6.20549 18.6398 3.53477 19.7461 0.75 19.7461" stroke="#00415D" stroke-width="1.5" stroke-linecap="round" stroke-linejoin="round"/>
</svg>
