<svg width="50" height="50" viewBox="0 0 50 50" fill="none" xmlns="http://www.w3.org/2000/svg">
<circle cx="25" cy="25" r="25" fill="#755BE2"/>
<path d="M31.75 26.5C34.2353 26.5 36.25 24.4853 36.25 22C36.25 19.5147 34.2353 17.5 31.75 17.5C29.2647 17.5 27.25 19.5147 27.25 22C27.25 24.4853 29.2647 26.5 31.75 26.5Z" stroke="white" stroke-width="1.5" stroke-linecap="round" stroke-linejoin="round"/>
<path d="M36.25 22C36.25 24.7848 35.1438 27.4555 33.1746 29.4246C31.2055 31.3938 28.5348 32.5 25.75 32.5" stroke="white" stroke-width="1.5" stroke-linecap="round" stroke-linejoin="round"/>
<path d="M19.75 26.5C22.2353 26.5 24.25 24.4853 24.25 22C24.25 19.5147 22.2353 17.5 19.75 17.5C17.2647 17.5 15.25 19.5147 15.25 22C15.25 24.4853 17.2647 26.5 19.75 26.5Z" stroke="white" stroke-width="1.5" stroke-linecap="round" stroke-linejoin="round"/>
<path d="M24.25 22C24.25 24.7848 23.1438 27.4555 21.1746 29.4246C19.2055 31.3938 16.5348 32.5 13.75 32.5" stroke="white" stroke-width="1.5" stroke-linecap="round" stroke-linejoin="round"/>
</svg>
