<svg width="49" height="49" viewBox="0 0 49 49" fill="none" xmlns="http://www.w3.org/2000/svg">
<path fill-rule="evenodd" clip-rule="evenodd" d="M5.68857 26.4163C6.72121 20.5172 6.24873 14.9362 6.02039 9.03949C5.97563 7.8879 5.00838 6.99382 3.86071 7.03718C2.71236 7.08058 1.81748 8.05271 1.86154 9.20434C2.07822 14.7958 2.56931 20.0973 1.5896 25.7006C1.39119 26.834 2.14942 27.9161 3.28053 28.1104C4.41142 28.3116 5.49084 27.5496 5.68857 26.4163Z" fill="#F4462F"/>
<path fill-rule="evenodd" clip-rule="evenodd" d="M17.838 37.5425C26.9137 28.0354 35.2584 16.0323 40.8509 4.10529C41.3385 3.06353 40.8905 1.8211 39.8509 1.33543C38.8113 0.84976 37.5707 1.29594 37.0831 2.3377C31.6751 13.8696 23.6048 25.4785 14.8286 34.6661C14.0355 35.4991 14.066 36.8186 14.8963 37.6106C15.7266 38.4027 17.045 38.3755 17.838 37.5425Z" fill="#F4462F"/>
<path fill-rule="evenodd" clip-rule="evenodd" d="M21.6774 46.3329C30.6262 47.1913 39.5788 44.0778 47.3867 40.0058C48.4051 39.4705 48.8008 38.2124 48.2711 37.1982C47.7402 36.1771 46.4821 35.7828 45.4633 36.3112C38.3526 40.0227 30.2257 42.9687 22.0754 42.1881C20.9319 42.0782 19.9149 42.9194 19.8053 44.0607C19.695 45.2019 20.5346 46.2229 21.6774 46.3329Z" fill="#F4462F"/>
</svg>
