<svg width="900" height="66" viewBox="0 0 900 66" fill="none" xmlns="http://www.w3.org/2000/svg">
<path opacity="0.2" d="M1 1H67.7872H130.574C132.46 1 133.403 1 133.989 1.58579C134.574 2.17157 134.574 3.11438 134.574 5V61C134.574 62.8856 134.574 63.8284 135.16 64.4142C135.746 65 136.689 65 138.574 65H298.666H428.24C430.126 65 431.069 65 431.654 64.4142C432.24 63.8284 432.24 62.8856 432.24 61V5C432.24 3.11438 432.24 2.17157 432.826 1.58579C433.412 1 434.355 1 436.24 1H597.332H757.423C759.309 1 760.252 1 760.838 1.58579C761.423 2.17157 761.423 3.11438 761.423 5V61C761.423 62.8856 761.423 63.8284 762.009 64.4142C762.595 65 763.538 65 765.423 65H899" stroke="#100906" stroke-linecap="round" stroke-linejoin="round" stroke-dasharray="6 6"/>
</svg>
